<svg id="Calque_1" data-name="Calque 1" xmlns="http://www.w3.org/2000/svg" viewBox="0 0 300 300"><defs><style>.cls-1{fill:#f8ae03;}.cls-2{fill:#fff;}</style></defs><title>icon</title><circle class="cls-1" cx="150" cy="150" r="150"/><path class="cls-2" d="M81.68,233.05A71.39,71.39,0,0,0,96,227.81a65.51,65.51,0,0,0,17.2-12.65q54.25-55,108.68-109.92a14.67,14.67,0,0,0,.46-19.76c-5.6-5.84-11.22-11.65-16.91-17.4a14.64,14.64,0,0,0-20.09.39q-53.83,54-107.63,108.1c-3.57,3.3-5.86,7.68-8,12-5.09,10.58-8.74,21.78-12.12,33-1.94,7.11.1,10.15.89,11.11C62.69,237.76,73.5,235.08,81.68,233.05ZM185.32,92.86c2.56-2.69,5.23-5.27,7.83-7.93a7.74,7.74,0,0,1,4.51-2.6c3.3-.73,6.19,1.43,8.17,3.83a7.35,7.35,0,0,1,.41,10.35c-2.72,2.81-5.48,5.57-8.23,8.33a7.36,7.36,0,0,1-8.27,1.6c-1.73-.74-2.9-2.29-4.21-3.57A7.33,7.33,0,0,1,185.32,92.86ZM83.8,197c5.33-7.4,11.92-13.75,18.28-20.25q33-33.49,66.22-66.73a8.25,8.25,0,0,1,4.23-2.75c4.64-1.27,8.63,2.77,10.59,6.51a7.29,7.29,0,0,1-1.8,7.95q-31.88,32.09-63.7,64.23c-7.89,7.82-15.25,16.47-25,22a7.32,7.32,0,0,1-8.79-11Z"/><path class="cls-2" d="M245,215c-1.9-1.81-17.47,20.56-47,34-7.15,3.25-43.12,19.62-82,5a97,97,0,0,1-34-22l-21.64,1.55a1.4,1.4,0,0,0,.39.86c22.26,22.19,52.7,36.17,86.54,36.17h0a117.89,117.89,0,0,0,30.43-3.83,113.32,113.32,0,0,0,46.18-24.22C236.94,230.86,246.51,216.44,245,215Z"/></svg>