<svg id="Layer_1" data-name="Layer 1" xmlns="http://www.w3.org/2000/svg" viewBox="0 0 232 218.7">
  <defs><style>.cls-1{fill:#606060;}</style></defs><title>QUIZ</title>
  <path class="cls-1" d="M203.93,177.72c-1.92-1-3.87-1.95-5.83-2.81a0,0,0,0,0-.06,0c-7.58,10-15.08,20.36-25.37,27.83-24.87,19.67-59.57,26-89.78,16.23A98.45,98.45,0,0,1,69,36.6c25.53-12.77,56.65-13.32,82.76-1.84,17.63,7.41,32,20.67,43.19,36l0,0c1.44,0,4.24.05,5.69.05a0,0,0,0,0,0,0c.81-2.88,3.46-6,.77-8.73-24.44-35.93-71.83-53.81-114-43.5A109.31,109.31,0,1,0,203,186c1.65-2.4,3-5.68.91-8.25Z" transform="translate(-3 -15.65)"/><path class="cls-1" d="M235,112.88a92.46,92.46,0,0,0-5.13-23.41c-2-5.53-7.53-11.69-14-9.58C210.19,82.22,204,84.62,200,89.42a5.31,5.31,0,0,0-.88,1.49c-2.32,6.08.66,12.48,2.1,18.62a2.62,2.62,0,0,0,2.85,2q3-.35,6-.74a2.35,2.35,0,0,0,2-2.67c-.43-2.88-.85-5.76-1.16-8.65a3,3,0,0,1,2.19-3.17c1.18-.33,2.37-.64,3.58-.88a3,3,0,0,1,3.18,1.4c2.43,4.28,2.8,9.44,3.46,14.34a7.14,7.14,0,0,1-1.38,5.26c-3,4-6.29,7.72-9.07,11.84h0c-1.53,3.27-1.61,7-1.92,10.53a2,2,0,0,0,1.6,2.1l5.95,1.11a2.47,2.47,0,0,0,2.86-2c1.31-7,6.93-11.78,11-17.47A14.56,14.56,0,0,0,235,112.88Z" transform="translate(-3 -15.65)"/><path class="cls-1" d="M67.21,127.65c0-.11,0-.21,0-.32-.41-9.48,1.11-19.2-1.06-28.51-3.3-7.94-13.08-6.74-20.08-6.84-6.43-.42-14.37,1.68-15.85,8.92-1.29,11.77-.15,23.62-.57,35.43.26,5.93-1.09,12.86,3.15,17.74,3.19,3.6,8,3.59,12.59,3.76a6,6,0,0,1,5.1,3.25l.89,1.75a6,6,0,0,0,5.37,3.29h0A6,6,0,0,0,62.53,159a4.82,4.82,0,0,1,1.25-4.47C69.17,146.52,66.78,136.64,67.21,127.65ZM55.29,140.14a6,6,0,0,1-6.13,5.67l-1.2,0a6,6,0,0,1-5.65-5.65c-.42-10-.41-20,0-30a5.94,5.94,0,0,1,6.11-5.7l1.23,0a5.94,5.94,0,0,1,5.72,5.91C55.39,120.3,55.72,130.23,55.29,140.14Z" transform="translate(-3 -15.65)"/><path class="cls-1" d="M86.37,157c7.61,1.2,15.81,1.64,23.27-.61,6.28-2.45,6.28-9.93,6.54-15.57,0-14.29.29-28.59-.23-42.88a6.11,6.11,0,0,0-6-5.85h0a6.19,6.19,0,0,0-6.34,6.07c-.2,13.47,0,26.93-.07,40.4a6.15,6.15,0,0,1-12.31,0c0-13.49.15-27-.12-40.48a6.16,6.16,0,0,0-6.28-6h-.47a6.14,6.14,0,0,0-6,6.11c-.08,14.93-.17,29.88,0,44.81C78.13,148.62,80,155.75,86.37,157Z" transform="translate(-3 -15.65)"/><path class="cls-1" d="M133.53,92.09h0a6.22,6.22,0,0,0-6.21,6.16c-.13,17.78-.05,35.58,0,53.36a6.17,6.17,0,0,0,6.17,6.16h.14a6.17,6.17,0,0,0,6.16-6.14c.07-17.79.12-35.58,0-53.37A6.22,6.22,0,0,0,133.53,92.09Z" transform="translate(-3 -15.65)"/><path class="cls-1" d="M217,151.89c-2.35-1-4.74-1.82-7.11-2.68a1.54,1.54,0,0,0-1.94.86c-1.52,3.68-3.16,7.32-4.51,11.07l9.85,4.09c1.74-3.52,3.31-7.13,4.79-10.76A2,2,0,0,0,217,151.89Z" transform="translate(-3 -15.65)"/><path class="cls-1" d="M151.85,150.62a5,5,0,0,0,4.49,7.09c9.31.09,18.63.06,27.94,0a4.77,4.77,0,0,0,4.72-4.77v-2.46a4.25,4.25,0,0,0-4.24-4.25H172.81a5.15,5.15,0,0,1-3.21-2.78,4,4,0,0,1,0-2.35c1.43-5.31,12.9-28,18.87-41a5.6,5.6,0,0,0-5-7.94c-7.65,0-15.31,0-23-.06a7.83,7.83,0,0,0-7.86,7.84,4.68,4.68,0,0,0,4.64,4.68l9.19.05a4.45,4.45,0,0,1,4,6.32C164.3,124.19,158,137.35,151.85,150.62Z" transform="translate(-3 -15.65)"/></svg>
