<svg id="Calque_1" data-name="Calque 1" xmlns="http://www.w3.org/2000/svg" viewBox="0 0 153.15 26.94"><defs><style>.cls-1{fill:#f8ae03;}.cls-2{fill:#1d1d1b;}</style></defs><title>Sans titre - 3</title><path class="cls-1" d="M11.63,21.43a2.21,2.21,0,0,0,.7,1.65,2.31,2.31,0,0,0,1.67.68h4.1v4.91H14A7.94,7.94,0,0,1,10.89,28a7.84,7.84,0,0,1-2.54-1.69,8.2,8.2,0,0,1-1.71-2.52A7.56,7.56,0,0,1,6,20.75V14.41H3V9.71H6V2.06h5.63ZM18.1,9.71v4.69H15L12.35,9.71Z" transform="translate(-2.96 -2.06)"/><path class="cls-2" d="M42.93,7.51V28.66H37.39V18.06a5.64,5.64,0,0,0-.47-2.29,6,6,0,0,0-5.46-3.56,5.59,5.59,0,0,0-2.28.47,6.53,6.53,0,0,0-1.88,1.25A5.6,5.6,0,0,0,26,15.8a5.79,5.79,0,0,0-.47,2.31A5.53,5.53,0,0,0,26,20.36a5.91,5.91,0,0,0,1.29,1.87,6.32,6.32,0,0,0,1.88,1.27,5.59,5.59,0,0,0,2.28.47,5,5,0,0,0,2.24-.47h0v.08l2.11,3.76,0,0A8.1,8.1,0,0,1,30.71,29a10.69,10.69,0,0,1-4.23-.85A10.85,10.85,0,0,1,23,25.83a11.14,11.14,0,0,1-2.35-3.47,10.46,10.46,0,0,1-.87-4.23,10.56,10.56,0,0,1,.87-4.27A11.06,11.06,0,0,1,26.48,8a10.47,10.47,0,0,1,4.23-.87A8.56,8.56,0,0,1,34.56,8a8,8,0,0,1,2.83,2.37V7.51Z" transform="translate(-2.96 -2.06)"/><path class="cls-2" d="M68.65,2.06v26.6H63L63,18a5.31,5.31,0,0,0-.49-2.24A6.31,6.31,0,0,0,61.27,14a5.64,5.64,0,0,0-1.86-1.23,6,6,0,0,0-2.31-.44,5.83,5.83,0,0,0-2.28.44A5.52,5.52,0,0,0,53,14a6.25,6.25,0,0,0-1.25,1.86,5.84,5.84,0,0,0,0,4.57,5.9,5.9,0,0,0,3.09,3.09A5.6,5.6,0,0,0,57.1,24a8.31,8.31,0,0,0,1.18-.08,3.57,3.57,0,0,0,1.1-.34h.08l2.07,3.81,0,0A8,8,0,0,1,56.42,29a10.86,10.86,0,0,1-7.74-3.17,11.14,11.14,0,0,1-2.35-3.47,10.75,10.75,0,0,1,0-8.46,11.16,11.16,0,0,1,2.35-3.47,10.86,10.86,0,0,1,7.74-3.17A7.6,7.6,0,0,1,63,10.48V2.06Z" transform="translate(-2.96 -2.06)"/><path class="cls-2" d="M81.71,7.18A10.47,10.47,0,0,1,85.94,8a11.06,11.06,0,0,1,5.82,5.82,10.58,10.58,0,0,1,.87,4.27,10.89,10.89,0,0,1-.25,2.37l0,.08H81.59l-2.71-4.31h8a6.3,6.3,0,0,0-2-2.92,4.91,4.91,0,0,0-3.24-1.14,5.13,5.13,0,0,0-2.16.46,5.61,5.61,0,0,0-1.76,1.24,5.67,5.67,0,0,0-1.16,1.85,6.33,6.33,0,0,0-.42,2.34,5.77,5.77,0,0,0,.38,2A6.13,6.13,0,0,0,77.7,22a6.31,6.31,0,0,0,1.73,1.41,4.59,4.59,0,0,0,2.28.57,6.59,6.59,0,0,0,2.09-.32,3.91,3.91,0,0,0,1.8-1.42l0,0,.08,0,4.91,2.16-.08.09a10.57,10.57,0,0,1-3.87,3.33,10.81,10.81,0,0,1-5,1.19,11,11,0,0,1-4.29-.85,10.79,10.79,0,0,1-3.49-2.33,11.14,11.14,0,0,1-2.35-3.47,10.46,10.46,0,0,1-.87-4.23,10.56,10.56,0,0,1,.87-4.27A11,11,0,0,1,77.42,8,10.72,10.72,0,0,1,81.71,7.18Z" transform="translate(-2.96 -2.06)"/><path class="cls-2" d="M112,8.36l-.51.85-2.16,3.85,0,0a6.07,6.07,0,0,0-5.08-.44,5.62,5.62,0,0,0-1.73,1,6.22,6.22,0,0,0-1.29,1.54,5.42,5.42,0,0,0-.7,1.9V28.66H94.74V7.51h5.75v2.75A7.59,7.59,0,0,1,107,7.18,10.85,10.85,0,0,1,112,8.36Z" transform="translate(-2.96 -2.06)"/><path class="cls-2" d="M121.47,7.18a10.58,10.58,0,0,1,4.27.87,11.06,11.06,0,0,1,5.82,5.82,10.75,10.75,0,0,1,0,8.46,11.06,11.06,0,0,1-5.82,5.82,11,11,0,0,1-8.54,0,11.06,11.06,0,0,1-5.82-5.82,10.75,10.75,0,0,1,0-8.46A11.06,11.06,0,0,1,117.2,8,10.57,10.57,0,0,1,121.47,7.18Zm0,16.79a4.25,4.25,0,0,0,2-.47A5.19,5.19,0,0,0,125,22.21a6.36,6.36,0,0,0,1.1-1.9,6.68,6.68,0,0,0,.4-2.35,6.43,6.43,0,0,0-.4-2.26,5.82,5.82,0,0,0-1.1-1.86,5.5,5.5,0,0,0-1.61-1.25,4.26,4.26,0,0,0-2-.47,4.38,4.38,0,0,0-2,.47,5.41,5.41,0,0,0-1.63,1.25,5.81,5.81,0,0,0-1.1,1.86,6.42,6.42,0,0,0-.4,2.26,6.66,6.66,0,0,0,.4,2.35,6.34,6.34,0,0,0,1.1,1.9,5.11,5.11,0,0,0,1.63,1.29A4.38,4.38,0,0,0,121.47,24Z" transform="translate(-2.96 -2.06)"/><path class="cls-2" d="M156.11,7.51q-4,3.93-7.23,7.19l-8.71,8.71v5.24h-5.63V2.06h5.63v14l9-8.59ZM145.92,18.72l3.15,3.13,2,1.95L152.24,25l.91.89q.46.44,1.08,1.08t1.71,1.69H149l0,0-4.57-4.57Z" transform="translate(-2.96 -2.06)"/></svg>