<svg xmlns="http://www.w3.org/2000/svg" viewBox="0 0 1320.37 881.21"><defs><style>.cls-1{isolation:isolate;}.cls-2{fill:#d6e0ef;}.cls-2,.cls-47,.cls-53{opacity:0.6;}.cls-15,.cls-17,.cls-2,.cls-21,.cls-26,.cls-29,.cls-30,.cls-35,.cls-37,.cls-40,.cls-45,.cls-47,.cls-7{mix-blend-mode:multiply;}.cls-3,.cls-7{fill:#ebe8dd;}.cls-4{fill:#ffa31b;}.cls-5{fill:#ff841b;}.cls-30,.cls-6{fill:#ffc507;}.cls-8{fill:#e36b7b;}.cls-9{fill:#e35566;}.cls-10{fill:#e3546c;}.cls-11{fill:#7e53b3;}.cls-12{fill:#9c77cf;}.cls-13{fill:#784c9e;}.cls-14,.cls-15{fill:#3f68b4;}.cls-15{opacity:0.5;}.cls-16,.cls-17{fill:#fbf4db;}.cls-18,.cls-21{fill:#62c9ff;}.cls-19{fill:#a28a96;}.cls-20{fill:#e3c336;}.cls-21,.cls-30{opacity:0.4;}.cls-22{fill:#1a3360;}.cls-23{fill:#5f46a4;}.cls-24,.cls-26{fill:#7168dd;}.cls-25{fill:#e5fbff;}.cls-26,.cls-29,.cls-35,.cls-37,.cls-40,.cls-45,.cls-51{opacity:0.3;}.cls-27{fill:#ffad32;}.cls-28,.cls-29{fill:#ff9301;}.cls-31{fill:#f5e6e5;}.cls-32,.cls-41{fill:#ffffed;}.cls-32{stroke:#f7eedc;stroke-miterlimit:10;stroke-width:2px;}.cls-33{fill:none;stroke:#f5e6e5;stroke-linecap:round;stroke-linejoin:round;}.cls-34,.cls-35{fill:#f7c858;}.cls-36,.cls-37{fill:#e773e0;}.cls-38{fill:#fff;}.cls-39,.cls-40{fill:#ffaff1;}.cls-42{fill:#a83851;}.cls-43{fill:#1b374b;}.cls-44,.cls-45{fill:#3b3e58;}.cls-46,.cls-47{fill:#ff6c59;}.cls-48{fill:#4d4c53;}.cls-49{fill:#7b96b9;}.cls-50,.cls-51{fill:#6f7782;}.cls-51{mix-blend-mode:screen;}.cls-52{fill:#c1aaaf;}.cls-53,.cls-54{fill:#fff3ff;}.cls-54{opacity:0.8;}.cls-55{fill:#2250b1;}</style></defs><title>log</title><g class="cls-1"><g id="Calque_1" data-name="Calque 1"><path class="cls-2" d="M1303.57,890.43c0,22.47-429.51,157.72-568.72,137.5-127-18.45-693.21-89.57-693.21-112S167.52,884.3,295.9,884.3,1303.57,868,1303.57,890.43Z" transform="translate(-41.63 -201.07)"/><path class="cls-3" d="M837.46,972.62l454.34-81.4s-56.65-40.51-9.66-124.53L837.46,846.36C771.34,924,837.46,972.62,837.46,972.62Z" transform="translate(-41.63 -201.07)"/><polygon class="cls-4" points="795.83 645.29 99.34 563.89 548.58 492.88 1250.16 563.89 795.83 645.29"/><path class="cls-5" d="M840.6,856.86,1291.79,775V765l-454.34,81.4-20.22,8.7-17.76,51.32,14.89,61.46,14.52-1.34,8.57,6.11,454.34-81.53v-10L838.05,958.84C829.11,943.51,811.25,902.65,840.6,856.86Z" transform="translate(-41.63 -201.07)"/><path class="cls-6" d="M837.46,972.62,141,891.22C93,884.31,99.65,759,141,765l696.49,81.4C804.95,875.65,804.13,945.47,837.46,972.62Z" transform="translate(-41.63 -201.07)"/><path class="cls-7" d="M844.49,882.81c110.45-13.16,365.89-67.13,365.89-67.13S952.07,858.65,844.49,882.81Z" transform="translate(-41.63 -201.07)"/><path class="cls-7" d="M848.66,936.22c47.54,7.76,393-69.82,393-69.82S919.69,921.9,848.66,936.22Z" transform="translate(-41.63 -201.07)"/><path class="cls-7" d="M844.2,908.27c100.08-2.41,325.2-54.4,325.2-54.4S913.14,889.45,844.2,908.27Z" transform="translate(-41.63 -201.07)"/><path class="cls-2" d="M109.15,826.8c-3.69,19.56,4.34,51.76,25.05,62.52,39.94,5.78,703.26,83.3,703.26,83.3l454.34-81.4L1262,853.87l-448.21,71.7Z" transform="translate(-41.63 -201.07)"/><path class="cls-5" d="M859,883.38s7.17,15.47,7.17,72.16l13.59-24.32,13,12s-1-57.84-9.35-64.5Z" transform="translate(-41.63 -201.07)"/><path class="cls-3" d="M811.22,824.14l367.84-60.35s-45.87-58.2-7.82-120.49l-360,59.06C757.69,759.92,811.22,824.14,811.22,824.14Z" transform="translate(-41.63 -201.07)"/><polygon class="cls-8" points="769.59 501.3 205.69 440.95 569.41 388.31 1137.43 440.95 769.59 501.3"/><path class="cls-9" d="M813.76,710.15l365.3-60.72V642L811.22,702.37l-16.37,6.45-14.38,38,12.06,73.73,11.75-1,6.94,4.53,367.84-60.44v-7.41L816.91,813.92C802.42,807.68,790,744.1,813.76,710.15Z" transform="translate(-41.63 -201.07)"/><path class="cls-10" d="M811.22,824.14,247.32,763.8c-38.85-5.13-33.45-126.19,0-121.77l563.89,60.35C784.9,724.09,784.23,804,811.22,824.14Z" transform="translate(-41.63 -201.07)"/><path class="cls-7" d="M841.23,792.75c143.91-21.09,295.46-53.36,295.46-53.36S948,764.69,841.23,792.75Z" transform="translate(-41.63 -201.07)"/><path class="cls-7" d="M816.16,787.08c143.91-21.09,295.46-53.36,295.46-53.36S922.95,759,816.16,787.08Z" transform="translate(-41.63 -201.07)"/><path class="cls-7" d="M877.27,737.06C994,719.94,1117,693.76,1117,693.76S963.92,714.29,877.27,737.06Z" transform="translate(-41.63 -201.07)"/><path class="cls-7" d="M835.51,731.32C979.42,710.22,1131,678,1131,678S942.3,703.26,835.51,731.32Z" transform="translate(-41.63 -201.07)"/><path class="cls-7" d="M816.16,763.74c143.91-21.09,295.46-53.36,295.46-53.36S922.95,735.68,816.16,763.74Z" transform="translate(-41.63 -201.07)"/><path class="cls-6" d="M832.64,719.22l34.77-4.67c21.29,17.36,16.49,91.3,15.84,107.82l-13.89-14-18.55,19.33S854.46,723.61,832.64,719.22Z" transform="translate(-41.63 -201.07)"/><path class="cls-2" d="M220.23,706.46s-.82,24,11.1,45.94c-8.43,4-15.11,7.31-16.21,12.35-.9,4.08,14.45,4.08,14.45,4.08l595.2,62.38,361.44-59.8-24.76-42.72L808.07,795.19Z" transform="translate(-41.63 -201.07)"/><path class="cls-3" d="M749.61,686.1l277.08-55s-35.21-49.5-7.11-103.24L748.39,581.69C708.56,631.5,749.61,686.1,749.61,686.1Z" transform="translate(-41.63 -201.07)"/><polygon class="cls-11" points="706.76 380.61 280.46 333.85 554.51 285.5 983.84 325.62 706.76 380.61"/><path class="cls-12" d="M750.39,588.33,1025.55,533l-.07-6.35-277.08,55-12.29,5.68-10.47,32.75,9.84,63.12,8.86-1,5.28,3.82L1026.7,631l-.07-6.35L753.8,677.29C742.81,672.06,732.79,617.66,750.39,588.33Z" transform="translate(-41.63 -201.07)"/><path class="cls-13" d="M749.61,686.1l-426.3-46.76c-29.38-4.05-26.52-107.91-1.22-104.41l426.3,46.76C728.74,600.54,729,669.08,749.61,686.1Z" transform="translate(-41.63 -201.07)"/><path class="cls-7" d="M772,654.28c108.43-19.36,222.52-48.37,222.52-48.37S852.29,629.28,772,654.28Z" transform="translate(-41.63 -201.07)"/><path class="cls-7" d="M756.64,625.54c88-15.71,180.56-39.25,180.56-39.25S821.83,605.25,756.64,625.54Z" transform="translate(-41.63 -201.07)"/><path class="cls-7" d="M764.9,610.47c108.43-19.36,222.51-48.37,222.51-48.37S845.24,585.47,764.9,610.47Z" transform="translate(-41.63 -201.07)"/><path class="cls-7" d="M770.17,637.75c108.43-19.36,222.51-48.37,222.51-48.37S850.5,612.75,770.17,637.75Z" transform="translate(-41.63 -201.07)"/><path class="cls-12" d="M764.9,632.37s10.49,27.65,9.33,34.42l21.86-6.38s-7.3-31.81-11.2-32.55Z" transform="translate(-41.63 -201.07)"/><path class="cls-2" d="M307.1,572.32c-4.3,0-8.82,28,2.55,50-8,4-8.69,9.93-9.74,15-.85,4.08,21.44,10.6,21.44,10.6l456,49.2,322.38-51.21-73.13-21.21L734.28,643.31Z" transform="translate(-41.63 -201.07)"/><path class="cls-2" d="M681.79,765.11c.54-2.26,1.05-4.44,1.53-6.46,2.35,6,5.71,11.27,11.24,11.81,8.68.86,16.64-33.55,17.68-38.19.54-.11,1.07-.24,1.57-.4,0,0,3.88-27.44,2.12-45.92-1.17-12.3-37.43-19.77-56.14-25.13A42,42,0,0,0,666,653.6c3.38.75,8.51-1.93,10.47-10,1.76-7.19-4.26-7.53-4.26-7.53,10.64-4.18,9.9-40.55-.71-37.44-20.72-21.49-66.6-8.73-72.85,4.76-8.12,17.5-3.5,27.71,1.28,33-1.66.58-4.1,2.26-2.89,7.2,2,8,7.09,10.7,10.47,10a40.49,40.49,0,0,0,4.79,5.81c-18.57,5.7-50.29,16.18-51.44,28.26-1.76,18.49,4.9,43.7,4.9,43.7.6.19,1.18.26,1.77.39l-.41,0s8.49,39.64,17.79,38.72c3-.3,5.35-2,7.26-4.48v0c-5.15,12.37-29.52,49.79-26.15,58.7.4,1,.95,2.27,1.59,3.59-8,2.7-13.3,4.6-14.31,5-3.87-1.26-14.44-4.48-16.83-2.77-2.94,2.1-26.26,43.6-15.8,37.84,5.72-3.16,26.2-21.31,26.2-21.31s12.7-.57,30.57-1.59c16.2,25.75,43.84,63.24,54.31,75.73h0c8.69,17.51-4.93,33.41,4.8,33.9,5.7.29,16.56-25.94,19.06-31.69,2.05-4.72-6.26-8.32-8.82-9.4-1.82-15-7.09-38.52-14.68-59.17h0l-.16-.4c-.49-1.34-1-2.65-1.52-4-1-2.79-2.2-5.93-3.3-8.3h0c27.7-2.16,54-4.9,62.5-8,35.46-5.74,34-21.72-7.88-69.07Zm6.48-29.36.13-.66.69-3.11c-.18,1.42-.37,3-.49,4.45C688.5,736.2,688.38,736,688.26,735.74Z" transform="translate(-41.63 -201.07)"/><path class="cls-14" d="M670.9,765.11c-5.24-7.13-27.72,1.29-35.14,4.37-9.51-3.05-36.3-12.31-39.34-3.5-4.26,12.34-24.56,49.82-21.75,58.74,6.63,21,56.13,101.2,58.09,100.7,2.66-.68,5.46.41,9.56-5.33-1-19.23-9.42-63.5-21.58-88.91,5.77-12.38,54.16,3.5,56.71,3C706.93,828.44,705.7,812.46,670.9,765.11Z" transform="translate(-41.63 -201.07)"/><path class="cls-15" d="M629.62,854.79c-1.09-3.14-2.69-8.88-4.14-12.66-5.78-15.05,37.21-37.79,33-39.48-2.17-.87-18.74,1.38-21.9-9.54C625.71,822,592.39,827,583,830.9c.42,3,6.32,9.6,8.12,14C600.33,844.94,613,847.46,629.62,854.79Z" transform="translate(-41.63 -201.07)"/><rect class="cls-16" x="574.48" y="455.6" width="34.88" height="36.57"/><rect class="cls-17" x="574.48" y="455.6" width="34.88" height="36.57"/><path class="cls-18" d="M699.28,685.94c-1-12.85-33.91-20.44-48.7-25.84-4.32,28.78-30.31,27.05-34.63-1.73-14.78,5.4-44.57,16.44-45.59,29.29-1.46,18.49,4.07,43.7,4.07,43.7,7.89,3,15.29-1.56,15.29-1.56L597,769.25s8.28,4.63,36.52,4.63,36.52-4.63,36.52-4.63l7.29-39.44s12.26,5,20.15,2.05C697.52,731.87,700.74,704.43,699.28,685.94Z" transform="translate(-41.63 -201.07)"/><path class="cls-16" d="M662.94,636.13c4.6-37.45-29.48-37.44-29.48-37.44s-34.08,0-29.48,37.44c0,0-5,.34-3.54,7.53,1.63,8,5.9,10.7,8.71,10,0,0,9,17.12,24.31,17.12s24.31-17.12,24.31-17.12c2.81.75,7.08-1.93,8.71-10C667.95,636.46,662.94,636.13,662.94,636.13Z" transform="translate(-41.63 -201.07)"/><path class="cls-19" d="M615.86,631.95s-5.59,3.9-8,9.25c0,0-17.11-9.25-6.12-37.75,5.2-13.49,43.34-26.24,60.57-4.76,8.82-3.11,9.43,33.26.59,37.44-4,.55-4.27-8.56-7.51-15.21C644.15,629.66,629.7,621.65,615.86,631.95Z" transform="translate(-41.63 -201.07)"/><path class="cls-3" d="M635.1,707.93c-9.39-9.27-21.28-11-39.13-8.17l11.37,51.9s18.2-7.51,27.76.69c10.67-9.35,20.07-5.94,27.65-1.9l11.48-50.14S645.55,694.53,635.1,707.93Z" transform="translate(-41.63 -201.07)"/><path class="cls-20" d="M635.1,711.21c-9.39-9.27-21.28-11-39.13-8.17l11.37,51.89s18.2-7.51,27.76.69c10.67-9.35,20.07-5.94,27.65-1.9l11.48-50.14S645.55,697.81,635.1,711.21Z" transform="translate(-41.63 -201.07)"/><path class="cls-21" d="M670.07,769.25c6.07-30.13,7.38-41.38,7.38-41.38s-9.28,10.52-11.09,11.78-14.61-7-17.47-3.55c-3.51,4.2,5,12.5,11.73,12.5C666.53,748.61,665.78,766.68,670.07,769.25Z" transform="translate(-41.63 -201.07)"/><path class="cls-21" d="M594.42,727.87s5.58,2.94,6.09,5.87,5.72,1.54,13.11,1.54,9.75-.79,11.74.63-4.63,14.67-16.65,12.7C601.92,747.5,598.53,771,597,769.25c-1.87-9.68-2.25-12.14-2.62-17.26A224,224,0,0,1,594.42,727.87Z" transform="translate(-41.63 -201.07)"/><path class="cls-16" d="M575.56,731.74s7.06,39.64,14.79,38.72c9.2-1.1,11.15-21.22,13.69-27.52,4,1.45,10,3,15.63-2.13,5.46-5,3.7-10.22-2-8.83-7.25,1.77-14.56,1.77-16.47-7-.61-2.79-2.67-1.2-2.87,4.36,0,.9-2,4.37-3,7-.26-3.73-.88-8.55-.88-8.55S583.72,732.8,575.56,731.74Z" transform="translate(-41.63 -201.07)"/><path class="cls-17" d="M585.53,753.42c1.6-7.1,4-10.91,9.78-17-.29-3.42-.88-8.55-.88-8.55s-9.9,20.25-8.95,25.86C585.5,753.63,585.5,753.52,585.53,753.42Z" transform="translate(-41.63 -201.07)"/><path class="cls-16" d="M696.3,731.74s-7.06,39.64-14.79,38.72c-9.2-1.1-11.15-21.22-13.69-27.52-4,1.45-10,3-15.63-2.13-5.46-5-3.7-10.22,2-8.83,7.25,1.77,14.56,1.77,16.47-7,.61-2.79,2.67-1.2,2.87,4.36,0,.9,2,4.37,3,7,.26-3.73.88-8.55.88-8.55S688.15,732.8,696.3,731.74Z" transform="translate(-41.63 -201.07)"/><path class="cls-17" d="M686.34,753.42c-1.6-7.1-4-10.91-9.78-17,.29-3.42.88-8.55.88-8.55s9.9,20.25,8.95,25.86C686.37,753.63,686.37,753.52,686.34,753.42Z" transform="translate(-41.63 -201.07)"/><path class="cls-22" d="M629.31,921.16c3.55-.51,10.05-2.86,12.5-7.2,2.12,1.08,9,4.69,7.34,9.41-2.08,5.75-11.1,32-15.85,31.69C625.21,954.57,636.53,938.67,629.31,921.16Z" transform="translate(-41.63 -201.07)"/><path class="cls-22" d="M565.27,833.74,558.74,847s-17,18.15-21.78,21.31c-8.7,5.77,10.69-35.73,13.13-37.84S565.27,833.74,565.27,833.74Z" transform="translate(-41.63 -201.07)"/><path class="cls-14" d="M563.91,833.34s75.64-32.85,102.45-30.93c33,2.69,26.34,25.21,11.09,31.77-17,7.33-118.7,12.84-118.7,12.84Z" transform="translate(-41.63 -201.07)"/><ellipse class="cls-2" cx="136.95" cy="781.79" rx="121.34" ry="19.06"/><path class="cls-23" d="M120.55,543h35.7a2.4,2.4,0,0,1,2.4,2.4V793.3a0,0,0,0,1,0,0h-40.5a0,0,0,0,1,0,0V545.41A2.4,2.4,0,0,1,120.55,543Z" transform="translate(-254.94 -117.62) rotate(-19.33)"/><path class="cls-24" d="M142,570.37h51.93a3.49,3.49,0,0,1,3.49,3.49V934.43a0,0,0,0,1,0,0H138.5a0,0,0,0,1,0,0V573.86a3.49,3.49,0,0,1,3.49-3.49Z" transform="translate(-281.16 -103.1) rotate(-19.33)"/><polygon class="cls-23" points="208.9 786.8 158.76 732.85 214.35 713.36 208.9 786.8"/><polygon class="cls-25" points="187.94 764.25 208.9 786.8 211.18 756.1 187.94 764.25"/><path class="cls-26" d="M152.84,620.3a3.84,3.84,0,0,0-1.84.14l-7.93,2.78L143,623a7.87,7.87,0,0,0-10-4.82l-5.5,1.93a7.87,7.87,0,0,0-4.82,10l.08.22-25.61,9L103,656.13l25.61-9,50.07,142.77a7.87,7.87,0,0,0,10,4.82l5.5-1.93a7.87,7.87,0,0,0,4.82-10L149,640l7.93-2.78a3.84,3.84,0,0,0,1.52-1Z" transform="translate(-41.63 -201.07)"/><rect class="cls-27" x="90.45" y="618.76" width="67.5" height="17.79" rx="1.2" ry="1.2" transform="translate(-242.34 -124.61) rotate(-19.33)"/><rect class="cls-27" x="148.44" y="602.88" width="21.58" height="185.07" rx="2.4" ry="2.4" transform="translate(-262.79 -109.2) rotate(-19.32)"/><path class="cls-2" d="M579.17,503.7s55.54-1,90.12-1.22S857,510.7,835.51,526.69s-117.78,47-156.53,40.22-89.16-39.49-129-24.21-163.86,21.38-143.11-8.57S579.17,503.7,579.17,503.7Z" transform="translate(-41.63 -201.07)"/><path class="cls-28" d="M771,276.76c-5.36-30.55-37.68-26.16-52.62-18.75S641.43,358.7,660.92,450c15.65,73.29,62.52,78.17,79.41,57.43s6.41-46.7,6.41-46.7-44.33,20.51-54.65-19.35c-15.1-58.33,28.1-159.71,47.26-143S773.3,289.71,771,276.76Z" transform="translate(-41.63 -201.07)"/><path class="cls-29" d="M771,276.76c-5.36-30.55-37.68-26.16-52.62-18.75S641.43,358.7,660.92,450c15.65,73.29,62.52,78.17,79.41,57.43s6.41-46.7,6.41-46.7-44.33,20.51-54.65-19.35c-15.1-58.33,28.1-159.71,47.26-143S773.3,289.71,771,276.76Z" transform="translate(-41.63 -201.07)"/><path class="cls-28" d="M704.88,280.31c-5.85-30.55-41.11-26.16-57.42-18.75s-84,100.69-62.73,191.94c17.08,73.29,68.23,78.17,86.66,57.43s7-46.7,7-46.7S630,484.74,618.76,444.88c-16.48-58.33,30.66-159.71,51.57-143S707.36,293.26,704.88,280.31Z" transform="translate(-41.63 -201.07)"/><path class="cls-29" d="M618.76,444.88c-16.48-58.33,30.66-159.71,51.57-143l.28.2c-.08-.28-.16-.56-.24-.84l-.72-2.07c-1.23-3.14-2.4-6.3-3.75-9.35-.42-1-4.7-9.22-3.95-8.26a71.8,71.8,0,0,0-5.65-7.72c1.49,1.9-3.27-2.94-3.64-3.29-.93-.6-1.54-1-1.9-1.27a35.52,35.52,0,0,0-3.59-1.33q-4.81-1.3-.85-.15a37.05,37.05,0,0,0-5.77.14c-.35,0-.69,0-1,0C616.06,291.55,566,373.31,584.74,453.51c17.08,73.29,68.23,78.17,86.66,57.43s7-46.7,7-46.7S630,484.74,618.76,444.88Z" transform="translate(-41.63 -201.07)"/><path class="cls-6" d="M658.2,278.09s-27.27,33-28.94,73.28-11.63,152.48,10,177S822.14,549.37,828,527s2.54-179.34-7.44-197.62-16-44.68-28.77-51.27S666.11,261.82,658.2,278.09Z" transform="translate(-41.63 -201.07)"/><path class="cls-30" d="M669.29,502.48c-.26-12,4.65-23.81,5.37-34.29,1.87-26.88-.92-53.88,1.07-80.76,1.67-22.64,7.23-48,1.65-69.71-3.45-13.39-13.09-23.62-21.34-36.8-6.45,8.72-25.39,37-26.77,70.45-1.66,40.31-11.63,152.48,10,177,6.12,6.94,23.4,11.64,45.18,14.29C674.7,531.76,669.61,517.33,669.29,502.48Z" transform="translate(-41.63 -201.07)"/><path class="cls-30" d="M811,477.72c-23.87,37.76-64.43,63.63-110.09,57.07-28.57-4.11-56.1-22.12-73.53-46.41,1.92,18.17,5.53,32.86,11.85,40C660.88,553,822.14,549.37,828,527c2.89-11,3.55-54.81,2.27-98.53C826.54,445.81,820.6,462.57,811,477.72Z" transform="translate(-41.63 -201.07)"/><path class="cls-4" d="M674.78,267.23c29.22-1.93,82.11,0,102.54,1.93,8,.75,47.63,46.24,41.92,109.06-2.45,26.92-120.64,22.43-120.3,0C700.41,281,644,269.27,674.78,267.23Z" transform="translate(-41.63 -201.07)"/><path class="cls-4" d="M623.06,444.56s50.06,11.59,55.41,7.13c0,0-6.24,70.61,0,75.86s-47.07.34-52.95-12.36S620.53,452.54,623.06,444.56Z" transform="translate(-41.63 -201.07)"/><path class="cls-4" d="M812.87,428.72s-103.1-2.35-113,9.36-10.7,78.22-6.24,88.7,11.51,2.85,11.51,2.85-6.36-78.83,8.64-85.07,104.82-10.82,110-8.91S812.87,428.72,812.87,428.72Z" transform="translate(-41.63 -201.07)"/><path class="cls-28" d="M746.91,370.61s2.15,12.53,1.07,34.32c-.22,4.54,20.33,13.95,20.33,13.95s18.63-8.45,18.83-12.69c.73-15.91-.4-19.84-1.68-34.72C785.2,368.31,756.17,369.65,746.91,370.61Z" transform="translate(-41.63 -201.07)"/><path class="cls-29" d="M765.36,392.23c-.13-.29,6.87-1.78,7.09.45s1.37,29-1.19,33.42c0,0-6.12,2.45-5.9,0S766.69,395.35,765.36,392.23Z" transform="translate(-41.63 -201.07)"/><path class="cls-31" d="M296.91,295.52s-28.33,24.09,3.89,42.65c31.41-45.6,94.8-60.68,121.69-74.28s2.72-22.55,2.72-22.55Z" transform="translate(-41.63 -201.07)"/><path class="cls-32" d="M299.91,294.52c22.35-5.23,63.82,1.56,73.68,66,10.55,68.91,49.24,199.41,107.82,186.08L638.1,442.67s-79.52-36.27-90.5-138c-8.51-78.85-46-109.79-69.75-101.22C461.53,209.34,324.19,275.58,299.91,294.52Z" transform="translate(-41.63 -201.07)"/><path class="cls-31" d="M480.59,495.52c8.67-.09,32.78,33.55.82,51,60-19.8,139.56-82.77,162-102.67s-.72-31.91-6-27.29C601.18,448.59,508.9,480.1,480.59,495.52Z" transform="translate(-41.63 -201.07)"/><path class="cls-33" d="M359.69,289.33s80.68-44.44,122.37-64" transform="translate(-41.63 -201.07)"/><path class="cls-33" d="M372.92,304.7s80.68-44.44,122.37-64" transform="translate(-41.63 -201.07)"/><path class="cls-33" d="M396.83,355.09s80.68-44.44,122.37-64" transform="translate(-41.63 -201.07)"/><path class="cls-33" d="M402.45,383.78s80.68-44.44,122.37-64" transform="translate(-41.63 -201.07)"/><path class="cls-33" d="M411.15,403.57s80.68-44.44,122.37-64" transform="translate(-41.63 -201.07)"/><path class="cls-33" d="M437.71,478.61s83.75-50.16,127.06-72.17" transform="translate(-41.63 -201.07)"/><path class="cls-33" d="M452.67,501.54s83.36-50.81,126.5-73.15" transform="translate(-41.63 -201.07)"/><path class="cls-33" d="M417.79,432.55s54.66-30.79,82.9-44.32" transform="translate(-41.63 -201.07)"/><path class="cls-33" d="M383.1,327.89S453.6,288.63,490,271.37" transform="translate(-41.63 -201.07)"/><path class="cls-33" d="M423.94,455.37s70.5-39.26,106.93-56.52" transform="translate(-41.63 -201.07)"/><path class="cls-2" d="M505.81,539.63a65.11,65.11,0,0,1,28.92,41.21c6,28.5-40.29,77.27-65.72,74.48s-33,23.48-34.15,37.92,6.67,49.57-10.91,80.64-21.35,59-11.82,80,17,71,17,71l-22.23-4.48L375,839.92s16.42,63.28,0,78.66l-21.17-2.47-3.9-126.71,9.18-143.51L382,524.77Z" transform="translate(-41.63 -201.07)"/><path class="cls-34" d="M330.34,476.26c-2.83,2.24-28.18,54,7.48,84.75,19.46,16.75,15.24,28.08,32.66,23.58S406.88,528,406.88,528,346.54,463.42,330.34,476.26Z" transform="translate(-41.63 -201.07)"/><path class="cls-35" d="M344.16,479.67c-15.8,19.67-15.79,33.6-11.74,57.64,4.26,25.32,25.17,36.05,42.59,31.54S406.88,528,406.88,528,357.11,463.55,344.16,479.67Z" transform="translate(-41.63 -201.07)"/><path class="cls-36" d="M334,680.54l12.69,261.13s7.89.45,10.39-1.58,10.85-84.77,6-130.12c0,0,33.76-122.77,33.06-129.21S334,680.54,334,680.54Z" transform="translate(-41.63 -201.07)"/><path class="cls-37" d="M348.14,680.07c.42,32.88,7.5,78.7,13.2,111,2.6,14.78,35.54-103.91,34.84-110.35C395.64,675.75,348.13,679.34,348.14,680.07Z" transform="translate(-41.63 -201.07)"/><path class="cls-36" d="M409,680.29s4.71,10.47,2.48,42c-.91,12.81-14.71,49.18-24.59,95.07,9.26,18.58,19.92,42.07,25.19,103.07l-8,5.15S365.81,824.11,363.83,815s-9.87-119.74-10-130.74C353.72,673.83,409,680.29,409,680.29Z" transform="translate(-41.63 -201.07)"/><path class="cls-16" d="M337.79,489.51c-6.46,19.44,4.39,52.25,10.09,54.71,5.34,2.3,13.47-3.11,15.66-2,.85.43.72,3.74-.41,8.93-1.66,7.57-2.65,17.73-2.65,17.73s29.4-9.65,30.5-15.69,0-37.31,0-37.31,7.68-17.56,4.39-24.69S374,469.22,374,469.22,346.5,463.28,337.79,489.51Z" transform="translate(-41.63 -201.07)"/><path class="cls-17" d="M363.54,542.2c4.07-2.58,14.31-4.52,18.41-17.43,0,15.78-11.63,25.82-18.82,29.71C363.13,554.48,364.84,546.67,363.54,542.2Z" transform="translate(-41.63 -201.07)"/><path class="cls-34" d="M319,478.85c-5.91,13.57,15,29.92,47,26.23,12.91,17.23,16,30.05,25.47,36.06,29.08,175.12,194.91,55.51,108.31-14-35.43-28.46-64.27,2.7-92.89-46.2C385.78,444.84,332.16,448.53,319,478.85Z" transform="translate(-41.63 -201.07)"/><path class="cls-35" d="M426.83,552.62c-10.1-1.6-21.58-.82-34.8-8.3,10.58,59,37.07,83.39,63.62,87.15,24.18.56,26.91-35.34,15.71-50.64C455.5,559.17,435.83,554,426.83,552.62Z" transform="translate(-41.63 -201.07)"/><path class="cls-38" d="M391.46,541.14l1.76,6.56s-2.8,33.67-23.5,43.71-10.35-42.94-10.35-42.94l4.38-5.35L368.47,566Z" transform="translate(-41.63 -201.07)"/><path class="cls-39" d="M346.71,941.67s-28.22,6.29-28.13,9.87c.07,2.73,30.6,2.73,39.34,2.73,3.1,0-.82-14.17-.82-14.17Z" transform="translate(-41.63 -201.07)"/><path class="cls-39" d="M404.17,925.57s1,19.73.27,23.15-11.18,6.9-9.13,8.73,17.44-.81,18.11-3.09,5.78-25.43,5.21-29.44c-.2-1.43-6.5-4.51-6.5-4.51Z" transform="translate(-41.63 -201.07)"/><path class="cls-39" d="M427.49,566.91c-13.59-11.41-34.83-19.21-34.83-19.21-13,27.07-19.58,33.42-29,37.17-6.13,1.39-4.89-36.39-4.89-36.39s-21.46,9.18-24.89,12.61c-1.81,1.81-15.14,55.69-15.8,57.08-1.28-1.95-8.9-7.9-14.84-16l-11.71,2.72s22.83,42.75,29.78,43c3.73.15,13.88-17.57,17.6-27.17,2.27,3.86,6.88,5.4,6.26,9.49-3.63,24-12.89,54.17-12.49,54,.94-.31,77.56,1.36,76.33-4-9-38.75.82-75.56.82-75.56l11.07,27.7c11,0,19.48.48,19.48.48C438.83,617.87,433.49,571.95,427.49,566.91Z" transform="translate(-41.63 -201.07)"/><path class="cls-40" d="M306.73,606.41c-1.17-1.35-2.34-2.76-3.45-4.28l-3.36,1.32s14.48,44.15,21.43,44.44c2.15.09,6.44-5.79,10.4-12.61C330,635.58,306.44,615.51,306.73,606.41Z" transform="translate(-41.63 -201.07)"/><path class="cls-40" d="M345.21,630.21c-1.51,10-4,21-6.36,30.52,2.4-1.41,4.84-2.74,7.39-3.94,8.93-7.28,24.29-26.29,24.23-26.3-7.31-.86-20.56-2.47-28.47-6.23C343.89,626,345.6,627.61,345.21,630.21Z" transform="translate(-41.63 -201.07)"/><path class="cls-40" d="M419.39,561c-2.09,2-10.35,24.74-10.32,31.67,0,4.54-11.19-1.94-15.85-3.68-2.21-.83-13.06-1.4-16.49-3.64l-.29-.15c0,.46-3.92,7-3.86,7.47,2.33,19,23.6,35.19,23.6,53.89,0,25.43-33.06,33.72-54.33,37.66,20.47.1,68.16.27,67.19-3.94-9-38.75.82-75.56.82-75.56l11.07,27.7c5.52,0,10.42.12,13.92.24C409.13,607.88,420.2,561.53,419.39,561Z" transform="translate(-41.63 -201.07)"/><path class="cls-41" d="M270.37,554.48s34.06,27.53,38.43,68l23.77,16.39s7.92-55-14.21-69.67C306.62,563.43,270.37,554.48,270.37,554.48Z" transform="translate(-41.63 -201.07)"/><path class="cls-16" d="M304.73,601.85a10.17,10.17,0,0,1-1.33-5.25c2.24-6.46,5.33-12,4.17-11.48s-9.56.52-11.9-.38c-.64-.25-3.54-6.18-3.54-6.18-1.12,2.41-4.36,12.36,2.11,25.72C297.06,603.64,300.43,604,304.73,601.85Z" transform="translate(-41.63 -201.07)"/><polygon class="cls-42" points="332.44 357.6 298.38 385.2 296.19 389.97 300.29 388.82 333.28 360.84 332.44 357.6"/><path class="cls-16" d="M384.76,582.61c-4.56-3.9-8.27-6.88-9.95-8-5.59-3.7-7.66-7.52-16.07-7.71-.54,0-1.28,2.59-2.34,2.73-3.49.48-6,7.51-6.43,8.93-.61,1.85,4.92,8.74,5.74,9.7,2,2.28,5.45-7.43,11.21-4.4.79.42,4.43,3.49,9.17,9.27C378.73,589.19,382.29,585.51,384.76,582.61Z" transform="translate(-41.63 -201.07)"/><path class="cls-39" d="M383.82,580.84l-11.24,11.84s43.54,53.89,51.23,55.29C439.49,650.8,445.4,634.58,438,628S383.82,580.84,383.82,580.84Z" transform="translate(-41.63 -201.07)"/><path class="cls-2" d="M878.25,512.93l137.84,12.88s-25.38,49.11-18.94,72.87,6.27,35.16,23.15,36,41.6,3.11,36.21,6.49S1000,671.8,981.28,666.8s-56.86-14.79-57.37-18.5S937.2,543.5,937.2,543.5,861.1,556.68,878.25,512.93Z" transform="translate(-41.63 -201.07)"/><path class="cls-43" d="M1051.88,615.37s29.67-10.93,30.85-7.43S1050,630.46,1050,630.46l-8.35-8.94Z" transform="translate(-41.63 -201.07)"/><path class="cls-44" d="M954.55,469.62s69.26,28.36,82,39.26S1050.82,616,1050.82,616l-9.19,5.51s-26.26-71.93-26.27-81.46c-11.36,10-68.62-27.34-78.16-28.25S954.55,469.62,954.55,469.62Z" transform="translate(-41.63 -201.07)"/><path class="cls-45" d="M1037.64,590.22c-4.69-12.32-9.36-25.91-11.13-39-1.89-14-4.05-34,9.88-42.45-13-11-81.84-39.16-81.84-39.16s-26.89,41.27-17.35,42.18S1004,550,1015.36,540c0,9.54,26.27,81.46,26.27,81.46l9.19-5.51s0-1.05-.06-2.88C1046.84,605.42,1040.72,598.32,1037.64,590.22Z" transform="translate(-41.63 -201.07)"/><path class="cls-44" d="M941,478.95s78.73,28.63,79.34,39.23S974.4,628.76,974.4,628.76s-9.33,3.63-13.29-2.42l16.79-85.08s-73.58,4.91-80.39-31.73S941,478.95,941,478.95Z" transform="translate(-41.63 -201.07)"/><path class="cls-45" d="M941,478.95s-50.26-6.06-43.45,30.58,80.39,31.73,80.39,31.73l-16.79,85.08c2,3,5.33,3.64,8.17,3.48.69-15.9,5.57-30.68,11.42-45.5,6.14-15.58,32.86-59.31-23.25-53.57-9.59,1-13.09-24.63-3.6-22.49,36.77,8.29,57.06,12.37,63.4,6.92a8.31,8.31,0,0,1,.78-.55C1005.12,502.28,941,478.95,941,478.95Z" transform="translate(-41.63 -201.07)"/><path class="cls-46" d="M949.77,383.56c14.76,5.3,31.35,67.09,37.71,72.54s47.27,23.5,47.27,23.5l-6.45,7.92s-45.12-11.32-54.5-18.64c-11.2-8.74-22.89-33.31-24.7-32.86S944,381.47,949.77,383.56Z" transform="translate(-41.63 -201.07)"/><path class="cls-47" d="M986.51,468C973,456.2,972.09,437.2,972,420.39c-6.84-17-14.78-34.15-22.25-36.83-5.82-2.09-2.5,52.92-.69,52.46s13.5,24.12,24.7,32.86c6.23,4.86,28.23,11.49,42.3,15.39C1006.41,479.57,994.57,475.11,986.51,468Z" transform="translate(-41.63 -201.07)"/><path class="cls-16" d="M989.06,330.54c2.38,8.22-.3,36.33-2,36.93s-4.71-1.12-6.3.84-8.67,14.55-15.84,11.51a60.8,60.8,0,0,1-11.22-6l.64,25.18-25.06-12.49s4.31-27.18,4.21-33.46c-.21-12.74,6-32.17,19-38.4C967.06,307.67,984.38,314.35,989.06,330.54Z" transform="translate(-41.63 -201.07)"/><path class="cls-48" d="M1006.68,327.39c-.68,7.85-9.58,24.34-23,12.72-5.56-4.83-13.4-15.27-18.82-13.26-3.32,1.23-1.57,10.26-12.28,15.18-4.38,2-2.57,5.53-2.28,7.54s-3.22-.1-3.64-3.23-4-11.29-8.43-3.76c-3.07,5.22.81,9-1.36,17-1.11,4.11-4.69,7.13-4.61,6,.93-13.9-5.13-14.29-6.47-26.94-1.61-15.28,5.56-29.72,18.21-34,0,0,23.46-11.1,35,.12S1007.8,314.41,1006.68,327.39Z" transform="translate(-41.63 -201.07)"/><path class="cls-46" d="M951.41,389.91c2.06-.13,2.76-1.77,2.47-3.53,17.61,14.87,7.76,87.51,4.7,87.51s-24.74,5-40.66,15-13.78,16.83-21,14.3c-5.35-1.87-22.23-3.17,6-92.73,6.58-20.85,16.87-30.91,29.07-42.3C930,381.37,945.15,390.31,951.41,389.91Z" transform="translate(-41.63 -201.07)"/><polygon class="cls-49" points="977.37 305.98 1014.88 299.59 976.62 297.84 915.27 295.11 977.37 305.98"/><polygon class="cls-50" points="996.85 246.18 1047.77 245.26 1028.45 298.95 979.21 311.86 914.37 300.59 915.27 295.11 977.37 305.98 996.85 246.18"/><polygon class="cls-51" points="1022.75 248.8 981.18 306.95 1015.78 298.11 1044.67 247.5 1022.75 248.8"/><path class="cls-43" d="M974.4,628.76l-13.29-2.42a20.83,20.83,0,0,0-2.78,7.81c-.91,5.15,23.65,24.06,30.63,26.09S981.28,645.88,974.4,628.76Z" transform="translate(-41.63 -201.07)"/><path class="cls-47" d="M939.41,478.87s-27-44-22.84-59.72c0,0-22.05,46.85,6.38,66.83C931.19,482,939.41,478.87,939.41,478.87Z" transform="translate(-41.63 -201.07)"/><path class="cls-47" d="M954.71,466.81c-8.27-18.73-8.22-38.93-1.18-50.2,0,0,1.18,25,5.07,54.69C958.6,471.3,955.42,468.43,954.71,466.81Z" transform="translate(-41.63 -201.07)"/><path class="cls-17" d="M953.7,373.8s-8.49-5.76-9.16-12.16-.3-7.09-.3-7.09a32.46,32.46,0,0,0-1,12.59c.34,2.7,10.62,13.72,10.62,13.72Z" transform="translate(-41.63 -201.07)"/><path class="cls-16" d="M991.44,484s5.74-1.32,7.19-1.59c1.28-.24,4.4,2,4.4,2s4.24.34,6.83,3.17,5.9,8,6.51,11.86c.29,1.82-3.12,3.17-4.28,2.39-2.67-1.79-7-7-10.7-7.1-1.24,0-10.78-3.26-10.78-3.26Z" transform="translate(-41.63 -201.07)"/><path class="cls-46" d="M916.56,419.15c-1.64,23.83,11.12,65,30.61,70.07,10.25,2.68,43.44,2.26,43.44,2.26L993,484.3s-26.09-4.62-34.39-14.67c-8.53-10.34-5.61-52-5.61-52S917.85,400.48,916.56,419.15Z" transform="translate(-41.63 -201.07)"/><ellipse class="cls-2" cx="911.85" cy="838.3" rx="121.34" ry="19.06"/><ellipse class="cls-2" cx="1163.4" cy="776.19" rx="156.97" ry="24.66"/><rect class="cls-52" x="1053.28" y="912.41" width="35.62" height="60.7" transform="translate(961.27 -683.58) rotate(45.91)"/><circle class="cls-53" cx="1186.22" cy="831.22" r="132.95" transform="translate(-285.75 858.57) rotate(-44.09)"/><path class="cls-54" d="M1214.93,746.83a129.45,129.45,0,0,1-1.58,181.74,101,101,0,0,0-17.41-197.89A130,130,0,0,1,1214.93,746.83Z" transform="translate(-41.63 -201.07)"/><path class="cls-11" d="M1294.87,726a151.29,151.29,0,1,0-3.38,213.92A151.29,151.29,0,0,0,1294.87,726Zm-191.8,185.82a115.76,115.76,0,1,1,163.7,2.59A115.76,115.76,0,0,1,1103.08,911.78Z" transform="translate(-41.63 -201.07)"/><path class="cls-12" d="M1283.88,736.6a136,136,0,1,0-3,192.28A136,136,0,0,0,1283.88,736.6Zm-187.4,181.56a124.95,124.95,0,1,1,176.68,2.8A124.95,124.95,0,0,1,1096.48,918.16Z" transform="translate(-41.63 -201.07)"/><rect class="cls-13" x="989.42" y="931.52" width="57.62" height="124.9" rx="3.87" ry="3.87" transform="translate(981.96 -630.04) rotate(45.91)"/><path class="cls-2" d="M865.88,1034.35A7.62,7.62,0,0,0,858,1027l-35.07,1.34a11.08,11.08,0,0,0-10.41-6.28l-51.35,2-.21-5.62,33.7-1.35a5.15,5.15,0,0,0,5-5.35l-.21-5.63a5.15,5.15,0,0,0-5.35-5l-42.3,1.69-8,.31h0l-114.37,4.57a8,8,0,1,0,.61,15.93l114.37-4.57.21,5.59-390.3,14.91L304,1054h0l-36,10.31,36.71,7.53h0l51.13,10.49,390.3-14.91h0l16.65-.64h0l51.35-2a11.08,11.08,0,0,0,9.9-7.06l35.07-1.34a7.62,7.62,0,0,0,7.32-7.91Z" transform="translate(-41.63 -201.07)"/><path class="cls-6" d="M710,862.63h24.72a2.32,2.32,0,0,1,2.32,2.32v320.61a0,0,0,0,1,0,0H707.69a0,0,0,0,1,0,0V865a2.32,2.32,0,0,1,2.32-2.32Z" transform="translate(1676.52 62.08) rotate(87.81)"/><path class="cls-55" d="M589.29,793.63h36a3.38,3.38,0,0,1,3.38,3.38v466.35a0,0,0,0,1,0,0H585.91a0,0,0,0,1,0,0V797A3.38,3.38,0,0,1,589.29,793.63Z" transform="translate(1570.2 181.33) rotate(87.81)"/><polygon class="cls-6" points="243.92 839.72 330.13 815.05 331.76 857.74 243.92 839.72"/><polygon class="cls-4" points="279.95 829.41 243.92 839.72 280.63 847.25 279.95 829.41"/><path class="cls-6" d="M639.21,992.53h0a8,8,0,0,1,7.66-8.27l164.72-6.58a5.15,5.15,0,0,1,5.35,5l.22,5.63a5.15,5.15,0,0,1-5,5.35l-164.72,6.58A8,8,0,0,1,639.21,992.53Z" transform="translate(-41.63 -201.07)"/><rect class="cls-6" x="762.46" y="979.34" width="16.67" height="64.26" transform="translate(-79.69 -170.91) rotate(-2.19)"/></g></g></svg>