<svg id="Calque_1" data-name="Calque 1" xmlns="http://www.w3.org/2000/svg" viewBox="0 0 1398.93 1134.19"><defs><style>.cls-1{fill:#fff;}.cls-2{fill:#c4b9ff;}.cls-3{fill:#8c86ca;}.cls-4{fill:#bd79c6;}.cls-5{fill:#935e9b;}.cls-6{fill:#784b81;}.cls-7{fill:#9760a1;}.cls-8{fill:#c59e8d;}.cls-9{fill:#ffcdb6;}.cls-10{fill:#75497d;}.cls-11{fill:#604560;}.cls-12{fill:#754b7f;}.cls-13{fill:#272728;}.cls-14{fill:#e9b4a0;}.cls-15{fill:#fcfcfc;}.cls-16{fill:#e7b29e;}.cls-17{fill:#84528c;}.cls-18{fill:#4283c5;}.cls-19{fill:#81518a;}.cls-20{fill:#754b7c;}.cls-21{fill:#306696;}.cls-22{fill:#82518b;}.cls-23{fill:#e8b39f;}.cls-24{fill:#2e6596;}.cls-25{fill:#eab5a1;}.cls-26{fill:#306798;}.cls-27{fill:#cda693;}.cls-28{fill:#9f98d8;}.cls-29{fill:#9e97d7;}.cls-30{fill:#f4e6e6;}.cls-31{fill:#f0eaea;}.cls-32{fill:#8988e6;}.cls-33{fill:#c5c3f4;}.cls-34{fill:#f1f1fe;}.cls-35{fill:#72487b;}.cls-36{fill:#d58be3;}.cls-37{fill:#d6d4d5;}.cls-38{fill:#dea793;}.cls-39{fill:#6799cd;}.cls-40{fill:#c591cf;}.cls-41{fill:#336697;}.cls-42{fill:#9cb3ba;}.cls-43{fill:#99b2b9;}.cls-44{fill:#9ab2b9;}.cls-45{fill:#c0d4dd;}.cls-46{fill:#8097a4;}.cls-47{fill:#678791;}.cls-48{fill:#6e8d97;}.cls-49{fill:#6a8a94;}.cls-50{fill:#6866a5;}.cls-51{fill:#6765a3;}.cls-52{fill:#74929c;}.cls-53{fill:#d2b490;}.cls-54{fill:#ffe8c8;}.cls-55{fill:#9e896c;}.cls-56{fill:#a099df;}.cls-57{fill:#f5beaa;}.cls-58{fill:#2c5781;}.cls-59{fill:#8180c1;}.cls-60{fill:#b79c7f;}.cls-61{fill:#9f63a9;}.cls-62{fill:#d7d7e3;}</style></defs><title>log</title><path class="cls-1" d="M409.46,393.94c2.27-2,4.55-3.89,6.75-5.91,33.57,22.66,67,45.62,100.9,67.77,10.08-7.21,18.37-16.5,27.63-24.66C558.5,419,570.84,405.35,584,392.53c1.26,2.25,2.53,4.53,3.78,6.8,1.21,11.38,5.6,22,8.45,33,4.51,17,9.75,33.74,15.22,50.42,4,12,3,24.89,1.2,37.2-2.58,16.35-5,33-11.21,48.43-14-5.22-29.08-5.12-43.77-4.6a15.37,15.37,0,0,0-12.15-16.65c-15.63-3.79-31.85-.18-47.18,3.38-13.31,3-27.07,7.08-40.8,4.28-5.48-1.12-11.64-4.09-13-10.06-2.4-9.93-2.76-20.29-5.81-30.09-7.19,12.28-4.93,27.15-10.1,40.07-1.12,3.38-2.58,7.62.1,10.69,4.17,4.1,10.64,3.74,16.06,3.45,20.7-2.41,40.81-8.13,61.2-12.3,13.15-3,26.65-6.73,40.21-4.89,6.94,1.21,10.31,8.19,10.85,14.61-.92,11.15-.16,22.33-.48,33.51H530.92c-.07,6.5-.07,13-.08,19.49q-27.24.1-54.49,0c0-2.33,0-4.65,0-7,0-.76,0-2.28,0-3,0-2.59,0-5.19,0-7.77,0-.8,0-2.4,0-3.2,0-2.38,0-4.74,0-7.11l0-1.9,0-2c0-2.3-.08-4.58-.11-6.86-47.45-.18-94.88,0-142.3-.1,5.47-33.84,16.65-66.39,29.58-98,12.56-29.67,26-59.09,42.27-86.95,1.66,1.15,3.32,2.33,5,3.4,6.44,1.77,10.54,7.65,14.58,12.56,12.44,16.45,15.1,37.73,15.56,57.74-.43,6-1.38,12-1.46,18,1-9.85,2.81-19.75,1.13-29.62-.76-15.35-4.58-30.93-13.18-43.82C422.73,406,415.16,400.82,409.46,393.94Z" transform="translate(-3.07 -79.12)"/><path class="cls-2" d="M159.31,79.12c21.33.18,42.62,8.14,58.31,22.71,14.69,13.25,24.89,31.67,27.6,51.32a86.15,86.15,0,0,1-13.66,61.61c-16,24.26-45,39.7-74.12,38.58-18.37.15-36.48-6.58-51.07-17.6A87.08,87.08,0,0,1,72,171.86c-1.89-25.28,8.39-51,26.78-68.43A87.61,87.61,0,0,1,159.31,79.12ZM144.9,90.63A78.3,78.3,0,0,0,107.55,109c-15.76,14.18-25.43,35-25.46,56.29-.57,23.82,11,47.5,29.91,61.91a77,77,0,0,0,61.81,14.56c34.39-6,62.11-38.29,62.09-73.27,1.38-25.92-12.26-51.73-33.77-66A76.72,76.72,0,0,0,144.9,90.63Z" transform="translate(-3.07 -79.12)"/><path class="cls-2" d="M146.44,93.76c19.08-3.64,39.43,1.28,55.19,12.49,14.76,10.42,25.69,26.48,29.34,44.24a72.92,72.92,0,0,1-9.26,54.57c-14.14,23.25-42,37.43-69.13,34.64-29.68-2.18-56.38-24.4-64.4-53-4.7-17.37-3.51-36.69,4.73-52.83A73.93,73.93,0,0,1,146.44,93.76Zm19.67,63.86c-3.51,3.23-8.9,2.54-12.58,5.58-10.7-1.18-21-5.32-31.77-5.66-3.12.07-3.4,5.35-.28,5.83,9.77,2.46,19.83,3.69,29.57,6.32,3.87,1,7.57,4.6,11.72,2.68,2.91-2.18,3.22-6.4,6.07-8.67,6.48-5.66,13.38-10.9,19.64-16.83,2.77-2-.49-4.51-1.92-6C179.19,145.73,172.85,151.93,166.11,157.63Z" transform="translate(-3.07 -79.12)"/><path class="cls-2" d="M837.67,340.22c23.36-.61,46.77-.11,70.15-.25,6.85-.72,12.44,5.81,12.3,12.35.08,12.62.25,25.27-.08,37.89-.1,7.17-7.22,12.38-14.09,11.84-21.31,0-42.62.08-63.93,0-6.63.31-13.17-4.88-13.4-11.67-.33-12.64-.1-25.3-.1-38A12.33,12.33,0,0,1,837.67,340.22Zm4.42,14.12c.36.74,1.07,2.23,1.43,3,22.11.1,44.26.38,66.39-.15-.18-.77-.53-2.3-.69-3.07-10.9-.89-21.87-.13-32.79-.36C865,354,853.48,353.08,842.09,354.34Zm1.33,14.28c.18.77.54,2.31.74,3.09,16.53.49,33.16.54,49.7,0,.26-.76.8-2.28,1.08-3.05C877.78,368.08,860.57,368.08,843.42,368.62Zm-1.74,15c1.23,3.74,5.45,2.79,8.5,3,14.74-.18,29.5.07,44.24-.13.46-.72,1.36-2.17,1.82-2.87-9.78-1.64-19.77-.38-29.63-.76C858.31,383.15,849.9,382.07,841.68,383.64Z" transform="translate(-3.07 -79.12)"/><path class="cls-2" d="M324.85,454.35c2.94-9,5.63-18.17,9.57-26.81,1.23,13.36,2.68,27.56,11.38,38.45,1,1.31,2,2.61,3,3.87a77.84,77.84,0,0,0,14.78,12.46c-12.94,31.64-24.12,64.19-29.58,98a199.1,199.1,0,0,0-20,.26c.43-25.76,2.31-51.47,4-77.16C319.49,487,321.2,470.49,324.85,454.35Z" transform="translate(-3.07 -79.12)"/><path class="cls-2" d="M246.81,476.29c3-2.36,6.52-6.06,10.67-4.42-5.65,3.89-13.12,7.39-13.84,15.15-1.64,8.91,8.67,13.64,9.59,22.08.41,4.84,1.08,11.74-3.66,14.69.43-5,1.61-10.06.87-15.1-1.3-7-8.83-11-9.47-18.27C241,485.17,242.6,479.69,246.81,476.29Z" transform="translate(-3.07 -79.12)"/><path class="cls-2" d="M315.18,666.55q16.75,0,33.51,0c0,7,0,14.09,0,21.13,0,41.7,0,83.4,0,125.1a153.58,153.58,0,0,1-16.07-34.9C321.41,741.84,317.23,704.08,315.18,666.55Z" transform="translate(-3.07 -79.12)"/><path class="cls-2" d="M624.74,666.66c23.59-.26,47.2-.07,70.79-.13-.46,12.25-1.2,24.49-1.72,36.74C671.43,689.88,648.07,678.27,624.74,666.66Z" transform="translate(-3.07 -79.12)"/><path class="cls-2" d="M1302.71,739.28c4.32-6.22,11.3-9.75,18.54-11.38,8.27,2.71,15.22,9.19,17.14,17.88,2.5,13.77,1.64,27.86,2.66,41.78,1.13,16.43-.26,32.87-.85,49.28-.48,8.64-2.46,17.19-1.74,25.89-3.5,9.21-4.84,19.11-8.8,28.17-6.58,17.45-24.12,28.12-29.37,46.31-2.43,6.81-1.82,16.65,5.68,20,6.16,2.58,13.13-.46,16.63-5.86,12-16.57,20.49-35.79,35.07-50.45,3.37-3.69,8.09-5.5,12.79-6.81-1.59,24.84-6.45,49.68-15.53,72.91-5.14-8.08-6.25-18-12-25.74-.31,11.34,7.62,20.65,9.21,31.57-1.81,5.78-5.45,10.75-8.31,16.06-20.78-.07-41.58-.13-62.37,0,5.27-9.51,14.05-16.52,19-26.17-10.34,4.86-14.51,16.53-22.44,24.13a597.51,597.51,0,0,1-3.22-89.87c.28-4,.15-8.57,3.2-11.62q14.78-16.43,29.78-32.65a49.42,49.42,0,0,0,5.83-7.95c-2.79.11-4.88,1.87-6.62,3.83-10.24,11.11-20,22.69-30.72,33.41,0-17.42,3-34.72,5.94-51.83.48-4.14,2.94-7.57,5.75-10.47,9.51-10.18,18.76-20.6,28.32-30.75a39.24,39.24,0,0,0,6.21-9c-6.09,2.41-9.69,8.11-14,12.64-7.73,8.29-15,17.07-23.25,24.84A237.51,237.51,0,0,1,1308,752.69c4.06-8.06,9.49-15.3,14-23.08a9,9,0,0,0-6.45,4.25c-18.57,27.25-28.89,59.15-35.63,91.18-7,36.28-9.47,73.3-8.55,110.23-6.71-8-9.46-19.14-18-25.56,3.38,12.66,14,21.92,17.89,34.3,1,15,2,30,3.3,44.92q-10.17-.17-20.32,0c-6.06-21.79-6.63-44.54-5.43-67,1.15-28.11,4.56-56.18,11.2-83.53C1269,803.45,1281.19,768.6,1302.71,739.28Z" transform="translate(-3.07 -79.12)"/><path class="cls-2" d="M399.61,837.48c1.18-28.93,2.94-57.82,4.61-86.7,14.17,21.85,37,38.06,62.5,43.49,7.09,1.49,14.37,1.81,21.57,2.51,36.1,6.25,72.14,13,108.24,19.29l3.35.53c5.42,1,10.79,2.15,16.19,3.25-3.18,6.25-5.29,13-7.55,19.62-5.27.16-10.54.33-15.79.53.26.67.79,2,1,2.68-.59-.62-1.81-1.84-2.4-2.46-54.9,2.1-109.9,3.28-164.78.11C417.57,839.62,408.56,838.8,399.61,837.48Z" transform="translate(-3.07 -79.12)"/><path class="cls-2" d="M1347.46,988.82c17.81-27.66,22.59-61,26.92-93a73.23,73.23,0,0,1,6.57,7.85c.54,6.8,3.78,12.92,5.12,19.55,3.17,14.74,4.4,30.39-.16,45-2.45,7.6-7.06,14.25-12.35,20.14a60.66,60.66,0,0,1,8.26.54C1370.36,989,1358.92,988.67,1347.46,988.82Z" transform="translate(-3.07 -79.12)"/><path class="cls-3" d="M144.9,90.63a76.72,76.72,0,0,1,57.23,11.89c21.51,14.3,35.15,40.11,33.77,66,0,35-27.7,67.29-62.09,73.27A77,77,0,0,1,112,227.25c-18.93-14.41-30.49-38.09-29.91-61.91,0-21.26,9.7-42.11,25.46-56.29A78.3,78.3,0,0,1,144.9,90.63Zm1.54,3.14A73.93,73.93,0,0,0,92.9,133.9c-8.24,16.14-9.42,35.46-4.73,52.83,8,28.58,34.72,50.8,64.4,53,27.15,2.79,55-11.39,69.13-34.64A72.92,72.92,0,0,0,231,150.5c-3.64-17.76-14.58-33.82-29.34-44.24C185.87,95,165.52,90.12,146.44,93.76Z" transform="translate(-3.07 -79.12)"/><path class="cls-3" d="M166.11,157.63c6.75-5.7,13.08-11.9,20.46-16.79,1.43,1.53,4.7,4,1.92,6-6.25,5.93-13.15,11.16-19.64,16.83-2.86,2.27-3.17,6.48-6.07,8.67-4.15,1.92-7.85-1.69-11.72-2.68-9.74-2.63-19.8-3.86-29.57-6.32-3.12-.48-2.84-5.76.28-5.83,10.79.34,21.06,4.48,31.77,5.66C157.21,160.17,162.59,160.86,166.11,157.63Z" transform="translate(-3.07 -79.12)"/><path class="cls-4" d="M484.22,94.57c11.1.56,22.28,4.38,29.62,13.08-15.37,3.6-30.39,9.87-42.36,20.36-18.17,15.37-28.63,37.76-35,60.27-6.3,21.79-7.11,44.8-5.09,67.28,1.49,19.73,4.66,39.32,5.2,59.12.26,15-1.53,30.49-8.52,44-4.24,8.49-10.39,15.86-17.29,22.31-11.67,10.77-23.46,21.41-34.84,32.47-8.57,8.52-17,17.52-22.59,28.3-4,7.57-5.75,16-7.62,24.26-8.7-10.88-10.15-25.09-11.38-38.45l-.08-.69.64.08,2.51.28c11.25-15.81,26-28.53,40.12-41.68,9.64-9,20.13-17.39,27.3-28.6,8.88-13.45,12.79-29.57,14-45.48,2-31.31-4.27-62.4-3.58-93.71.34-28.57,6.4-58.08,23.08-81.79,12-17.39,29.49-30.42,48.76-38.76l-2.08-1.86Z" transform="translate(-3.07 -79.12)"/><path class="cls-4" d="M450,106.59c9.13-5.86,19.41-10.49,30.39-11-7.35,6-16.25,9.8-23.48,16-19.78,15.66-33.16,38.5-39.24,62.83-6.45,23.15-5.78,47.45-4.68,71.22,1.46,26.74,6.07,53.83.82,80.44a77,77,0,0,1-21.44,41.36c-19,18.62-40.17,35.23-56.62,56.31a46.48,46.48,0,0,1,3.83-18.9c12.89-28.24,43.82-44.13,53.8-74.07,6.65-28.48,2.73-58,4-86.88.21-27.56,2-55.61,11.25-81.81C417.06,140.37,430.49,119.82,450,106.59Z" transform="translate(-3.07 -79.12)"/><path class="cls-4" d="M471.91,131.84c12.18-11.3,27.93-17.7,43.85-21.65,1.66,2.73,3.32,5.45,5.07,8.13q-13.47,16.2-26.51,32.79C483.14,167.74,474,185.75,465.87,204c-.53,1.21-1.58,3.61-2.1,4.81-.21.49-.61,1.48-.8,2-6.27,16.32-11.77,33.51-10.36,51.24,1,8.54,0,18.11,5.24,25.5.66,1,1.33,2.05,2,3.07-.08,12.33,1.61,24.64.33,37a106.38,106.38,0,0,1-14.51,44.88A86.06,86.06,0,0,0,416.21,388c-6.49,5.31-15,14-32.86,50.15C378,448.95,371,463.92,363.59,482.33a77.84,77.84,0,0,1-14.78-12.46c1.33-12.85,5-25.73,13.07-36,16.32-21.28,38.15-37.33,56.77-56.44,12.62-13.28,19.5-31.29,20.72-49.42,2.25-28.16-5.06-55.85-5.6-83.89-.38-15.58-.31-31.36,3.61-46.54C443,173.24,453,148.84,471.91,131.84Z" transform="translate(-3.07 -79.12)"/><path class="cls-4" d="M793.33,222c35.92-.53,71.87-.1,107.81-.21,5-.54,9.88,4.07,9.34,9.18q.17,24.7,0,49.4c.64,5.91-5.6,9.78-10.93,9.21q-51,0-102,0c-5.35.49-11.41-3.3-10.82-9.21-.16-16.47-.13-32.93,0-49.38A8.68,8.68,0,0,1,793.33,222Zm8.77,20.57c32.06.33,64.16.43,96.21,0-.07-.77-.21-2.33-.28-3.1-29-1.07-58.07-.1-87.09-.49C807.71,239.32,802.18,237.69,802.1,242.52ZM804,253.67c0,.89,0,2.66,0,3.55,24.2.2,48.46.67,72.63-.25-.11-2.25-1.2-3.37-3.23-3.35C850.26,253.59,827.15,253.49,804,253.67Zm-2,14.74c.25.77.74,2.35,1,3.14q37.48.59,75,0c.31-3-2.4-3.71-4.84-3.37C849.51,268.36,825.77,267.9,802.06,268.41Z" transform="translate(-3.07 -79.12)"/><path class="cls-4" d="M1082.59,409.93c20.08.41,40.17,0,60.25.21,0,69.74.15,139.48-.08,209.24-20.06-.31-40.11-.07-60.15-.13Q1082.48,514.59,1082.59,409.93Zm24.33,15.45c-3.12.94-4.86,4.42-4.42,7.55.16,28.45-.28,56.94.21,85.39,1.87,6.55,10,4.25,15,4.4,4.09.31,5.65-4.42,5.4-7.73q0-41.1,0-82.22c.08-3-1-6.52-4.2-7.31A35,35,0,0,0,1106.92,425.38Zm4.81,151c-9.83.44-16,13.81-9.11,21.21,5.78,7.58,18.86,5.65,22.38-3.14C1129.37,586,1120.8,575.3,1111.73,576.33Z" transform="translate(-3.07 -79.12)"/><path class="cls-4" d="M1204,1001c2.2-6.6,8.34-12,15.51-12.08,8.82-.26,17.66,0,26.5,0h8.23q10.15-.15,20.32,0l6.88,0c20.78-.16,41.58-.1,62.37,0l3.64,0c11.46-.15,22.9.21,34.36.11,6.67.61,12.35,5.65,14.33,12,2.08,5.38-.15,11-.76,16.5-3.05,24.77-7.49,49.35-10.65,74.11-2.82,15-4.15,30.19-6.83,45.15-6.27,10.18-16,19.39-28.71,19.57-30.08.39-60.19,0-90.28.2-8.06,0-16.66.57-23.94-3.51-6.88-3.46-11.25-10-15.45-16.12-.08.94-.26,2.81-.36,3.74-4.33-36.25-8.85-72.5-12.66-108.81,56.87.07,113.74,0,170.59,0,5.42-.15,11.13.85,16.27-1.41-7.47-1.66-15.15-.69-22.72-.87-55-.16-109.93.31-164.9-.25C1205.4,1019.81,1202.46,1010.44,1204,1001Z" transform="translate(-3.07 -79.12)"/><path class="cls-4" d="M504.81,1157.93c16.58-19.34,36-36.13,56.48-51.21-3.48,6-9.46,9.87-14,15-10.65,11.34-21.62,22.72-29.39,36.32-1.89,3.84-4.81,8.83-1.72,12.84,3.15,4.38,9.31,3.28,13.91,2.58,15-3.55,28.71-11,41.63-19.18,12.38-7.73,18.39-21.75,24.12-34.53.8,2.38,1.59,4.79,2.51,7.17a90.77,90.77,0,0,1-20.39,36.2c-11.31,12.25-25.12,22-39.93,29.63-9.54,4.66-19.95,9.28-30.83,7.75a14.18,14.18,0,0,1-12.64-14C493.48,1175.89,498.72,1166.16,504.81,1157.93Z" transform="translate(-3.07 -79.12)"/><path class="cls-5" d="M480.43,95.64l4.66-.3,2.08,1.86c-19.27,8.34-36.77,21.38-48.76,38.76-16.68,23.71-22.74,53.22-23.08,81.79-.69,31.31,5.58,62.4,3.58,93.71-1.21,15.91-5.12,32-14,45.48-7.17,11.21-17.66,19.62-27.3,28.6-14.1,13.15-28.88,25.87-40.12,41.68l-2.51-.28c.2-.79.61-2.35.82-3.14,16.45-21.08,37.61-37.69,56.62-56.31a77,77,0,0,0,21.44-41.36c5.25-26.61.64-53.7-.82-80.44-1.1-23.77-1.77-48.07,4.68-71.22,6.07-24.33,19.45-47.17,39.24-62.83C464.18,105.44,473.08,101.66,480.43,95.64Z" transform="translate(-3.07 -79.12)"/><path class="cls-5" d="M471.48,128c12-10.49,27-16.76,42.36-20.36.48.64,1.44,1.89,1.92,2.53-15.92,4-31.67,10.36-43.85,21.65-18.86,17-28.94,41.4-34.53,65.7-3.92,15.19-4,31-3.61,46.54.54,28,7.85,55.74,5.6,83.89-1.21,18.12-8.09,36.13-20.72,49.42C400,396.5,378.2,412.56,361.88,433.83c-8.09,10.31-11.74,23.18-13.07,36-1-1.26-2.05-2.56-3-3.87,1.87-8.26,3.63-16.7,7.62-24.26,5.63-10.79,14-19.78,22.59-28.3,11.38-11.07,23.16-21.7,34.84-32.47,6.9-6.45,13.05-13.82,17.29-22.31,7-13.48,8.78-29,8.52-44-.54-19.8-3.71-39.39-5.2-59.12-2-22.48-1.21-45.49,5.09-67.28C442.85,165.77,453.31,143.38,471.48,128Z" transform="translate(-3.07 -79.12)"/><path class="cls-5" d="M460.19,327.58c1.28-12.31-.41-24.63-.33-37a77.88,77.88,0,0,0,15.45,14.84c.53,18.06,1.23,37.22-7.35,53.72-3.15,6-7.7,13.33-15.51,12.59-2.27.2-4.51.43-6.76.69A106.38,106.38,0,0,0,460.19,327.58Z" transform="translate(-3.07 -79.12)"/><path class="cls-5" d="M1111.69,579.57c6.91-.92,12.85,6.58,10.18,13.13-2.23,7.75-14.33,8.39-17.55,1.08C1100.68,588.11,1105.44,580.44,1111.69,579.57Z" transform="translate(-3.07 -79.12)"/><path class="cls-5" d="M598.36,1126.89c12,11.13,25.1,21.67,40.29,28.11,9.57,4.43,20.39,2.63,30.4,1a29.55,29.55,0,0,0,12.67-5.4c-.07-1.4-.21-4.2-.28-5.61,7.49,3.94,14.92,8,22.08,12.53,5.34,3.79,11,7.72,14.37,13.5,2.05,3.58-.39,7.91-4.19,8.91-14.61,5.32-30.62,5.19-45.89,3.45-12.89-1.63-26.19-3.66-37.6-10.24-4.81-2.74-8.72-8-14.73-7.83-3.35.07-4.88,4.38-8.21,4.43-9.72,0-19.41-.72-29.12-.9-.07-1.9-.13-3.79-.2-5.68A90.77,90.77,0,0,0,598.36,1126.89Z" transform="translate(-3.07 -79.12)"/><path class="cls-6" d="M494.32,151.09q13.08-16.55,26.51-32.79l1.48,2.1c-1.84,4.42-3.87,8.77-5.6,13.23,23.89,9.16,41,31.42,46.2,56.18,5.3,25.92,3.71,52.6,4.68,78.89,1.13,32.75-.2,66.54,10.7,97.93,3.64,11.72,15.19,18.8,18.45,30.67,1.94,5.55,1.67,11.51.94,17.25l-2.4-4c-.34-5.25-.49-10.7-2.81-15.55C589,387,581.66,381.44,578,373.52c-7.47-15.25-9.41-32.33-11.21-49-2.89-27.42-2.13-55-3.18-82.53,0-4-.1-7.91-.16-11.85-.15-17.34-.8-35.15-7.19-51.48-7.13-18.6-21.49-35.3-40.81-41.58a77.84,77.84,0,0,0-5.63,14.14C504.62,151.13,499.46,151.24,494.32,151.09Z" transform="translate(-3.07 -79.12)"/><path class="cls-7" d="M522.31,120.41c21.13,8.45,36.51,27.12,46.18,47.22,3.18,7.5,6.44,15.09,7.73,23.18,2.54,19.29,2.89,38.78,2.73,58.2,1.59,32.83-1.77,66.19,5.4,98.55,7.57,20.92,24.08,37.84,29,59.89,2.51,9.31,1.18,19-.74,28.3-.43,0-1.25-.07-1.66-.08-4.37-7.08-8.82-14.09-13.23-21.11.74-5.75,1-11.71-.94-17.25-3.27-11.87-14.81-18.95-18.45-30.67-10.9-31.39-9.57-65.18-10.7-97.93-1-26.28.62-53-4.68-78.89-5.17-24.76-22.31-47-46.2-56.18C518.44,129.18,520.47,124.83,522.31,120.41Z" transform="translate(-3.07 -79.12)"/><path class="cls-7" d="M515.38,137.07c19.32,6.29,33.69,23,40.81,41.58,6.39,16.34,7,34.15,7.19,51.48l-7.6-3.07c-.53-20.67-6.17-42.06-19.31-58.4a53.45,53.45,0,0,0-22.9-16.45l-3.83-1A77.84,77.84,0,0,1,515.38,137.07Z" transform="translate(-3.07 -79.12)"/><path class="cls-7" d="M563.55,242c1.05,27.52.3,55.11,3.18,82.53,1.81,16.66,3.74,33.74,11.21,49,3.71,7.93,11.1,13.45,14.53,21.54,2.31,4.84,2.46,10.29,2.81,15.55-2.45-3.81-5.07-7.5-7.55-11.28-1.25-2.27-2.51-4.55-3.78-6.8-2.35-4.81-7.24-7.39-12-9.39a134.61,134.61,0,0,0-20.55-6.5l-.15-.66c3-2.54,3.23-6.67,3.92-10.23,4.84-35.86,7.62-72.76-.13-108.42A55.79,55.79,0,0,0,563.55,242Z" transform="translate(-3.07 -79.12)"/><path class="cls-7" d="M1205.76,1029.22c55,.56,109.93.08,164.9.25,7.57.18,15.25-.79,22.72.87-5.14,2.27-10.85,1.26-16.27,1.41-56.85-.08-113.72,0-170.59,0C1206.34,1031.08,1206,1029.85,1205.76,1029.22Z" transform="translate(-3.07 -79.12)"/><path class="cls-8" d="M465.87,204c8.18-18.29,17.27-36.3,28.45-52.95,5.14.15,10.29,0,15.43.11l3.83,1c-2.22.23-4.71,0-6.44,1.66-15.42,13.1-27,30.44-34.46,49.15,4.25.43,8.54.76,12.76,1.53a89,89,0,0,0-13.71-.69Z" transform="translate(-3.07 -79.12)"/><path class="cls-8" d="M463,210.82c2.13-.1,4.28-.16,6.44-.2-1.07,3.66-2.08,7.32-3.33,10.92l-3.63.43,2,2.66a138.52,138.52,0,0,1-2.33,14c-3.35,16.09-4.07,32.57-4.24,49-5.19-7.39-4.24-17-5.24-25.5C451.19,244.33,456.69,227.14,463,210.82Z" transform="translate(-3.07 -79.12)"/><path class="cls-9" d="M507.14,153.88c1.72-1.69,4.22-1.43,6.44-1.66a53.45,53.45,0,0,1,22.9,16.45c13.13,16.34,18.78,37.73,19.31,58.4l7.6,3.07c.07,3.94.16,7.9.16,11.85a55.79,55.79,0,0,1-8.45,15.33c-2.61,3.5-3.76,7.73-5,11.85-4.55,15.15-13.86,29-27,38-7.54,3.69-15.79,6.55-24.3,6.14-7.11-.33-13.66-3.37-20.41-5.32,10.92,12.59,31.06,11.74,44.18,3.18-2.56,16.58-1.86,34.85,7.65,49.27,5.09,7.17,12,14,21.06,15.51l.15.66c-6,6.14-8.82,14.58-13.1,21.9-7.62,13.72-14.25,28.06-22.66,41.34-21.16-22.62-42.75-44.88-63.26-68.1,7.81.74,12.36-6.6,15.51-12.59,8.59-16.5,7.88-35.66,7.35-53.72a77.88,77.88,0,0,1-15.45-14.84c-.69-1-1.36-2.05-2-3.07.16-16.38.89-32.87,4.24-49a138.52,138.52,0,0,0,2.33-14c2,0,4.09,0,6.16,0,.11,3.18.44,6.42,2.15,9.23-2.27,2.71-7.55,4.81-5.6,9.1,5.63,5.47,14.58,5.42,21.87,4.27,5.91-.56,9.21-6,13.77-9.1a105.45,105.45,0,0,0,9,12.53c-3.38,3.48-8.44,6.16-9.33,11.33,5.48-3,10-7.42,14.61-11.54a51.17,51.17,0,0,1-10.69-12c5.83.72,8.31,7.29,13.92,8.41,7.17,1.58,15.3,1.54,21.82-2.23,2-.94,2.53-3.12,2.46-5.12-2.1-2.43-4.88-4.12-7.47-5.94.11-2.74.25-5.48.38-8.23,2.33-.39,4.7-.79,7-1.25-5.89-2.18-12.13-3.14-18.31-4.2-.11,1.33-.36,4-.48,5.35l3.5.16c.54,2.69,1.12,5.37,1.71,8.06a30.2,30.2,0,0,0-17.78,4.24c-2.74-.62-5.5-1.26-8.26-1.76-.64-5.06-.46-10.41-2.94-15-2.22,5.06-1.25,10.54-.15,15.73-1.36.36-2.73.74-4.07,1.12-6.34-3.87-13.79-5-21.1-4.27a49.78,49.78,0,0,0,4.07-13.13c-4.91.28-9.82.62-14.69,1.12,1.25-3.6,2.27-7.26,3.33-10.92,6.07-.44,12.76,2.46,18.35-1,1.2-2.64.43-4.33-2.31-5.11-4.22-.77-8.5-1.1-12.76-1.53C480.17,184.32,491.73,167,507.14,153.88Zm8.68,54.32c2.07,4.07,7.32,3.27,11.07,2.76,8-1.17,16,.9,24,1.46-6.55-8-17.68-8.93-27.27-9C520.42,203.53,514.79,203.43,515.83,208.21ZM487,275.37c6.73,5.4,16.19,6.24,24.33,4.14,3.18-1.08,7.35-2.22,7.7-6.24-7,2.41-14.37,5.8-21.83,3.43C493.85,276.19,490.41,273.55,487,275.37Zm9.9,9.92c2.79,4.91,11,4.68,13.89,0A55.38,55.38,0,0,0,496.93,285.29Z" transform="translate(-3.07 -79.12)"/><path class="cls-9" d="M468,240.72c7.63-6.48,21-6.88,28.43,0-4.48,5.52-12.15,4.86-18.5,4.5A15.16,15.16,0,0,1,468,240.72Z" transform="translate(-3.07 -79.12)"/><path class="cls-9" d="M515.47,239.34c8.23-4.83,20.29-5.11,27.7,1.43-5.25,5.84-13.82,4.86-20.87,4.27C519.31,244.44,514.37,243.46,515.47,239.34Z" transform="translate(-3.07 -79.12)"/><path class="cls-9" d="M557.63,563.76c14.69-.53,29.8-.62,43.77,4.6a80.53,80.53,0,0,1,17,8.27c4.7,3.17,9.34,6.44,13.86,9.9,5,4.17,9.62,8.87,14.48,13.25-30.08,0-60.14,0-90.2,0,.31-11.18-.44-22.36.48-33.51C557.2,565.63,557.5,564.38,557.63,563.76Z" transform="translate(-3.07 -79.12)"/><path class="cls-9" d="M659.32,788.77a155.7,155.7,0,0,1,57-22.34c-1.67,10.67-5.63,20.75-8.75,31-17.34,54.52-34.8,109-53.62,163.06-18.34,53.42-36.94,106.79-58.1,159.18-5.73,12.77-11.74,26.79-24.12,34.53-12.92,8.19-26.65,15.63-41.63,19.18-4.6.71-10.75,1.81-13.91-2.58-3.09-4-.16-9,1.72-12.84,7.77-13.59,18.73-25,29.39-36.32,4.53-5.09,10.51-9,14-15,5.27-24.69,8.73-49.76,13.27-74.6,5.91-37.53,12.08-75,17.06-112.67,2.84-19.64,5.14-39.42,10.38-58.61,1.84-7.22,4.06-14.35,6.53-21.38,2.27-6.63,4.37-13.36,7.55-19.62C628,806.36,644.33,798.23,659.32,788.77Z" transform="translate(-3.07 -79.12)"/><path class="cls-10" d="M515.83,208.21c-1-4.78,4.6-4.68,7.75-4.78,9.59.07,20.72,1,27.27,9-8-.56-15.92-2.63-24-1.46C523.15,211.48,517.9,212.28,515.83,208.21Z" transform="translate(-3.07 -79.12)"/><path class="cls-11" d="M463.77,208.85c.53-1.2,1.58-3.6,2.1-4.81l5.86-.16c-.85,2.05-1.72,4.12-2.56,6.19Z" transform="translate(-3.07 -79.12)"/><path class="cls-12" d="M471.73,203.88a89,89,0,0,1,13.71.69c2.74.77,3.51,2.46,2.31,5.11-5.6,3.41-12.28.51-18.35,1-2.15,0-4.3.1-6.44.2.2-.49.59-1.48.8-2l5.4,1.21C470,208,470.88,205.93,471.73,203.88Z" transform="translate(-3.07 -79.12)"/><path class="cls-13" d="M462.44,222l3.63-.43c4.88-.49,9.78-.84,14.69-1.12a49.78,49.78,0,0,1-4.07,13.13c-1.33.08-2.66.18-4,.31-1.71-2.81-2-6-2.15-9.23-2.07,0-4.12,0-6.16,0Z" transform="translate(-3.07 -79.12)"/><path class="cls-13" d="M526.25,219.93c6.17,1.07,12.41,2,18.31,4.2-2.35.46-4.71.85-7,1.25-.13,2.74-.26,5.48-.38,8.23l-6.16-.1c-.59-2.69-1.17-5.37-1.71-8.06l-3.5-.16C525.89,223.94,526.14,221.26,526.25,219.93Z" transform="translate(-3.07 -79.12)"/><path class="cls-14" d="M501.86,236.71c-1.1-5.19-2.07-10.67.15-15.73,2.48,4.6,2.3,9.95,2.94,15Z" transform="translate(-3.07 -79.12)"/><path class="cls-15" d="M476.69,233.56c7.31-.69,14.76.39,21.1,4.27,1.35-.38,2.71-.76,4.07-1.12l3.09-.72c2.76.49,5.52,1.13,8.26,1.76A30.2,30.2,0,0,1,531,233.51l6.16.1c2.59,1.82,5.37,3.51,7.47,5.94.07,2-.51,4.19-2.46,5.12-6.52,3.78-14.64,3.81-21.82,2.23-5.61-1.12-8.09-7.68-13.92-8.41l-3.64-.36c-4.56,3.07-7.86,8.54-13.77,9.1-7.29,1.15-16.24,1.2-21.87-4.27-2-4.28,3.33-6.39,5.6-9.1C474,233.74,475.36,233.64,476.69,233.56ZM468,240.72a15.16,15.16,0,0,0,9.93,4.53c6.35.36,14,1,18.5-4.5C489,233.84,475.64,234.23,468,240.72Zm47.46-1.38c-1.1,4.12,3.84,5.11,6.83,5.7,7,.59,15.61,1.58,20.87-4.27C535.76,234.23,523.69,234.51,515.47,239.34Z" transform="translate(-3.07 -79.12)"/><path class="cls-15" d="M1046.34,425.56c5.55-1,16.07-2.5,16.7,5.55,0,29,.26,58.08-.11,87.11-1.54,6.48-9.42,4.38-14.28,4.55-4.24.51-6.5-4.15-6-7.78q0-41.05,0-82.1A7,7,0,0,1,1046.34,425.56Z" transform="translate(-3.07 -79.12)"/><path class="cls-15" d="M1106.92,425.38a35,35,0,0,1,12,.08c3.22.79,4.28,4.33,4.2,7.31q0,41.1,0,82.22c.25,3.32-1.31,8-5.4,7.73-5-.15-13.13,2.15-15-4.4-.49-28.45,0-56.94-.21-85.39C1102.06,429.79,1103.8,426.31,1106.92,425.38Z" transform="translate(-3.07 -79.12)"/><path class="cls-16" d="M502.76,238.14l3.64.36a51.17,51.17,0,0,0,10.69,12C512.45,254.57,508,259,502.48,262c.89-5.17,5.94-7.85,9.33-11.33A105.45,105.45,0,0,1,502.76,238.14Z" transform="translate(-3.07 -79.12)"/><path class="cls-17" d="M802.1,242.52c.08-4.83,5.61-3.2,8.83-3.64,29,.39,58.1-.57,87.09.49.07.77.21,2.33.28,3.1C866.25,242.95,834.16,242.85,802.1,242.52Z" transform="translate(-3.07 -79.12)"/><path class="cls-18" d="M973.84,253.09c4.56-1.69,9.51-1.33,14.28-1.35,16.43.13,32.87-.13,49.3.1,9-.13,17.3,7.68,17.27,16.75.26,9.72.18,19.45,0,29.19,0,8.88-8.19,17.48-17.34,16.48q-28.74,0-57.48,0c-8.27.74-15.58-6.29-16.73-14.2-.85-6.58-.23-13.22-.41-19.83.11-6.48-.76-13.38,2.18-19.41A19.51,19.51,0,0,1,973.84,253.09Zm2.74,14.07c-.07.82-.18,2.45-.25,3.25,18.65.57,37.35,0,56,.28,3.94-.11,8.26.59,11.71-1.87-3.2-3-7.73-1.94-11.66-2.15C1013.8,267.1,995.13,266.08,976.58,267.16Zm0,17.6c16.79,1,33.72.82,50.52.15.15-.82.46-2.48.61-3.32-14.27-.56-28.55,0-42.83-.3C981.83,281.56,976.78,280.33,976.55,284.76Zm-.15,11.66c-3,3.55,3.25,3.07,5.07,3.22,15.32-.21,30.67.21,46-.18.3-.82.9-2.5,1.21-3.32C1011.25,296.11,993.77,295.47,976.4,296.42Z" transform="translate(-3.07 -79.12)"/><path class="cls-18" d="M1023,409.78c19.86-.18,39.78-.46,59.63.15q-.07,104.66,0,209.32-29.9,0-59.81,0c-.13-46.12.26-92.25-.2-138.36,5.35-12.1,12.08-23.53,18-35.36a175.63,175.63,0,0,0-17.63-.33C1022.88,433.41,1022.79,421.58,1023,409.78Zm23.38,15.78a7,7,0,0,0-3.73,7.32q0,41.05,0,82.1c-.48,3.63,1.79,8.29,6,7.78,4.86-.16,12.74,1.94,14.28-4.55.38-29,.13-58.08.11-87.11C1062.41,423.06,1051.89,424.59,1046.34,425.56Zm4.81,150.92c-9.44.51-14.71,13.22-8.72,20.41,5.3,8.62,19.95,6.39,22.79-3.22C1068.75,584.92,1060.41,574.76,1051.15,576.48Z" transform="translate(-3.07 -79.12)"/><path class="cls-18" d="M422.38,666.56c67.44.07,134.9-.11,202.36.1,23.33,11.61,46.69,23.21,69.07,36.61,20.75,12.35,41,25.66,59.22,41.6a119.09,119.09,0,0,1-16.22.89c-40.55-.08-81.27,14-112.29,40.24l-1.82,1.3a543.71,543.71,0,0,1-56.59-4c-29.44-3-59-7.45-87.14-16.73a78.21,78.21,0,0,1-35.9-23.49c-18.27-21.11-25-49.37-27.55-76.52C417.78,666.55,420.08,666.55,422.38,666.56Z" transform="translate(-3.07 -79.12)"/><path class="cls-18" d="M666.28,762.82c28.12-12.54,59.25-15.76,89.74-15.28a171.53,171.53,0,0,1,17.63,18.58c-19-2.92-38.4-3.43-57.33.31a155.7,155.7,0,0,0-57,22.34c-10.8-1.25-21.7-.23-32.51-1.4C638.47,777.07,652.12,769.19,666.28,762.82Z" transform="translate(-3.07 -79.12)"/><path class="cls-19" d="M804,253.67c23.12-.18,46.23-.08,69.35,0,2,0,3.12,1.1,3.23,3.35-24.17.92-48.43.44-72.63.25C804,256.33,804,254.56,804,253.67Z" transform="translate(-3.07 -79.12)"/><path class="cls-20" d="M550.12,269.18c1.21-4.12,2.36-8.36,5-11.85,7.75,35.66,5,72.56.13,108.42-.69,3.56-1,7.68-3.92,10.23-9-1.49-16-8.34-21.06-15.51C520.74,346,520,327.78,522.59,311.2l.53-4C536.27,298.19,545.58,284.34,550.12,269.18Z" transform="translate(-3.07 -79.12)"/><path class="cls-21" d="M976.58,267.16c18.55-1.08,37.22-.07,55.82-.49,3.92.21,8.45-.82,11.66,2.15-3.45,2.46-7.77,1.76-11.71,1.87-18.67-.31-37.37.3-56-.28C976.4,269.61,976.51,268,976.58,267.16Z" transform="translate(-3.07 -79.12)"/><path class="cls-22" d="M802.06,268.41c23.71-.51,47.45,0,71.17-.25,2.45-.34,5.16.33,4.84,3.37q-37.51.62-75,0C802.8,270.76,802.31,269.18,802.06,268.41Z" transform="translate(-3.07 -79.12)"/><path class="cls-23" d="M487,275.37c3.38-1.82,6.81.82,10.2,1.33,7.47,2.36,14.87-1,21.83-3.43-.34,4-4.51,5.16-7.7,6.24C503.22,281.61,493.76,280.77,487,275.37Z" transform="translate(-3.07 -79.12)"/><path class="cls-24" d="M976.55,284.76c.23-4.43,5.29-3.2,8.29-3.46,14.28.26,28.57-.26,42.83.3-.15.84-.46,2.5-.61,3.32C1010.27,285.58,993.34,285.73,976.55,284.76Z" transform="translate(-3.07 -79.12)"/><path class="cls-25" d="M496.93,285.29a55.38,55.38,0,0,1,13.89,0C507.9,290,499.72,290.2,496.93,285.29Z" transform="translate(-3.07 -79.12)"/><path class="cls-26" d="M976.4,296.42c17.37-1,34.85-.31,52.27-.28-.31.82-.92,2.5-1.21,3.32-15.32.39-30.67,0-46,.18C979.65,299.49,973.41,300,976.4,296.42Z" transform="translate(-3.07 -79.12)"/><path class="cls-27" d="M478.41,308c6.75,2,13.3,5,20.41,5.32,8.5.41,16.76-2.45,24.3-6.14l-.53,4C509.47,319.75,489.33,320.6,478.41,308Z" transform="translate(-3.07 -79.12)"/><path class="cls-28" d="M842.09,354.34c11.39-1.26,22.89-.33,34.34-.59,10.92.23,21.88-.53,32.79.36.16.77.51,2.3.69,3.07-22.13.53-44.28.25-66.39.15C843.16,356.57,842.45,355.08,842.09,354.34Z" transform="translate(-3.07 -79.12)"/><path class="cls-28" d="M841.68,383.64c8.23-1.58,16.63-.49,24.94-.77,9.87.38,19.85-.89,29.63.76-.46.71-1.36,2.15-1.82,2.87-14.74.2-29.5,0-44.24.13C847.13,386.44,842.91,387.39,841.68,383.64Z" transform="translate(-3.07 -79.12)"/><path class="cls-29" d="M843.42,368.62c17.16-.54,34.36-.54,51.52,0-.28.77-.82,2.3-1.08,3.05-16.53.57-33.16.53-49.7,0C844,370.94,843.6,369.39,843.42,368.62Z" transform="translate(-3.07 -79.12)"/><path class="cls-30" d="M416.21,388a50.83,50.83,0,0,1,29.47-15.56c2.25-.26,4.5-.49,6.76-.69,20.51,23.21,42.09,45.48,63.26,68.1,8.41-13.28,15-27.61,22.66-41.34,4.28-7.32,7.06-15.76,13.1-21.9a134.61,134.61,0,0,1,20.55,6.5c4.71,2,9.6,4.58,12,9.39-13.12,12.82-25.46,26.45-39.22,38.61-9.26,8.16-17.55,17.45-27.63,24.66C483.19,433.65,449.78,410.68,416.21,388Z" transform="translate(-3.07 -79.12)"/><path class="cls-31" d="M587.74,399.32c2.48,3.78,5.11,7.47,7.55,11.28l2.4,4c4.42,7,8.87,14,13.23,21.11.41,0,1.23,0,1.66.08,1,7,5.89,12.56,9.42,18.49q25,40,48.94,80.72c3,5.29,6.45,10.34,8.42,16.12-14.74-4.51-30.93-.84-43.93,6.9-7.5,4.25-12.33,11.66-17,18.65a80.53,80.53,0,0,0-17-8.27c6.22-15.43,8.64-32.08,11.21-48.43,1.76-12.31,2.77-25.18-1.2-37.2-5.47-16.68-10.7-33.46-15.22-50.42C593.33,421.31,589,410.7,587.74,399.32Z" transform="translate(-3.07 -79.12)"/><path class="cls-31" d="M428.64,554.7c5.17-12.92,2.91-27.79,10.1-40.07,3.05,9.8,3.41,20.16,5.81,30.09,1.31,6,7.47,8.95,13,10.06,13.72,2.79,27.48-1.3,40.8-4.28,15.33-3.56,31.55-7.17,47.18-3.38a15.37,15.37,0,0,1,12.15,16.65c-.13.62-.43,1.87-.57,2.5-.54-6.42-3.91-13.4-10.85-14.61-13.56-1.84-27.06,1.94-40.21,4.89-20.39,4.17-40.5,9.88-61.2,12.3-5.42.3-11.89.66-16.06-3.45C426.06,562.31,427.52,558.08,428.64,554.7Z" transform="translate(-3.07 -79.12)"/><path class="cls-32" d="M757,438.87c3.46.28,6.93.56,10.41.8q-49.5,89.56-98.24,179.54c-46.12.07-92.22,0-138.32,0,0-6.5,0-13,.08-19.49h25.66c30.06,0,60.12,0,90.2,0,7.35,0,14.71,0,22.06-.08,5-9.41,10.24-18.73,15.33-28.12,1.58-2.81,3.23-5.58,4.84-8.36Q723.1,501.09,757,438.87Zm-178.92,167c-.84,2.71-1.9,6,.64,8.24,7.78,1.15,15.71.16,23.56.44.59-2.68,2.28-6.48-.39-8.5C594,605.38,586,605.9,578.07,605.92Zm43.47.54c-1.08,2.41-1.74,8.06,2.23,8,7.27.08,14.64.69,21.85-.43,1.13-2.54.39-5.38.33-8C637.86,606.07,629.48,605,621.54,606.46Z" transform="translate(-3.07 -79.12)"/><path class="cls-33" d="M767.39,439.68c39.65.39,79.25,2.12,118.88,2.43,11.56-.18,23.07,1.28,34.62,1.05,34,.07,68,1.81,102,2.05a175.63,175.63,0,0,1,17.63.33c-5.88,11.84-12.61,23.26-18,35.36-24.54,45.85-47.86,92.36-72.14,138.35q-140.66-.1-281.31,0Q718,529.33,767.39,439.68Zm83.06,80.49c-4.22,3.63-3.74,13.35,3,13.48,13.69.26,27.43.16,41.14.07,8,.67,8.95-12.9,1.49-14.14-9.24-.77-18.54-.07-27.79-.3C862.35,519.45,856.24,518.56,850.45,520.17Z" transform="translate(-3.07 -79.12)"/><path class="cls-34" d="M850.45,520.17c5.8-1.61,11.9-.72,17.85-.89,9.26.23,18.55-.48,27.79.3,7.45,1.23,6.53,14.81-1.49,14.14-13.71.1-27.45.2-41.14-.07C846.7,533.52,846.23,523.8,850.45,520.17Z" transform="translate(-3.07 -79.12)"/><path class="cls-35" d="M213.59,545.16c4.66-3.27,10.65-2.82,16.07-3.37,16.84-.76,34.21-2.74,50.76,1.41l-1,.34a33.39,33.39,0,0,1-8.75,1.92C251.67,547,232.48,547.9,213.59,545.16Z" transform="translate(-3.07 -79.12)"/><path class="cls-36" d="M279.39,543.55l1.82.89c-1,12.13.15,24.35-.69,36.53-.07,2.35-.18,4.7-.31,7l-.26,3.46c-.21,2.3-.44,4.6-.72,6.9-.1.85-.33,2.54-.44,3.38-.33,2.43-.64,4.88-1,7.32-.18.84-.51,2.51-.67,3.35-.54,2.25-1.07,4.5-1.63,6.76-19.24.07-38.47,0-57.71,0-.62-2.28-1.23-4.55-1.82-6.83l-1-3.55c-2-3.43-5.73-5.16-8.82-7.42l-3.89-3.4a56.44,56.44,0,0,1-10.11-17.12c-5.75-15.25,7.08-31.44,21.47-35.74,18.9,2.74,38.09,1.84,57.05.31A33.39,33.39,0,0,0,279.39,543.55Zm-77.08,36.89c1.49,2.59,3,5.19,4.6,7.75l.15,0a20.76,20.76,0,0,0,6.21,5.75c0-2.27.08-4.5.11-6.73-.2-2.27-.39-4.51-.56-6.76,0-8.19.23-16.4.2-24.59C204.16,560.23,197.27,570.62,202.31,580.44Z" transform="translate(-3.07 -79.12)"/><path class="cls-37" d="M635.43,558c13-7.73,29.19-11.41,43.93-6.9,3.07,4.15,6.52,8,9.65,12.13-1.61,2.77-3.27,5.55-4.84,8.36-8.23-2.59-17.07-4.09-25.56-1.86-10.44,2.45-18.39,10.11-26.32,16.81-4.51-3.46-9.16-6.73-13.86-9.9C623.1,569.64,627.93,562.23,635.43,558Z" transform="translate(-3.07 -79.12)"/><path class="cls-38" d="M658.61,569.72c8.49-2.23,17.34-.74,25.56,1.86-5.09,9.39-10.29,18.72-15.33,28.12-7.35.13-14.71.11-22.06.08-4.86-4.38-9.44-9.08-14.48-13.25C640.22,579.83,648.17,572.16,658.61,569.72Z" transform="translate(-3.07 -79.12)"/><path class="cls-39" d="M1051.15,576.48c9.26-1.72,17.6,8.44,14.07,17.19-2.84,9.6-17.48,11.84-22.79,3.22C1036.44,589.7,1041.71,577,1051.15,576.48Zm.08,3.2c-5.45,1.18-9.39,7.17-7.39,12.61,1.87,8.09,14.84,8.88,17.75,1.12C1065.25,586.86,1058.39,578.12,1051.23,579.68Z" transform="translate(-3.07 -79.12)"/><path class="cls-40" d="M1111.73,576.33c9.08-1,17.65,9.62,13.27,18.08-3.51,8.78-16.6,10.72-22.38,3.14C1095.74,590.14,1101.89,576.78,1111.73,576.33Zm0,3.23c-6.25.87-11,8.54-7.37,14.22,3.22,7.31,15.32,6.67,17.55-1.08C1124.55,586.15,1118.6,578.65,1111.69,579.57Z" transform="translate(-3.07 -79.12)"/><path class="cls-41" d="M1051.23,579.68c7.16-1.56,14,7.17,10.36,13.72-2.91,7.77-15.88,7-17.75-1.12C1041.84,586.86,1045.78,580.87,1051.23,579.68Z" transform="translate(-3.07 -79.12)"/><path class="cls-41" d="M407.26,687.77c.31-7.08.53-14.14.94-21.21h7.31c2.59,27.15,9.28,55.41,27.55,76.52A78.21,78.21,0,0,0,479,766.58c28.19,9.28,57.71,13.77,87.14,16.73a543.71,543.71,0,0,0,56.59,4,112.66,112.66,0,0,0-26.15,28.78c-36.1-6.27-72.14-13-108.24-19.29-7.21-.71-14.48-1-21.57-2.51-25.55-5.43-48.33-21.64-62.5-43.49C405.22,729.77,406,708.76,407.26,687.77Z" transform="translate(-3.07 -79.12)"/><path class="cls-41" d="M624.51,786c31-26.28,71.74-40.32,112.29-40.24a119.09,119.09,0,0,0,16.22-.89c1,.87,2,1.76,3,2.66-30.49-.48-61.61,2.74-89.74,15.28-14.15,6.37-27.81,14.25-39.47,24.56,10.8,1.17,21.7.15,32.51,1.4-15,9.46-31.36,17.58-43.24,31.08-5.4-1.1-10.77-2.28-16.19-3.25,4.7-6.81,9.78-13.4,16-18.95C619.22,794.21,623.89,791.2,624.51,786Z" transform="translate(-3.07 -79.12)"/><path class="cls-42" d="M144.52,580.83c15.86.2,31.73,0,47.59.07A56.44,56.44,0,0,0,202.23,598c-19.27.31-38.55.1-57.81.11,0-2.3,0-4.58,0-6.86,16.89.26,33.79.07,50.68.13l-.11-3.27c-16.89-.18-33.77-.13-50.66,0C144.4,585.69,144.45,583.26,144.52,580.83Z" transform="translate(-3.07 -79.12)"/><path class="cls-42" d="M279.94,591.47c10.54-.2,21.08,0,31.62-.16.2,2.31.39,4.63.59,7-11,0-22-.26-32.93.1C279.5,596.07,279.73,593.77,279.94,591.47Z" transform="translate(-3.07 -79.12)"/><path class="cls-42" d="M206.12,601.42c3.09,2.27,6.8,4,8.82,7.42q-35.19.27-70.38,0c0-2.27-.08-4.53-.11-6.78C165,601.47,185.58,602.55,206.12,601.42Z" transform="translate(-3.07 -79.12)"/><path class="cls-42" d="M278.78,601.75c11.08,0,22.18.18,33.26-.18,0,2.54-.07,5.11-.1,7.67-11.39-.11-22.8.08-34.2-.16C278.14,606.62,278.45,604.18,278.78,601.75Z" transform="translate(-3.07 -79.12)"/><path class="cls-42" d="M144.24,612.39q35.83.34,71.68,0c.59,2.28,1.2,4.55,1.82,6.83-24.36.08-48.73-.15-73.09.11C144.52,617,144.39,614.7,144.24,612.39Z" transform="translate(-3.07 -79.12)"/><path class="cls-42" d="M277.07,612.42c11.43-.11,22.87,0,34.3,0,.21,1.71.61,5.11.82,6.81q-18.37,0-36.74,0C276,616.92,276.53,614.67,277.07,612.42Z" transform="translate(-3.07 -79.12)"/><path class="cls-43" d="M202.31,580.44c3.5,0,7,0,10.51,0,.16,2.25.36,4.5.56,6.76-2.1.31-4.22.64-6.32,1l-.15,0C205.33,585.63,203.8,583,202.31,580.44Z" transform="translate(-3.07 -79.12)"/><path class="cls-44" d="M280.52,581c10.67-.16,21.36.26,32-.25-.21,2.22-.44,4.42-.64,6.63q82.25.1,164.53,0l0,2c-52.19-.1-104.38.1-156.56-.1-13.18-1.53-26.45-1-39.68-1.2C280.34,585.66,280.45,583.31,280.52,581Z" transform="translate(-3.07 -79.12)"/><path class="cls-45" d="M312.53,580.72l1.43-.1a199.1,199.1,0,0,1,20-.26c47.43.13,94.86-.08,142.3.1,0,2.28.07,4.56.11,6.86q-82.28.22-164.53,0C312.09,585.13,312.32,582.93,312.53,580.72Z" transform="translate(-3.07 -79.12)"/><path class="cls-45" d="M311.56,591.31c55-.21,109.93,0,164.9-.1,0,2.36,0,4.73,0,7.11-42.34.18-84.68-.44-127,.43-12.41-.82-24.86-.23-37.28-.48C312,595.94,311.76,593.62,311.56,591.31Z" transform="translate(-3.07 -79.12)"/><path class="cls-45" d="M312,601.57c54.78-.23,109.59-.13,164.39,0,0,2.58,0,5.17,0,7.77q-82.23,0-164.47,0C312,606.67,312,604.11,312,601.57Z" transform="translate(-3.07 -79.12)"/><path class="cls-45" d="M311.37,612.4c55-.2,110,0,165-.08,0,2.31,0,4.63,0,7-18,0-36,0-54,0-36.73-.08-73.45,0-110.18,0C312,617.51,311.58,614.11,311.37,612.4Z" transform="translate(-3.07 -79.12)"/><path class="cls-46" d="M207.05,588.15c2.1-.34,4.22-.67,6.32-1,0,2.23-.07,4.47-.11,6.73A20.76,20.76,0,0,1,207.05,588.15Z" transform="translate(-3.07 -79.12)"/><path class="cls-47" d="M280.21,588c13.23.16,26.5-.33,39.68,1.2,52.17.2,104.36,0,156.56.1l0,1.9c-55,.07-109.93-.11-164.9.1-10.54.15-21.08,0-31.62.16Z" transform="translate(-3.07 -79.12)"/><path class="cls-47" d="M144.34,588.14c16.89-.13,33.77-.18,50.66,0l.11,3.27c-16.89-.07-33.79.13-50.68-.13Z" transform="translate(-3.07 -79.12)"/><path class="cls-48" d="M144.42,598.14c19.26,0,38.53.2,57.81-.11l3.89,3.4c-20.54,1.13-41.13,0-61.68.62C144.44,601.06,144.42,599.12,144.42,598.14Z" transform="translate(-3.07 -79.12)"/><path class="cls-49" d="M279.22,598.37c11-.36,21.95-.11,32.93-.1,12.43.25,24.87-.34,37.28.48,42.32-.87,84.66-.25,127-.43,0,.8,0,2.4,0,3.2-54.8-.08-109.6-.18-164.39,0-11.08.36-22.18.18-33.26.18C278.89,600.91,279.12,599.22,279.22,598.37Z" transform="translate(-3.07 -79.12)"/><path class="cls-49" d="M277.74,609.07c11.39.25,22.8,0,34.2.16q82.23.17,164.47,0c0,.76,0,2.28,0,3-55,0-110-.11-165,.08-11.43,0-22.87-.1-34.3,0C277.24,611.58,277.56,609.91,277.74,609.07Z" transform="translate(-3.07 -79.12)"/><path class="cls-50" d="M578.07,605.92c7.93,0,15.89-.54,23.81.18,2.68,2,1,5.83.39,8.5-7.85-.28-15.78.71-23.56-.44C576.16,612,577.23,608.63,578.07,605.92Z" transform="translate(-3.07 -79.12)"/><path class="cls-51" d="M621.54,606.46c7.95-1.46,16.32-.39,24.41-.46.07,2.66.8,5.5-.33,8-7.21,1.12-14.58.51-21.85.43C619.8,614.52,620.46,608.87,621.54,606.46Z" transform="translate(-3.07 -79.12)"/><path class="cls-52" d="M144.55,608.82q35.19.3,70.38,0l1,3.55q-35.83.32-71.68,0C144.3,611.5,144.47,609.71,144.55,608.82Z" transform="translate(-3.07 -79.12)"/><path class="cls-53" d="M144.65,619.33c24.36-.26,48.73,0,73.09-.11,19.24,0,38.47,0,57.71,0q18.37.07,36.74,0c36.73,0,73.45,0,110.18,0q-.12,23.67,0,47.31c-2.3,0-4.6,0-6.88,0H408.2q-29.75,0-59.51,0-16.75,0-33.51,0-108.11,0-216.22,0c-19.8,0-39.6-.07-59.4,0l-19.73-.11c0-15.69,0-31.39,0-47.07C61.4,619,103,619.54,144.65,619.33Z" transform="translate(-3.07 -79.12)"/><path class="cls-53" d="M39.56,687.68q29.11,0,58.25,0c-3.58,61.24-6,122.52-9.77,183.76-2.22,52.49-5.38,104.94-8.08,157.41-1.94,48.66-5.52,97.26-7.32,145.93-.71,3.79,1.18,9.18-2.17,11.94-10.46.64-21,.08-31.44.15.07-2.79.15-5.57.26-8.32C39.86,1014.92,39.33,851.29,39.56,687.68Z" transform="translate(-3.07 -79.12)"/><path class="cls-53" d="M348.65,687.68c19.54.07,39.07-.1,58.61.1-1.25,21-2,42-3,63-1.67,28.88-3.43,57.77-4.61,86.7-.85,23.25-3,46.48-3.07,69.74-2.43,15.37-1.56,31-3.07,46.46-1.84,51.42-5.71,102.72-7.58,154.13-1.23,17.19-1.58,34.41-2.76,51.6-.44,11.21-1.31,22.43-1.66,33.66-10.77,1.17-21.62.25-32.42.59-.94-10.88-.25-21.82-.39-32.74q.2-73,0-146c.1-30.73.48-61.48-.2-92.22.62-36.64.26-73.3.18-110C348.68,771.08,348.62,729.38,348.65,687.68Z" transform="translate(-3.07 -79.12)"/><path class="cls-53" d="M811.49,687.74c19.57-.21,39.14.21,58.71-.26q0,236.09,0,472.19c.1,7.26.11,14.53-.31,21.8-11,.51-22,.07-33-.07-.49-7.5-.66-15-1-22.49Q823.65,923.32,811.49,687.74Z" transform="translate(-3.07 -79.12)"/><path class="cls-53" d="M1097.9,687.64q29.13.12,58.26,0c.23,160.43,0,320.88.13,481.31A141.11,141.11,0,0,1,1156,1187c-10.52-.31-21,.36-31.54-.28-2.08-6.17-1.15-13.08-2-19.54-1.44-34.07-3.09-68.12-5.17-102.15C1111,939.24,1104.09,813.47,1097.9,687.64Z" transform="translate(-3.07 -79.12)"/><path class="cls-54" d="M422.36,619.25c18,0,36,0,54,0s36.33,0,54.49,0c46.1,0,92.2,0,138.32,0q140.64,0,281.31,0,36.18.1,72.33,0,29.9,0,59.81,0c20,.07,40.09-.18,60.15.13,15.12.84,30.31-.36,45.43.67.94,15.17.71,30.44.16,45.62-10.72,1.28-21.54.3-32.29.8-19.8.08-39.58,0-59.36,0q-113.25-.07-226.51,0c-19.88-.1-39.75-.07-59.61,0,0,3.18,0,6.37.16,9.57-.44-3.25-1.08-6.45-1.66-9.67-37.84,0-75.68-.07-113.54.08-23.59.07-47.2-.13-70.79.13-67.46-.21-134.92,0-202.36-.1Q422.21,642.9,422.36,619.25Z" transform="translate(-3.07 -79.12)"/><path class="cls-55" d="M39.56,666.6c19.8-.11,39.6,0,59.4,0-.1,7-.62,14.09-1.15,21.13q-29.13,0-58.25,0C39.56,680.63,39,673.61,39.56,666.6Z" transform="translate(-3.07 -79.12)"/><path class="cls-55" d="M348.68,666.55q29.75,0,59.51,0c-.41,7.08-.62,14.14-.94,21.21-19.54-.2-39.07,0-58.61-.1C348.67,680.63,348.65,673.59,348.68,666.55Z" transform="translate(-3.07 -79.12)"/><path class="cls-55" d="M810.57,666.55c19.86,0,39.73-.08,59.61,0q0,10.47,0,20.92c-19.57.48-39.14,0-58.71.26-.2-3.89-.43-7.77-.76-11.62C810.58,672.92,810.58,669.73,810.57,666.55Z" transform="translate(-3.07 -79.12)"/><path class="cls-55" d="M1096.69,666.51c19.78,0,39.57,0,59.36,0,.1,7,0,14.1.11,21.16q-29.13.1-58.26,0Q1097.21,677.08,1096.69,666.51Z" transform="translate(-3.07 -79.12)"/><path class="cls-56" d="M1315.51,733.86a9,9,0,0,1,6.45-4.25c-4.51,7.78-9.95,15-14,23.08a237.51,237.51,0,0,0-22.77,64.72c8.29-7.77,15.51-16.55,23.25-24.84,4.35-4.53,7.95-10.23,14-12.64a39.24,39.24,0,0,1-6.21,9c-9.55,10.15-18.81,20.57-28.32,30.75-2.81,2.91-5.27,6.34-5.75,10.47-3,17.11-5.91,34.41-5.94,51.83,10.69-10.72,20.47-22.29,30.72-33.41,1.74-2,3.83-3.71,6.62-3.83a49.42,49.42,0,0,1-5.83,7.95q-15,16.23-29.78,32.65c-3.05,3.05-2.92,7.6-3.2,11.62a597.51,597.51,0,0,0,3.22,89.87c7.93-7.6,12.1-19.27,22.44-24.13-4.94,9.65-13.72,16.66-19,26.17l-6.88,0c-1.35-15-2.33-29.95-3.3-44.92-3.89-12.38-14.51-21.64-17.89-34.3,8.5,6.42,11.25,17.55,18,25.56-.92-36.92,1.56-73.94,8.55-110.23C1286.62,793,1296.95,761.11,1315.51,733.86Z" transform="translate(-3.07 -79.12)"/><path class="cls-56" d="M1351.66,840.9c5-6.83,10.44-14.23,18.93-16.83,2.77,2,5.7,4,7.4,7.11,8.75,16.22,11.41,35.1,10,53.32-.8,6.85-4,13.1-7,19.21a73.23,73.23,0,0,0-6.57-7.85c-4.33,31.95-9.11,65.29-26.92,93l-3.64,0c2.86-5.3,6.5-10.28,8.31-16.06-1.59-10.92-9.52-20.23-9.21-31.57,5.75,7.72,6.86,17.66,12,25.74,9.08-23.23,13.94-48.07,15.53-72.91-4.7,1.31-9.42,3.12-12.79,6.81-14.58,14.66-23,33.89-35.07,50.45-3.5,5.4-10.47,8.44-16.63,5.86-7.5-3.33-8.11-13.17-5.68-20,5.25-18.19,22.79-28.86,29.37-46.31,4-9.06,5.3-19,8.8-28.17A166.82,166.82,0,0,1,1351.66,840.9Z" transform="translate(-3.07 -79.12)"/><path class="cls-56" d="M1197.9,904c1.81-5.52,8.29-5.22,12.9-4.1,12.46,2.91,22.06,12.05,31.32,20.32.26-6.09-.11-12.2.57-18.27,1.44,6.48,1.15,13.15.9,19.73,1.21,1.23,2.45,2.46,3.71,3.71.36-.89,1.12-2.63,1.49-3.5-1.2,22.44-.62,45.2,5.43,67H1246c-16.4-19.06-31.13-39.78-42.36-62.32C1200.72,919.42,1196.83,912,1197.9,904Z" transform="translate(-3.07 -79.12)"/><path class="cls-57" d="M716.32,766.43c18.93-3.74,38.32-3.23,57.33-.31,5.55,12,2.18,25.55-.26,37.92-7.17,28.66-18.7,56-30.37,83.06-14.12,32.51-29.9,64.26-45.07,96.27q-10.86,22.06-21.82,44.06c-14.58,30.26-30.31,60.12-41.81,91.72a38.93,38.93,0,0,0,9.64,7.52c12.23,6.63,25.25,11.64,37.5,18.26.07,1.41.21,4.22.28,5.61a29.55,29.55,0,0,1-12.67,5.4c-10,1.67-20.83,3.48-30.4-1-15.19-6.44-28.3-17-40.29-28.11-.92-2.38-1.71-4.79-2.51-7.17,21.16-52.39,39.76-105.76,58.1-159.18,18.81-54,36.28-108.53,53.62-163.06C710.68,787.18,714.64,777.1,716.32,766.43Z" transform="translate(-3.07 -79.12)"/><path class="cls-58" d="M622.69,787.3l1.82-1.3c-.62,5.2-5.29,8.21-8.67,11.66-6.17,5.55-11.26,12.13-16,18.95l-3.35-.53A112.66,112.66,0,0,1,622.69,787.3Z" transform="translate(-3.07 -79.12)"/><path class="cls-59" d="M1229.45,840.08c-.25-5.19.11-12.18,6.24-13.77,9.64-.76,18.4,4.88,24.31,12.07-6.63,27.35-10,55.42-11.2,83.53-.38.87-1.13,2.61-1.49,3.5-1.26-1.25-2.5-2.48-3.71-3.71.25-6.58.54-13.25-.9-19.73C1239.34,881.1,1230.83,861.27,1229.45,840.08Z" transform="translate(-3.07 -79.12)"/><path class="cls-60" d="M396.54,907.22c0-23.26,2.22-46.49,3.07-69.74,8.95,1.31,18,2.13,27,2.84C416.54,862.62,406.83,885.06,396.54,907.22Z" transform="translate(-3.07 -79.12)"/><path class="cls-60" d="M592.73,840c5.25-.2,10.52-.36,15.79-.53-2.48,7-4.7,14.15-6.53,21.38-3.05-5.91-5.68-12-8.23-18.17C593.51,842,593,840.67,592.73,840Z" transform="translate(-3.07 -79.12)"/><path class="cls-60" d="M348.44,922.74c.67,30.73.3,61.48.2,92.22-21.77,49.2-43.9,98.24-65.64,147.46a20.76,20.76,0,0,1-2.94,5.06c-13.74.51-27.52,0-41.27.2-.08-.53-.23-1.59-.31-2.12,7.78-15.84,14.63-32.13,22-48.15Q304.43,1020.05,348.44,922.74Z" transform="translate(-3.07 -79.12)"/><path class="cls-60" d="M676.13,1027.43q11-22,21.82-44.06c26.84,58.15,52.72,116.73,79.26,175,.87,1.94,1.77,3.91,2.66,5.88-14.23.26-28.47,0-42.68.16-1.63-3.61-3.25-7.21-4.83-10.82Q704.23,1090.53,676.13,1027.43Z" transform="translate(-3.07 -79.12)"/><path class="cls-61" d="M1219.54,1136.77c4.2,6.14,8.57,12.66,15.45,16.12,7.27,4.09,15.88,3.53,23.94,3.51,30.09-.25,60.2.2,90.28-.2,12.67-.18,22.44-9.39,28.71-19.57-2.4,11.72-1.56,25-9.26,34.94a31.79,31.79,0,0,1-9.46,8.67c-8.82,5.83-19.54,5.27-29.6,5-23.56,0-47.12-.07-70.68,0-12,1-24.94-3.81-31.78-14.09-6.67-8.77-6.57-20.29-8-30.72C1219.28,1139.58,1219.46,1137.71,1219.54,1136.77Z" transform="translate(-3.07 -79.12)"/><path class="cls-62" d="M732.36,1153.6c1.58,3.61,3.2,7.21,4.83,10.82,14.22-.15,28.45.1,42.68-.16-.89-2-1.79-3.94-2.66-5.88,19.57-1.25,39.12.87,58.71.54.3,7.49.46,15,1,22.49,11,.13,22,.57,33,.07.43-7.27.41-14.55.31-21.8,20.18-.48,40.29,1.07,60.46,1.21,63.95,1.41,127.86,3.92,191.77,6.3.82,6.45-.11,13.36,2,19.54,10.49.64,21,0,31.54.28a141.11,141.11,0,0,0,.34-18.06c16.71.18,33.36,1.63,50.07,2.13,6.91.18,13.91,1.82,20.77.15,6.85,10.28,19.75,15.05,31.78,14.09,23.56-.11,47.12,0,70.68,0,10.06.25,20.78.8,29.6-5,14.09,3.6,29.06,3,42.8,8.14-5.27,3.79-12.1,3.92-18.29,5-51.25,5.89-102.84,7.77-154.34,10.16-30.62,1.08-61.2,2.68-91.84,3.4-28.47.48-56.89,2.05-85.37,2-26.92,1.31-53.88,1.18-80.81,1.66-39.83,1.66-79.72.79-119.57,2.31q-138.72.79-277.45,0c-34.48-1.1-69-1.2-103.48-1.56-27.3-1.36-54.67-1-82-1.64-22.39-1.28-44.82-.9-67.23-1.56-24.63-1.51-49.32-.94-73.94-2.56-40.55-1.13-81.05-3.37-121.57-5.2-32.33-1.64-64.63-4.07-96.83-7.5-8.82-1.53-18.39-1.54-26.22-6.42,11.1-5.91,24.13-5.68,36.23-8-.11,2.76-.2,5.53-.26,8.32,10.47-.07,21,.49,31.44-.15,3.35-2.76,1.46-8.14,2.17-11.94,40.27-3,80.54-6.45,120.91-8,15-.59,30-2.36,44.92-1.25.08.53.23,1.59.31,2.12,13.76-.23,27.53.31,41.27-.2a20.76,20.76,0,0,0,2.94-5.06c21.88-.21,43.75-2,65.65-1.49.15,10.92-.54,21.85.39,32.74,10.8-.34,21.65.57,32.42-.59.34-11.23,1.21-22.44,1.66-33.66,40.57,0,81.13-2.66,121.68-1.48-6.09,8.23-11.33,18-10.24,28.55a14.18,14.18,0,0,0,12.64,14c10.88,1.53,21.29-3.09,30.83-7.75,14.81-7.58,28.62-17.39,39.93-29.63.07,1.89.13,3.78.2,5.68,9.72.18,19.41.92,29.12.9,3.33,0,4.86-4.37,8.21-4.43,6-.15,9.92,5.09,14.73,7.83,11.41,6.58,24.71,8.62,37.6,10.24,15.27,1.74,31.27,1.87,45.89-3.45,3.79-1,6.24-5.34,4.19-8.91-3.35-5.78-9-9.7-14.37-13.5,9.74-.15,19.49.07,29.22-.21Z" transform="translate(-3.07 -79.12)"/></svg>