<svg xmlns="http://www.w3.org/2000/svg" viewBox="0 0 1008.03 689"><defs><style>.cls-1{isolation:isolate;}.cls-2{fill:#272525;opacity:0.04;mix-blend-mode:multiply;}.cls-3{fill:#243f5e;}.cls-4{fill:#eac5b0;}.cls-5{fill:#3b455a;}.cls-6{fill:#d7e8f4;}.cls-7{fill:#e4ab29;}.cls-8{opacity:0.1;}.cls-9{fill:#ecf4f6;}.cls-10{fill:#d89a80;}.cls-11{fill:#587bc9;}.cls-12{fill:#f0d054;}.cls-13{fill:#f7f7f7;}.cls-14{fill:#3d3d3d;}.cls-15{fill:#fff;}</style></defs><title>password_forgotten</title><g class="cls-1"><g id="object"><path class="cls-2" d="M278.34,574.44c-20.42.4-40.85.71-61.26.79-36.38.14-84.08-6.58-111.23,19-13.67,12.88-9.17,38.58,12.52,43.13,6.14,1.29,12.75,1.15,18.5,3.34s10.32,8.17,7.13,12.73c-1.63,2.33-4.78,3.58-7.79,4.56-19.07,6.2-40.2,7-59.17,13.39C32,686.6,39.73,717.19,80.71,727.06c36.85,8.88,77.83,7.65,115.82,8.25,222.34,3.52,445.28,7.7,666.38-4.16,47.68-2.56,95.09-5.79,142.57-8.8,21.73-1.38,48.92-5,49-13,.06-5.6-14.28-9.78-28.42-12-24.76-3.83-57.09-7.16-52.41-19.69,1.71-4.57,9.77-8.76,21-10.9,8.65-1.65,18.59-2.09,28-3.09s19-2.83,22.93-6.08c10.61-8.78-16.12-14-34.93-14.8-22.54-1-40.91-7.13-33.14-16.44,5.41-6.48,23-10.87,28.38-17.36a6.82,6.82,0,0,0,.72-8.09c-14.3-26.73-89-24.44-116.88-26.44-51.52-3.7-103.27-4.41-154.95-4.74-117.24-.75-234.48.5-351.69,2.45C348.14,572.77,313.24,573.75,278.34,574.44Z" transform="translate(-46.46 -50)"/><path class="cls-3" d="M210.9,418.59l-2.56,16.08a9.44,9.44,0,0,0,0,2.81l15.9,112.14a9.44,9.44,0,0,1-.16,3.49l-24.28,103a9.44,9.44,0,0,0,5.9,11h0a9.44,9.44,0,0,0,11.87-4.93l51.71-113.39a80.51,80.51,0,0,0,6.62-23.28l3.6-28.4a9.44,9.44,0,0,0,.07-1.44l-2-76.22a9.44,9.44,0,0,0-9.51-9.18l-47.86.39A9.44,9.44,0,0,0,210.9,418.59Z" transform="translate(-46.46 -50)"/><path class="cls-3" d="M321.34,417.11l9,95.26a61.42,61.42,0,0,1,.15,9.61l-8,128a8.74,8.74,0,0,1-8,8.16h0a8.74,8.74,0,0,1-9.35-7.32L286,532.07q-.06-.38-.16-.76L257,417.08a8.74,8.74,0,0,1,9-10.86l47.19,3A8.74,8.74,0,0,1,321.34,417.11Z" transform="translate(-46.46 -50)"/><path class="cls-4" d="M249.48,279.56c2.49,5.5,1.9,10.87-.48,12.44-2.7,1.78-9.22-.32-13.2-7.28-.82-1.61-1.65-3.38-2.44-5.29s-1.41-3.62-2-5.47c-4.25.52-9.39.68-11.9-2.79a12.07,12.07,0,0,1-1.57-3.71l-4.77-16.05a14.75,14.75,0,0,1-.9-5.68c.36-3.37,3-6.05,5.69-8.05,7-5.1,16.11-7.57,24.5-5.5a13.2,13.2,0,0,1,6.11,3c2.55,2.46,3.39,6.16,4.1,9.63l2,9.62c.76,3.69,1.36,8-1.18,10.79-1.35,1.48-3.41,2.26-4.45,4C247.14,272.25,249.47,276,249.48,279.56Z" transform="translate(-46.46 -50)"/><path class="cls-5" d="M269.19,208.59a35.7,35.7,0,0,1,.71-4.75c.76-3.38,2.15-6.64,2.4-10.1s-1-7.36-4.11-8.89c-2-1-4.38-.8-6.58-.42a41.54,41.54,0,0,0-19.76,9.33c-5.33,4.57-9.51,9.84-16.79,10.59-6.83.7-10.57,3.64-15.53,8.78-5.37,5.56-13.86,10.44-18.13,16.65a19.44,19.44,0,0,0-3.05,8.84A29.29,29.29,0,0,0,202,266.42a41.86,41.86,0,0,0,6.63,3.13c4.73,1.81,10.45,4.11,15.3,3.25-1.77-3.84-11.14-14.07-9.77-18.62,2.18-7.21,13.46-10.66,19.79-12.28,6.9-1.77,14.66-.1,21.32-2.22,4.79-1.53,9.4-6.53,12-10.71C270.61,223.81,268.68,214.44,269.19,208.59Z" transform="translate(-46.46 -50)"/><path class="cls-6" d="M192.53,466.08c.93,9.81,2.79,23,6.6,23a3.43,3.43,0,0,0,1.93-.83c6.08-4.31,10.1-9.84,16.1-14,6.29-4.38,13.75-7.19,21.13-9.41a213.18,213.18,0,0,1,33.84-7.55c12.43-1.68,37-2.07,37-2.07,6.87-2,13.27-5.2,19.72-8.22,11.08-5.2,22.45-10,32.64-16.61,3.27-2.13,12.24-8.36,8.28-12.58-3-3.19-12.07-4.51-16.29-6.19-13.74-5.49-26-13.6-34.87-25.68-12.1-16.55-20.81-38.16-27.46-57.5-1.23-3.58-2.37-7.19-3.46-10.82-.62-2.06-1.55-10-3.24-11.15-17.15-11.56-23.1-22.75-41.62-17.62-42.26,11.71-39,13.26-46.11,35.47-2.87,8.93-5.43,32.32-5.84,41.61-.49,11.25-.87,41.34-.86,52.6,0,12.56.49,25.12,1.74,37.62C191.85,457.52,192.09,461.42,192.53,466.08Z" transform="translate(-46.46 -50)"/><path class="cls-7" d="M273.59,271.22,285,285.36a8.37,8.37,0,0,1-3.28,13l-56.77,23.86A8.37,8.37,0,0,1,214.64,319l-1.38-2.13a8.37,8.37,0,0,1,1.93-11.2L262,269.82A8.37,8.37,0,0,1,273.59,271.22Z" transform="translate(-46.46 -50)"/><path class="cls-8" d="M273.59,271.22,285,285.36a8.37,8.37,0,0,1-3.28,13l-56.77,23.86A8.37,8.37,0,0,1,214.64,319l-1.38-2.13a8.37,8.37,0,0,1,1.93-11.2L262,269.82A8.37,8.37,0,0,1,273.59,271.22Z" transform="translate(-46.46 -50)"/><path class="cls-7" d="M227.72,279.85l13.08,1.34a8.31,8.31,0,0,1,2.78.79l26.56,12.89a8.31,8.31,0,0,1,4.44,5.5L301,408a8.31,8.31,0,0,1-7.46,10.26l-32.58,2.39a8.31,8.31,0,0,1-8.87-7.41l-9.76-92.49a8.31,8.31,0,0,0-5.57-7L213.76,306a8.31,8.31,0,0,1-2.36-1.26h0a8.31,8.31,0,0,1-.7-12.6l10.42-10A8.31,8.31,0,0,1,227.72,279.85Z" transform="translate(-46.46 -50)"/><path class="cls-9" d="M746.64,146c-36.65-39.78-94.89-48.93-140-23.64a2.81,2.81,0,0,1-.26.11c-13.51,9.28-23.28,23.39-24.45,42.27-.26,4.15-6.4,3.86-6.14-.32,1.26-20.24,11.21-35.57,25.22-45.9-30.56-53-92-81.11-147.92-63.09-55,17.73-89.86,73.84-86.93,134.51a74.06,74.06,0,0,1,15,1.73c19.88,4.41,37.25,16,51.34,31.53,2.79,3.07-1.61,7.47-4.38,4.42A104.92,104.92,0,0,0,413,213.83c-20.33-15-45.67-20.87-69.32-14.06-23.89,6.88-46.68,26.79-58.49,49.44a112.15,112.15,0,0,0-7.26,86.19c9.26,28.21,29.7,51.71,55.63,63.83,24,11.24,49.31,13,74.57,8,16.56-3.23,33-6.88,49.51-10.54,47.08-10.46,94.05-21.4,141-32.41q30.94-7.25,61.87-14.57c16.94-4,35.1-6.8,51-14.18,51.9-24.13,80.58-87.14,60.93-145.83A121.69,121.69,0,0,0,746.64,146Z" transform="translate(-46.46 -50)"/><path class="cls-8" d="M772.39,190.44q-.5-1.5-1-3c5.32,29.6-2.24,59.69-26,79.63-24.43,20.49-51.61,38.81-80.91,49.52-76.93,28.1-160.71,49.74-240.18,69.74-25.36,6.41-49.54,10.62-80.89,16.12-.26,0-.38.37-.57.58,18.13,6.47,37.05,8.24,56.23,6.39q4.54-.59,9.09-1.48c16.56-3.23,33-6.88,49.51-10.54,46.21-10.27,92.31-21,138.39-31.8l17.33-4.12q32-7.62,64-15.29c6.23-1.5,12.62-2.86,19-4.31a113.61,113.61,0,0,0,15.09-5.64C763.36,312.14,792,249.13,772.39,190.44Z" transform="translate(-46.46 -50)"/><path class="cls-10" d="M896.52,670.29a9.52,9.52,0,0,1,4-1.24c2.87-.47,5.74-1,8.61-1.45,3.16-.53,6.34-1.05,9.53-1.44l.64-1.88.38-1.11a4.13,4.13,0,0,0-4.55-5.56l-10,2a4.15,4.15,0,0,0-1.24.46L897,664a4.67,4.67,0,0,0-1.17,1.92,4.8,4.8,0,0,0,.17,3.21Z" transform="translate(-46.46 -50)"/><polygon class="cls-11" points="870.36 369.6 872.76 393.53 851.22 475.7 871.01 607.79 856.34 612.83 817.79 483.85 811.69 446.33 811.99 366.92 870.36 369.6"/><polygon class="cls-11" points="757.51 396.15 788.15 617.5 802.17 617.51 804.84 475.65 830.46 376.11 757.51 396.15"/><path class="cls-10" d="M848,672.05v3.23a2.28,2.28,0,0,1-.37,1.24L843,674l-14.82,3.27a2.28,2.28,0,0,1-.71-3.66L835,667l13-1a3.81,3.81,0,0,0-.67,2.68,3.63,3.63,0,0,0,.67,1.61Z" transform="translate(-46.46 -50)"/><path class="cls-6" d="M839.05,284.33c10.59-8.75,36.08-3.69,49.5-3.67,2.77,29.44,8.13,58.85,14.71,87.65,5.68,24.89,16.54,49.15,21.36,74,4.3,22.16,13.69,38.1,31.37,53.3,2.75,2.37,5.93,5.44,5.1,9-.5,2.13-2.35,3.65-4.16,4.88-17.85,12.22-40.79,13.47-62.42,13.82q-24.64.39-49.28-.08c-21.4-.41-45.2-2.95-63.44-15.34-1.15-.78-2.38-1.79-2.47-3.18a5.27,5.27,0,0,1,1.43-3.2c12.76-17.6,11.32-46.72,13.82-67.34,2.83-23.27,5.66-46.6,11.24-69.36a294.72,294.72,0,0,1,14.24-43.28c4.45-10.68,9.77-28.18,18.13-36.4Q838.6,284.7,839.05,284.33Z" transform="translate(-46.46 -50)"/><path class="cls-12" d="M827.09,188.47a55.9,55.9,0,0,0-25.85-22.83c-7.33-3.2-15-4-22.37-4.74l-21.5-2.21a60.86,60.86,0,0,0-27.46,3,55,55,0,0,0-27.1,22,56.1,56.1,0,0,0-8.39,24.56L682.74,322l17.09,1.76,11.75-114.22a35.56,35.56,0,0,1,3.19-11.88,41.89,41.89,0,0,1,7.49-10.94,36.76,36.76,0,0,1,11.61-8,37.5,37.5,0,0,1,14-3.33c.23,0,1,0,2.82,0,.77,0,1.6.09,2.61.19l30.1,3.1a35.9,35.9,0,0,1,12,3.2,41.88,41.88,0,0,1,10.94,7.5,36.76,36.76,0,0,1,8,11.61,37.5,37.5,0,0,1,3.33,14c0,.23,0,1,0,2.82,0,.77-.09,1.59-.19,2.58L805.76,334.61l17.09,1.76L834.6,222.15A54.57,54.57,0,0,0,827.09,188.47Z" transform="translate(-46.46 -50)"/><path class="cls-8" d="M827.09,188.47a55.9,55.9,0,0,0-25.85-22.83c-7.33-3.2-15-4-22.37-4.74l-21.5-2.21a60.86,60.86,0,0,0-27.46,3,55,55,0,0,0-27.1,22,56.1,56.1,0,0,0-8.39,24.56L682.74,322l17.09,1.76,11.75-114.22a35.56,35.56,0,0,1,3.19-11.88,41.89,41.89,0,0,1,7.49-10.94,36.76,36.76,0,0,1,11.61-8,37.5,37.5,0,0,1,14-3.33c.23,0,1,0,2.82,0,.77,0,1.6.09,2.61.19l30.1,3.1a35.9,35.9,0,0,1,12,3.2,41.88,41.88,0,0,1,10.94,7.5,36.76,36.76,0,0,1,8,11.61,37.5,37.5,0,0,1,3.33,14c0,.23,0,1,0,2.82,0,.77-.09,1.59-.19,2.58L805.76,334.61l17.09,1.76L834.6,222.15A54.57,54.57,0,0,0,827.09,188.47Z" transform="translate(-46.46 -50)"/><path class="cls-7" d="M667.6,277.23,654.86,401.15a30.51,30.51,0,0,0,27.23,33.47l114.08,11.73a30.51,30.51,0,0,0,33.47-27.23L842.38,295.2Zm85,89-3.07,29.84c-.23,2.22-3,3.75-6.18,3.42h-.12c-3.19-.33-5.58-2.39-5.36-4.61L741,365a23.09,23.09,0,1,1,11.65,1.2Z" transform="translate(-46.46 -50)"/><path class="cls-8" d="M677,433.39h0a30.71,30.71,0,0,0,5.07,1l114.08,11.73a30.51,30.51,0,0,0,33.47-27.23l5.79-56.3C816.27,450.15,677.65,433.37,677,433.39Z" transform="translate(-46.46 -50)"/><polygon class="cls-4" points="293.3 229.32 298.05 216.66 304.65 211.72 306.84 213.37 304.64 218.32 313.99 210.63 318.39 215.03 312.88 229.32 301.37 236.77 293.3 229.32"/><polygon class="cls-6" points="159.7 253.6 251.17 274.81 290.12 226.2 306.05 240.71 265.88 304.89 158.21 300.69 150.26 275.33 159.7 253.6"/><polygon class="cls-13" points="847.2 240.71 781.22 286.09 740.68 260.69 731.98 273.73 779.75 315.79 845.7 283.25 847.2 240.71"/><path class="cls-5" d="M870.39,247.46c-8.62,1.25-15.5,4.8-17.49,13.29a19.7,19.7,0,0,1,8.23-31.11,22.81,22.81,0,0,1,9.26,14.55Z" transform="translate(-46.46 -50)"/><path class="cls-4" d="M861.05,286.93c-6.34-3-10.37-9.71-11.52-16.62s.22-14,2.37-20.7c7.13-22.22,35.07-14.75,40.94,4.68C897.94,271.22,879.49,295.62,861.05,286.93Z" transform="translate(-46.46 -50)"/><path class="cls-5" d="M868.66,442.21c-4-3.07-3.56-9.1-4.6-14.06s-7.28-9.9-10.58-6.05c-7-2.89-10.68-11-10.65-18.58s3-14.79,6-21.77c6.52-15.48,12.61-31.21,19.58-46.49,6.58-14.44,9.2-30.34,11.87-45.72,1.33-7.71-.49-15.69-3.72-22.81s-7.83-13.53-12.34-19.92c-1.88-2.66-3.81-5.49-4.08-8.73-.3-3.59,1.56-7.1,4.2-9.54a16.92,16.92,0,0,1,13.91-4.78c18.86,1.89,31.61,14.76,34.66,33.78,2.58,16.08-1.59,32.36-4.61,48.37-4.53,24.07-3,52.73,8.71,74.49,4.78,8.87,10.1,17.83,11.25,27.84s-3.23,21.5-12.69,25c-3.69,1.36-7.89,1.43-11.22,3.53a6.55,6.55,0,0,0-1.77,9.78c-5,6.64-8.91.86-13.93-1.15C882.49,442.91,873.82,446.14,868.66,442.21Z" transform="translate(-46.46 -50)"/><polygon class="cls-4" points="738.73 263.62 735.62 255.62 721.13 252.71 718.95 258.5 729.08 267.2 735.1 269.05 738.73 263.62"/><path class="cls-14" d="M198.14,659.86,199.27,672h14.37l.71-2.71S219,672,222.67,672H234.8c8.88,0,13.92-1.28,14.14-3a5.63,5.63,0,0,0-.29-2.83c-1.24-3.13-5.44-3.16-12.14-4.22-11.93-1.9-13.89-4-14.35-4.91a2.37,2.37,0,0,1-.1-.23c-1.31-3.33,1.58-6.09.94-6.76s-4,2-9.6,4.58c-4.78,2.22-6.53,2.23-7.63,2.07a10.54,10.54,0,0,1-5.84-3.16A21.4,21.4,0,0,0,198.14,659.86Z" transform="translate(-46.46 -50)"/><path class="cls-14" d="M303.83,654.56c-.11,4.24.33,12.2.33,12.2l12.94,2.43,1.51-2.34a22,22,0,0,0,7.73,3.78,48.52,48.52,0,0,0,12.11.49c10.52-1.35,17.61-5.18,17.89-6.79,1.16-6.75-12.82-5.09-15.69-5.17A18.46,18.46,0,0,1,324.75,649c-1.33-3.07-.68-3.82-2.4-3.3a4.27,4.27,0,0,0-2.62,2.14c-1.65,2.84-4.68,4.69-7.89,4a9,9,0,0,1-5-2.57S303.94,650.32,303.83,654.56Z" transform="translate(-46.46 -50)"/><path class="cls-3" d="M889.74,670.08c-.57-1-.69-2.41-.15-2.74a46,46,0,0,1,5-2.7c1.55-.63,4-1.16,3.14-.74s.69,2.13,2.14,2.09c5-.14,8.72-3.2,11.57-3.79,4.12-.86,5.09-5.33,5.29-6.07a19.21,19.21,0,0,1,3.67,5.35c.31,1.07.88,3,.55,4.12a9.08,9.08,0,0,0-.51,3.89,7.92,7.92,0,0,1-3,.93,12.18,12.18,0,0,1-3.17-.05L914,667.9a12.14,12.14,0,0,0-2.54.16,8.42,8.42,0,0,0-3.88,2c-.61.6-1.22,1.55-2,1.85a16.85,16.85,0,0,1-6.41,1.31C893.8,673.31,890.71,671.74,889.74,670.08Z" transform="translate(-46.46 -50)"/><path class="cls-3" d="M821.19,678.2c-.56-1-.67-2.41-.12-2.74a46,46,0,0,1,5-2.66c1.56-.62,4-1.12,3.15-.71s.68,2.14,2.12,2.11c5-.1,8.74-3.13,11.6-3.7,4.12-.82,5.14-5.29,5.33-6a19.22,19.22,0,0,1,3.63,5.38c.31,1.07.85,3,.51,4.12a9.08,9.08,0,0,0-.55,3.89,7.91,7.91,0,0,1-3,.9,12.15,12.15,0,0,1-3.17-.08l-.3-2.48a12.16,12.16,0,0,0-2.54.14,8.42,8.42,0,0,0-3.89,1.92c-.62.59-1.23,1.54-2,1.83a16.85,16.85,0,0,1-6.42,1.26C825.23,681.46,822.14,679.86,821.19,678.2Z" transform="translate(-46.46 -50)"/><circle class="cls-7" cx="702.84" cy="293.39" r="16.39"/><path class="cls-15" d="M742.19,352.51a7.76,7.76,0,0,0,1.51-.68,7.12,7.12,0,0,0,1.76-1.51q5.44-6.4,10.9-12.79a1.6,1.6,0,0,0-.11-2.15c-.65-.59-1.31-1.17-2-1.75a1.59,1.59,0,0,0-2.18.2q-5.4,6.29-10.81,12.59a4.46,4.46,0,0,0-.78,1.36,24.43,24.43,0,0,0-1,3.68c-.15.79.09,1.1.19,1.2C740.17,353.17,741.32,352.8,742.19,352.51Zm10.12-16c.26-.31.52-.61.79-.92a.84.84,0,0,1,.47-.32.94.94,0,0,1,.92.35.8.8,0,0,1,.13,1.12l-.83,1a.8.8,0,0,1-.88.24,1.61,1.61,0,0,1-.48-.35A.8.8,0,0,1,752.3,336.48Zm-10.18,12.1a19.91,19.91,0,0,1,1.82-2.34q3.31-3.9,6.65-7.77a.9.9,0,0,1,.44-.33c.49-.18,1,.23,1.2.62a.79.79,0,0,1-.13.88l-6.39,7.48a13.81,13.81,0,0,1-2.54,2.59.8.8,0,0,1-1-1.12Z" transform="translate(-46.46 -50)"/><path class="cls-15" d="M759.66,351.77a.81.81,0,0,0,0-.25.68.68,0,0,0-.67-.68l-.17,0a.71.71,0,0,0-.33.2h0a12,12,0,0,1-18,.56.16.16,0,0,0-.19,0h0a.16.16,0,0,0-.06.06c-.05.08-.26.64-.39.86a.35.35,0,0,0-.06.18.18.18,0,0,0,0,.16,13.29,13.29,0,0,0,9.41,3.93,15.22,15.22,0,0,0,3.31-.42,15.8,15.8,0,0,0,7-4.42l0,0,0-.06Z" transform="translate(-46.46 -50)"/></g></g></svg>