<svg xmlns="http://www.w3.org/2000/svg" viewBox="0 0 434.26 332.67"><defs><style>.cls-1{isolation:isolate;}.cls-2{fill:#ebf5f7;}.cls-3{fill:#dae4e5;}.cls-10,.cls-11,.cls-19,.cls-23,.cls-29,.cls-30,.cls-35,.cls-36,.cls-37,.cls-38,.cls-39,.cls-4,.cls-40,.cls-42,.cls-6,.cls-7,.cls-8,.cls-9{fill:none;}.cls-4{stroke:#023d5f;stroke-width:2px;}.cls-29,.cls-39,.cls-4,.cls-40,.cls-42{stroke-miterlimit:10;}.cls-5{fill:#2b99ff;}.cls-10,.cls-11,.cls-19,.cls-6,.cls-7,.cls-8{stroke:#767f82;}.cls-10,.cls-11,.cls-19,.cls-23,.cls-30,.cls-35,.cls-36,.cls-37,.cls-38,.cls-6,.cls-7,.cls-8{stroke-linecap:round;stroke-linejoin:round;}.cls-7{stroke-dasharray:3.02 2.52;}.cls-8{stroke-dasharray:3.02 2.52;}.cls-10{stroke-dasharray:2.98 2.48;}.cls-11{stroke-dasharray:3.06 2.55;}.cls-12{fill:#fdd247;}.cls-13{fill:#fcded6;}.cls-14{fill:#71606e;}.cls-14,.cls-24{opacity:0.2;}.cls-14,.cls-24,.cls-31,.cls-34,.cls-49,.cls-50{mix-blend-mode:multiply;}.cls-15{fill:#fc9549;}.cls-16{fill:#fc5e49;}.cls-17{fill:#2085b7;}.cls-18{fill:#167f7f;}.cls-19{stroke-dasharray:3 2.5;}.cls-20{fill:#fff;}.cls-21{fill:#007fdd;}.cls-22{fill:#00b8e5;}.cls-23,.cls-30{stroke:#00ebff;}.cls-25{fill:#ffb839;}.cls-26{fill:#ffad00;}.cls-27{fill:#00ebff;}.cls-28{fill:#dbe2e8;}.cls-29,.cls-35,.cls-36,.cls-37,.cls-38,.cls-42{stroke:#fff;}.cls-30,.cls-35,.cls-36,.cls-37,.cls-38,.cls-39{stroke-width:0.5px;}.cls-31,.cls-34,.cls-56{opacity:0.55;}.cls-32{fill:#ffe1b0;}.cls-32,.cls-57,.cls-60{mix-blend-mode:screen;}.cls-33,.cls-34{fill:#767f82;}.cls-36{stroke-dasharray:2.18 2.73;}.cls-37{stroke-dasharray:1.97 2.47;}.cls-38{stroke-dasharray:1.68 2.1;}.cls-39,.cls-40{stroke:#dbe2e8;}.cls-40,.cls-42{stroke-width:0.25px;}.cls-41{fill:#f39f86;}.cls-43{fill:#023d5f;}.cls-44{fill:#062f44;}.cls-45{fill:#16405a;}.cls-46{fill:#103649;}.cls-47{opacity:0.5;}.cls-48{fill:#3a3a3a;}.cls-49,.cls-51{fill:#ffe7c5;}.cls-52{fill:#ffc25b;}.cls-53{fill:#ffa92c;}.cls-54{fill:#0b0b3a;}.cls-55{fill:#ff703d;}.cls-58{fill:#afd4dd;}.cls-59{fill:#c5e6ef;}.cls-60{fill:#ffb27e;}.cls-61{fill:#db856e;}.cls-62{fill:#ed9c80;}</style></defs><title>braille</title><g class="cls-1"><g id="OBJECTS"><path class="cls-2" d="M411.34,211.82H315c-14.53,0-14.72-18-1.81-21.65a25.28,25.28,0,0,1,22.69,4.8s3.5-44.31,36.68-39.11c26.16,4.1,24.64,32.59,24.64,32.59s5.38-11.72,19.49-7.29C431.36,185.78,429.76,211.82,411.34,211.82Z" transform="translate(-31.84 -96.47)"/><ellipse class="cls-3" cx="207.76" cy="252.47" rx="124.53" ry="16.02"/><ellipse class="cls-3" cx="332.17" cy="261.54" rx="91.38" ry="19.92"/><path class="cls-2" d="M126.1,281.6H41.66c-12.73,0-12.89-14.48-1.59-17.39A23.56,23.56,0,0,1,60,268.06S63,232.47,92.09,236.65c22.92,3.29,21.58,26.17,21.58,26.17s4.72-9.41,17.08-5.85C143.65,260.69,142.25,281.6,126.1,281.6Z" transform="translate(-31.84 -96.47)"/><path class="cls-2" d="M145.15,132.92h68c10.25,0,10.38-11.65,1.28-14a19,19,0,0,0-16,3.1s-2.47-28.64-25.87-25.28c-18.45,2.65-17.37,21.07-17.37,21.07s-3.8-7.58-13.75-4.71C131,116.09,132.16,132.92,145.15,132.92Z" transform="translate(-31.84 -96.47)"/><ellipse class="cls-3" cx="84.81" cy="246.75" rx="40.65" ry="5.72"/><line class="cls-4" x1="59.55" y1="247.17" x2="72.35" y2="113.23"/><line class="cls-4" x1="110.59" y1="247.17" x2="97.78" y2="113.23"/><line class="cls-4" x1="71.33" y1="123.91" x2="98.8" y2="123.91"/><line class="cls-4" x1="69.8" y1="139.99" x2="100.34" y2="139.99"/><line class="cls-4" x1="68.26" y1="156.06" x2="101.88" y2="156.06"/><line class="cls-4" x1="66.72" y1="172.14" x2="103.41" y2="172.14"/><line class="cls-4" x1="65.19" y1="188.21" x2="104.89" y2="188.21"/><line class="cls-4" x1="63.65" y1="204.29" x2="106.44" y2="204.29"/><line class="cls-4" x1="62.11" y1="220.36" x2="108.01" y2="220.36"/><line class="cls-4" x1="60.58" y1="236.43" x2="109.05" y2="236.43"/><path class="cls-5" d="M131.29,210.51H102.53a1.66,1.66,0,0,1-1.66-1.66h0a1.66,1.66,0,0,1,1.66-1.66h28.76a1.66,1.66,0,0,1,1.66,1.66h0A1.66,1.66,0,0,1,131.29,210.51Z" transform="translate(-31.84 -96.47)"/><line class="cls-6" x1="196.95" y1="245.53" x2="196.95" y2="247.03"/><path class="cls-7" d="M228.79,346v4.19A14.74,14.74,0,0,1,214.05,365H188.87a8.8,8.8,0,0,1-8.8-8.8v-9.89" transform="translate(-31.84 -96.47)"/><line class="cls-6" x1="148.23" y1="248.53" x2="148.23" y2="247.03"/><line class="cls-6" x1="108.96" y1="248.66" x2="108.96" y2="250.16"/><path class="cls-8" d="M140.8,349.15v12.42A17.18,17.18,0,0,0,158,378.75h54.44a25.52,25.52,0,0,0,25.52-25.52V333.18" transform="translate(-31.84 -96.47)"/><line class="cls-6" x1="206.09" y1="235.44" x2="206.09" y2="233.94"/><path class="cls-9" d="M179.14,378.75" transform="translate(-31.84 -96.47)"/><line class="cls-6" x1="122.29" y1="248.66" x2="122.29" y2="250.16"/><path class="cls-10" d="M154.13,349.12v12.46a17.18,17.18,0,0,0,17.18,17.18h19.45" transform="translate(-31.84 -96.47)"/><line class="cls-6" x1="160.15" y1="282.28" x2="161.65" y2="282.28"/><line class="cls-6" x1="135.14" y1="248.66" x2="135.14" y2="250.16"/><path class="cls-11" d="M167,349.18v12.39a17.18,17.18,0,0,0,17.18,17.18h21.12" transform="translate(-31.84 -96.47)"/><line class="cls-6" x1="174.71" y1="282.28" x2="176.21" y2="282.28"/><polygon class="cls-12" points="113.65 196.78 113.65 255.11 104.27 255.13 104.07 196.79 113.65 196.78"/><polygon class="cls-13" points="108.75 184.11 109.7 185.46 113.65 196.78 104.08 196.79 107.83 185.42 108.75 184.11"/><polygon class="cls-12" points="108.75 184.11 109.7 185.46 109.2 185.78 108.75 185.42 108.26 185.91 107.83 185.42 108.75 184.11"/><polygon class="cls-13" points="104.08 196.79 105.45 197.82 106.42 196.79 104.08 196.79"/><polygon class="cls-13" points="106.42 196.79 107.79 197.82 108.77 196.79 106.42 196.79"/><polygon class="cls-13" points="108.77 196.79 110.14 197.82 111.11 196.78 108.77 196.79"/><polygon class="cls-13" points="111.11 196.78 112.48 197.81 113.65 196.78 111.11 196.78"/><polygon class="cls-14" points="108.75 184.1 109.7 185.46 113.65 196.78 113.65 255.11 110.61 255.11 110.41 196.78 107.39 186.77 107.83 185.42 108.75 184.1"/><rect class="cls-12" x="104.27" y="254.48" width="9.39" height="1.72"/><polygon class="cls-15" points="126.81 196.78 126.81 255.11 117.42 255.13 117.22 196.79 126.81 196.78"/><polygon class="cls-13" points="121.9 184.11 122.86 185.46 126.81 196.78 117.23 196.79 120.98 185.42 121.9 184.11"/><polygon class="cls-15" points="121.9 184.11 122.86 185.46 122.35 185.78 121.9 185.42 121.42 185.91 120.98 185.42 121.9 184.11"/><polygon class="cls-13" points="117.23 196.79 118.6 197.82 119.58 196.79 117.23 196.79"/><polygon class="cls-13" points="119.58 196.79 120.95 197.82 121.92 196.79 119.58 196.79"/><polygon class="cls-13" points="121.92 196.79 123.29 197.82 124.26 196.78 121.92 196.79"/><polygon class="cls-13" points="124.26 196.78 125.64 197.81 126.81 196.78 124.26 196.78"/><polygon class="cls-14" points="121.9 184.1 122.86 185.46 126.81 196.78 126.81 255.11 123.77 255.11 123.57 196.78 120.54 186.77 120.98 185.42 121.9 184.1"/><rect class="cls-15" x="117.42" y="254.48" width="9.39" height="1.72"/><polygon class="cls-16" points="139.96 196.78 139.96 255.11 130.58 255.13 130.38 196.79 139.96 196.78"/><polygon class="cls-13" points="135.06 184.11 136.01 185.46 139.96 196.78 130.38 196.79 134.14 185.42 135.06 184.11"/><polygon class="cls-16" points="135.06 184.11 136.01 185.46 135.51 185.78 135.06 185.42 134.57 185.91 134.14 185.42 135.06 184.11"/><polygon class="cls-13" points="130.38 196.79 131.76 197.82 132.73 196.79 130.38 196.79"/><polygon class="cls-13" points="132.73 196.79 134.1 197.82 135.07 196.79 132.73 196.79"/><polygon class="cls-13" points="135.07 196.79 136.45 197.82 137.42 196.78 135.07 196.79"/><polygon class="cls-13" points="137.42 196.78 138.79 197.81 139.96 196.78 137.42 196.78"/><polygon class="cls-14" points="135.06 184.1 136.01 185.46 139.96 196.78 139.96 255.11 136.92 255.11 136.72 196.78 133.69 186.77 134.14 185.42 135.06 184.1"/><rect class="cls-16" x="130.57" y="254.48" width="9.39" height="1.72"/><polygon class="cls-5" points="153.12 196.78 153.12 255.11 143.73 255.13 143.53 196.79 153.12 196.78"/><polygon class="cls-13" points="148.21 184.11 149.16 185.46 153.12 196.78 143.54 196.79 147.29 185.42 148.21 184.11"/><polygon class="cls-17" points="148.21 184.11 149.16 185.46 148.66 185.78 148.21 185.42 147.73 185.91 147.29 185.42 148.21 184.11"/><polygon class="cls-13" points="143.54 196.79 144.91 197.82 145.88 196.79 143.54 196.79"/><polygon class="cls-13" points="145.88 196.79 147.26 197.82 148.23 196.79 145.88 196.79"/><polygon class="cls-13" points="148.23 196.79 149.6 197.82 150.57 196.78 148.23 196.79"/><polygon class="cls-13" points="150.57 196.78 151.95 197.81 153.12 196.78 150.57 196.78"/><polygon class="cls-14" points="148.21 184.1 149.16 185.46 153.12 196.78 153.12 255.11 150.07 255.11 149.88 196.78 146.85 186.77 147.29 185.42 148.21 184.1"/><rect class="cls-18" x="143.73" y="254.48" width="9.39" height="1.72"/><path class="cls-19" d="M400.84,371.23h59.35a5.41,5.41,0,0,1,5.41,5.41h0a5.41,5.41,0,0,1-5.41,5.41H273.36a17.77,17.77,0,0,1-17.77-17.77V343.22" transform="translate(-31.84 -96.47)"/><path class="cls-19" d="M244.23,345.89v35.87a18,18,0,0,1-18,18h-6.32" transform="translate(-31.84 -96.47)"/><path class="cls-19" d="M267.6,335.41v14.84A10.77,10.77,0,0,0,278.37,361h65" transform="translate(-31.84 -96.47)"/><path class="cls-12" d="M316.09,146.15c-15.41-19.08-38.33-32.62-63.34-33.05-14.47-.25-29.71,1.66-42.62,8.56a96.35,96.35,0,0,0-29.25,24.5c-13.81,17.09-21.76,39.39-19.37,61.23,2,18.24,11,35,22.92,48.66C196,269.39,213,280.41,215.88,299.28c.83,5.39-1.16,12.83,3,17.14,4.89,5.13,12.83,3.34,19.09,3.29q11.17-.09,22.33-.14c5.34,0,13.87,1.45,17.9-3.15,4.11-4.31,2.12-11.75,3-17.14,2.19-14.21,13.26-25.72,23.46-35,11.71-10.62,21-22.84,26.21-37.92C340.45,198.45,334.53,169,316.09,146.15Z" transform="translate(-31.84 -96.47)"/><path class="cls-20" d="M243.87,336c-.05-9.21-.55-18.43-.88-27.63-.55-15.36-1.27-30.75-2.67-46.06-.82-9-2.07-17.95-5.24-26.49-2.1-5.66-5.71-13.07-12.19-14.67a8.86,8.86,0,0,0-10.79,7c-1.09,7,5.6,13.32,11.64,15.46,7.11,2.52,17.08,1.08,23.17-3.36,6.41-4.67,10-12.52,11.07-20.22.84-6,.68-12.83-5.93-15.31-5.64-2.11-10,2.55-10.48,7.94-.54,5.79,1.09,12.07,3.38,17.34s6.08,10.94,12,12.15c8.35,1.69,17.49-3,23.12-8.89,4.08-4.24,10.81-13.39,5.2-19-2.58-2.58-6.7-2.75-9.87-1.32-4.14,1.87-7.07,6-9.41,9.69-5.22,8.33-7.64,18.09-8.48,27.81-1,11.42-1.13,23-1.51,34.42-.37,11.16-.64,22.33-.92,33.5-.14,5.72-.16,11.43-.23,17.15a.77.77,0,0,0,1.55,0c1-19.11,1.39-38.24,2.1-57.36.35-9.49.46-19.08,1.37-28.53.86-8.9,3.18-17.8,7.9-25.47,2.26-3.67,5.42-8.43,9.86-9.59,4.7-1.23,8.13,2.31,7.11,6.89-1.56,7-8.51,13.37-14.74,16.31-6.48,3.06-14.07,3.77-19-2-3.62-4.21-5.59-9.88-6.63-15.27-.79-4.08-1.85-11.26,2.79-13.62,2.38-1.21,5.27.07,7,1.83,2.13,2.16,2,5.16,1.92,8-.31,7.41-3.17,15.22-8.7,20.32s-14.52,6.65-21.62,4.91c-5.68-1.39-14.15-8.39-11-15.11,2.17-4.7,7.78-4.58,11.3-1.69,6.08,5,8.34,14.16,10,21.46a141.87,141.87,0,0,1,2.56,19.84c1.86,22.65,2.57,45.36,4.17,68l.11,1.51a.52.52,0,0,0,1,0Z" transform="translate(-31.84 -96.47)"/><rect class="cls-21" x="190.92" y="222.96" width="50.46" height="4.98"/><path class="cls-22" d="M276.13,341.63a2.94,2.94,0,0,1,.09-3.74l.31-.33a2.94,2.94,0,0,0,.13-3.7l-.51-.64a2.92,2.92,0,0,1,.23-3.8,2.93,2.93,0,0,0,.27-3.75l-1.35-1.8a2.61,2.61,0,0,0-2.09-1H223.08a2.61,2.61,0,0,0-2.09,1l-1.35,1.8a2.93,2.93,0,0,0,.27,3.75,2.92,2.92,0,0,1,.23,3.8l-.51.64a2.94,2.94,0,0,0,.13,3.7l.31.33a2.94,2.94,0,0,1,.09,3.74l-.4.48a2.93,2.93,0,0,0,.14,3.8l.21.21a5.4,5.4,0,0,0,3.82,1.66h48.43a5.4,5.4,0,0,0,3.82-1.66l.21-.21a2.93,2.93,0,0,0,.14-3.8Z" transform="translate(-31.84 -96.47)"/><line class="cls-23" x1="218.39" y1="233.1" x2="241.75" y2="233.1"/><line class="cls-23" x1="195.02" y1="233.1" x2="207.97" y2="233.1"/><line class="cls-23" x1="191.63" y1="238.82" x2="225.5" y2="238.82"/><line class="cls-23" x1="231.85" y1="238.82" x2="241.84" y2="238.82"/><line class="cls-23" x1="195.02" y1="244.55" x2="213.14" y2="244.55"/><line class="cls-23" x1="224.99" y1="244.55" x2="232.27" y2="244.55"/><line class="cls-23" x1="211.22" y1="233.1" x2="213.84" y2="233.1"/><g class="cls-24"><path class="cls-25" d="M316.09,146.15c-15.41-19.08-38.33-32.62-63.34-33.05-2.85,0-5.73,0-8.62.13,40,2.45,74.72,37.25,73.41,79.12-1.1,35.2-18.29,60.3-53.83,75.69-7.44,3.22-12.77,8.13-14,16.66-1.09,7.88,1.39,15.85-.24,23.7a6.63,6.63,0,0,1-1.46,3.28,7.21,7.21,0,0,1-2.92,1.63A52.56,52.56,0,0,1,217.8,315a8.07,8.07,0,0,0,1,1.37c4.89,5.13,12.83,3.34,19.09,3.29q11.17-.09,22.33-.14c5.34,0,13.87,1.45,17.9-3.15,4.11-4.31,2.12-11.75,3-17.14,2.19-14.21,13.26-25.72,23.46-35,11.71-10.62,21-22.84,26.21-37.92C340.45,198.45,334.53,169,316.09,146.15Z" transform="translate(-31.84 -96.47)"/></g><path class="cls-26" d="M455.39,352.6s-7.77-5.51-14.05-6.41c-12.35-1.76-19.4,3.13-26.07-.62-2.76-1.55,4.09-2.61,4.82-4.34a23.31,23.31,0,0,0,0-2.65,4.29,4.29,0,0,1-3.26.12c-12.5-4.51-23.12-4.08-41.27-4.08-40.6,0-74.11,7.31-79,16.75h-.63v2.52h0c.24,10.54,35.81,19.06,79.66,19.06,42.33,0,79.36-8.13,79.79-18ZM403,353.75c-5.74,0-10.4-1.68-10.4-3.74s4.66-3.74,10.4-3.74,10.4,1.68,10.4,3.74S408.71,353.75,403,353.75Z" transform="translate(-31.84 -96.47)"/><path class="cls-12" d="M455.27,351.58c-1.05-4.21-7.64-6.71-13.92-7.6-12.35-1.76-19.4,3.13-26.07-.62-3.89-2.18,11.26-3.38,1.6-6.87-12.5-4.51-23.12-4.08-41.27-4.08-44,0-79.67,8.58-79.67,19.17s35.67,19.17,79.67,19.17S457.87,362,455.27,351.58Zm-52.3,0c-5.74,0-10.4-1.68-10.4-3.74S397.23,344,403,344s10.4,1.68,10.4,3.74S408.71,351.53,403,351.53Z" transform="translate(-31.84 -96.47)"/><path class="cls-15" d="M339.88,353.65a4.69,4.69,0,0,0-1.32-1.44,14.18,14.18,0,0,0-4-2.21.73.73,0,0,0,.26-1,1.58,1.58,0,0,0-.85-.68,10.83,10.83,0,0,0-4.92-.49,74,74,0,0,0-9.95,1c-1.53.3-3.24.85-3.9,2.36a3,3,0,0,0-.17,1.91,4.51,4.51,0,0,1-1.22.36c-.41.13-.82.53-.7,1a1,1,0,0,0,.29.42c3.07,3.11,7.55,3.83,11.61,3.85a42.69,42.69,0,0,0,13.17-1.89A2.85,2.85,0,0,0,340,355.6,2.19,2.19,0,0,0,339.88,353.65Z" transform="translate(-31.84 -96.47)"/><path class="cls-16" d="M370.51,343.14a4.7,4.7,0,0,0-1.32-1.44,14.19,14.19,0,0,0-4-2.21.73.73,0,0,0,.26-1,1.58,1.58,0,0,0-.85-.68,10.83,10.83,0,0,0-4.92-.49,74,74,0,0,0-9.95,1c-1.53.3-3.24.85-3.9,2.36a3,3,0,0,0-.17,1.91,4.52,4.52,0,0,1-1.22.36c-.41.13-.82.53-.7,1a1,1,0,0,0,.29.42c3.07,3.11,7.55,3.83,11.61,3.85a42.69,42.69,0,0,0,13.17-1.89,2.85,2.85,0,0,0,1.82-1.24A2.19,2.19,0,0,0,370.51,343.14Z" transform="translate(-31.84 -96.47)"/><path class="cls-27" d="M425.91,358.7a4,4,0,0,0-1.13-1.23,12.15,12.15,0,0,0-3.43-1.89.63.63,0,0,0,.22-.84,1.35,1.35,0,0,0-.72-.58,9.27,9.27,0,0,0-4.21-.42,63.3,63.3,0,0,0-8.52.86c-1.31.25-2.77.73-3.34,2a2.59,2.59,0,0,0-.14,1.63,3.87,3.87,0,0,1-1,.31c-.35.11-.7.46-.6.83a.87.87,0,0,0,.24.36c2.63,2.66,6.46,3.28,9.94,3.3a36.54,36.54,0,0,0,11.27-1.62,2.44,2.44,0,0,0,1.56-1.06A1.88,1.88,0,0,0,425.91,358.7Z" transform="translate(-31.84 -96.47)"/><path class="cls-20" d="M383.35,360.06a4.69,4.69,0,0,0-1.32-1.44,14.19,14.19,0,0,0-4-2.21.73.73,0,0,0,.26-1,1.58,1.58,0,0,0-.85-.68,10.83,10.83,0,0,0-4.92-.49,73.93,73.93,0,0,0-9.95,1c-1.53.3-3.24.85-3.9,2.36a3,3,0,0,0-.17,1.91,4.52,4.52,0,0,1-1.22.36c-.41.13-.82.53-.7,1a1,1,0,0,0,.29.42c3.07,3.11,7.55,3.83,11.61,3.85a42.68,42.68,0,0,0,13.17-1.89,2.85,2.85,0,0,0,1.82-1.24A2.19,2.19,0,0,0,383.35,360.06Z" transform="translate(-31.84 -96.47)"/><ellipse class="cls-3" cx="76.39" cy="308.79" rx="32.41" ry="3.81"/><path class="cls-28" d="M73.39,391.71c-3.21-6.31-4.07-13.94-1.23-20.57a25.25,25.25,0,0,1,7.28-10.21,27.79,27.79,0,0,1,9.9-4.81,24.41,24.41,0,0,1,18.4,2.12A26.09,26.09,0,0,1,117.84,370c2.15,4.63,3.05,10.39,7.67,13.38,1.32.85,3.51,1.21,4.16,2.8.77,1.89-.63,3.77-1.38,5.41l-2.67,5.86c-.64,1.4-1.25,3.82-2.94,4.34s-3.34-.83-4.86-1.24c-4-1.1-8.33.46-12,2.05A26.4,26.4,0,0,1,92.77,405,23.93,23.93,0,0,1,73.39,391.71Z" transform="translate(-31.84 -96.47)"/><path class="cls-29" d="M128.65,393.47s-12.89-6.36-19-9.84a28,28,0,0,1-5.57-3.84c-1.44-1.29-4.37-4.32-2.49-6.33,2.21-2.37,4.82,1.5,4.8,3.65a8.2,8.2,0,0,1-3,5.43c-2.59,1.83-6.56,1.37-9-.16a2.06,2.06,0,0,1,1.27-3.79c2,.13,7.62,4.34,6.33,7.72a7.65,7.65,0,0,1-3.84,4c-3.08,1.5-7.08-2.4-2.75-3.79,3.08-1,7,.08,9.9,1.2,7.9,3.07,14,5.69,21.86,8.91" transform="translate(-31.84 -96.47)"/><rect class="cls-21" x="120.41" y="393.78" width="14.55" height="1.44" transform="translate(508.08 342.74) rotate(114.12)"/><path class="cls-22" d="M129.56,404.23a.85.85,0,0,0-1-.42l-.12,0a.85.85,0,0,1-1-.4l-.11-.21a.84.84,0,0,0-1-.39.84.84,0,0,1-1-.37l-.31-.57a.75.75,0,0,1,0-.67l5.91-13.2a.75.75,0,0,1,.52-.43l.63-.14a.84.84,0,0,1,1,.51.84.84,0,0,0,1,.51l.23-.06a.85.85,0,0,1,1,.47l.05.12a.85.85,0,0,0,1,.47l.17,0a.84.84,0,0,1,1,.49l0,.08a1.56,1.56,0,0,1,0,1.2L131.62,404a1.56,1.56,0,0,1-.89.81l-.08,0a.85.85,0,0,1-1-.41Z" transform="translate(-31.84 -96.47)"/><line class="cls-30" x1="97.59" y1="299.52" x2="94.84" y2="305.67"/><line class="cls-30" x1="100.35" y1="293.37" x2="98.82" y2="296.78"/><line class="cls-30" x1="102.25" y1="293.16" x2="98.26" y2="302.07"/><line class="cls-30" x1="97.51" y1="303.74" x2="96.33" y2="306.37"/><line class="cls-30" x1="103.36" y1="294.72" x2="101.22" y2="299.49"/><line class="cls-30" x1="99.83" y1="302.61" x2="98.97" y2="304.53"/><line class="cls-30" x1="98.44" y1="297.64" x2="98.13" y2="298.33"/><g class="cls-31"><path class="cls-28" d="M73.39,391.71c-3.21-6.31-4.07-13.94-1.23-20.57.32-.76.67-1.51,1.05-2.25-4.08,10.83,1,24.06,12.17,28.65,9.4,3.86,18,2.29,26.27-5.25,1.72-1.58,3.65-2.4,6-1.71,2.2.64,4,2.24,6.27,2.73a1.91,1.91,0,0,0,1,0,2.08,2.08,0,0,0,.77-.57,15.16,15.16,0,0,0,3.68-7,2.31,2.31,0,0,1,.24.43c.77,1.89-.63,3.77-1.38,5.41l-2.67,5.86c-.64,1.4-1.25,3.82-2.94,4.34s-3.34-.83-4.86-1.24c-4-1.1-8.33.46-12,2.05A26.4,26.4,0,0,1,92.77,405,23.93,23.93,0,0,1,73.39,391.71Z" transform="translate(-31.84 -96.47)"/></g><ellipse class="cls-3" cx="323.17" cy="301.21" rx="25.45" ry="2.99"/><path class="cls-28" d="M381,388.83a18.2,18.2,0,0,0,1.23-15.24,18.73,18.73,0,0,0-5.24-7.68,20.62,20.62,0,0,0-7.27-3.72A18.11,18.11,0,0,0,356,363.48a19.36,19.36,0,0,0-7.67,8.58c-1.66,3.4-2.42,7.66-5.9,9.8-1,.61-2.62.84-3.13,2-.6,1.39.41,2.81.94,4l1.89,4.39c.45,1,.87,2.85,2.11,3.26s2.49-.56,3.62-.85c3-.75,6.17.47,8.85,1.71a19.59,19.59,0,0,0,9.66,2A17.75,17.75,0,0,0,381,388.83Z" transform="translate(-31.84 -96.47)"/><path class="cls-29" d="M340,389.3s9.65-4.52,14.27-7a20.71,20.71,0,0,0,4.21-2.78c2.81-2.41,2.59-4.27,1.42-5-1.47-.87-3.09.77-3.11,3a6.08,6.08,0,0,0,2.15,4.07c1.89,1.4,4.85,1.11,6.7,0,.93-.55,1.23-2.93-.89-2.83-1.48.07-5.72,3.1-4.81,5.63a5.67,5.67,0,0,0,2.79,3,6,6,0,0,0,3.82.48c2.17-.65-.15-2.82-1.32-3.15a12.75,12.75,0,0,0-7.76.63c-5.91,2.16-10.48,4-16.35,6.27" transform="translate(-31.84 -96.47)"/><rect class="cls-21" x="335.3" y="389.54" width="10.8" height="1.07" transform="translate(535.23 -172.22) rotate(67.05)"/><path class="cls-22" d="M339.16,397.27a.63.63,0,0,1,.74-.29l.09,0a.63.63,0,0,0,.74-.28l.08-.15a.63.63,0,0,1,.77-.27.63.63,0,0,0,.76-.26l.24-.42a.56.56,0,0,0,0-.5l-4.18-9.88a.56.56,0,0,0-.38-.32l-.47-.12a.63.63,0,0,0-.72.37.63.63,0,0,1-.73.36l-.17,0a.63.63,0,0,0-.72.33l0,.09a.63.63,0,0,1-.73.33l-.13,0a.63.63,0,0,0-.74.34l0,.06a1.15,1.15,0,0,0,0,.89l4,9.54a1.15,1.15,0,0,0,.65.61l.06,0a.63.63,0,0,0,.76-.29Z" transform="translate(-31.84 -96.47)"/><line class="cls-30" x1="307.53" y1="294.69" x2="309.48" y2="299.29"/><line class="cls-30" x1="305.58" y1="290.08" x2="306.66" y2="292.63"/><line class="cls-30" x1="304.17" y1="289.89" x2="307" y2="296.56"/><line class="cls-30" x1="307.53" y1="297.82" x2="308.36" y2="299.78"/><line class="cls-30" x1="303.33" y1="291.04" x2="304.84" y2="294.61"/><line class="cls-30" x1="305.83" y1="296.94" x2="306.44" y2="298.38"/><line class="cls-30" x1="306.94" y1="293.27" x2="307.15" y2="293.79"/><g class="cls-31"><path class="cls-28" d="M381,388.83a18.2,18.2,0,0,0,1.23-15.24c-.23-.57-.48-1.13-.74-1.69,2.86,8.09-1.11,17.83-9.46,21.06-7,2.72-13.41,1.43-19.4-4.29a4.44,4.44,0,0,0-4.45-1.36c-1.64.44-3,1.6-4.69,1.93a1.42,1.42,0,0,1-.77,0,1.54,1.54,0,0,1-.57-.44,11.25,11.25,0,0,1-2.62-5.24,1.73,1.73,0,0,0-.18.32c-.6,1.39.41,2.81.94,4l1.89,4.39c.45,1,.87,2.85,2.11,3.26s2.49-.56,3.62-.85c3-.75,6.17.47,8.85,1.71a19.59,19.59,0,0,0,9.66,2A17.75,17.75,0,0,0,381,388.83Z" transform="translate(-31.84 -96.47)"/></g><path class="cls-32" d="M176.46,211.59a5.06,5.06,0,0,1-5.06-5c-.18-23.75,7.15-36.89,15.11-47.55a5.06,5.06,0,1,1,8.11,6.05c-6.43,8.61-13.27,19.62-13.1,41.42a5.06,5.06,0,0,1-5,5.1Z" transform="translate(-31.84 -96.47)"/><path class="cls-32" d="M206.93,149.88a5.06,5.06,0,0,1-4-8.21,20,20,0,0,1,5.09-4.64,5.06,5.06,0,0,1,5.2,8.68,11.11,11.11,0,0,0-2.37,2.27A5.05,5.05,0,0,1,206.93,149.88Z" transform="translate(-31.84 -96.47)"/><ellipse class="cls-3" cx="161.85" cy="326.53" rx="33.76" ry="6.15"/><path class="cls-33" d="M216,408.83H186.49L201.2,404h29.9l-.11.32-14.21,4.36A2.58,2.58,0,0,1,216,408.83Z" transform="translate(-31.84 -96.47)"/><path class="cls-28" d="M215.58,408.33H186.76L201.2,404h29.23l-14,4.17A2.57,2.57,0,0,1,215.58,408.33Z" transform="translate(-31.84 -96.47)"/><path class="cls-34" d="M213.23,407.6H194.11l9.58-2.85h19.4l-9.32,2.77A1.71,1.71,0,0,1,213.23,407.6Z" transform="translate(-31.84 -96.47)"/><path class="cls-33" d="M231.1,404H201.2L205,387.5a1.41,1.41,0,0,1,1.36-.92h27a1.3,1.3,0,0,1,1.35,1.63Z" transform="translate(-31.84 -96.47)"/><path class="cls-33" d="M230.43,404H201.2L205,387.5a1.41,1.41,0,0,1,1.36-.92h26.28a1.3,1.3,0,0,1,1.35,1.63Z" transform="translate(-31.84 -96.47)"/><path class="cls-28" d="M229.13,403H202.76l3.39-15.38h26.37Z" transform="translate(-31.84 -96.47)"/><polyline class="cls-35" points="194.5 303.54 194.29 304.52 193.29 304.52"/><line class="cls-36" x1="190.56" y1="304.52" x2="177.18" y2="304.52"/><polyline class="cls-35" points="175.81 304.52 174.81 304.52 175.03 303.54"/><path class="cls-37" d="M207.4,397.6l1.76-8H226.4" transform="translate(-31.84 -96.47)"/><polyline class="cls-35" points="195.79 293.15 196.79 293.15 196.58 294.13"/><line class="cls-38" x1="196.13" y1="296.18" x2="194.73" y2="302.52"/><line class="cls-39" x1="162.26" y1="310.35" x2="186.25" y2="310.35"/><line class="cls-40" x1="166.69" y1="309.12" x2="190.67" y2="309.12"/><path class="cls-41" d="M191.62,405.3c1-.83,2.77-1,4.06-1.21a21.18,21.18,0,0,1,3.9-.06c.75,0,.56.91-.09,1a7.53,7.53,0,0,1-2.23,0,3.57,3.57,0,0,1-2,1.3,8,8,0,0,1-2.38.23c-.22,0-.51-.06-.55-.28" transform="translate(-31.84 -96.47)"/><line class="cls-42" x1="191.27" y1="298.9" x2="185.79" y2="293.42"/><circle class="cls-20" cx="223.25" cy="395.51" r="0.27" transform="translate(-246.12 177.23) rotate(-45)"/><circle class="cls-20" cx="221.19" cy="397.38" r="0.27" transform="translate(-248.07 176.4) rotate(-45.01)"/><circle class="cls-20" cx="215.5" cy="391.69" r="0.27" transform="translate(-245.69 170.63) rotate(-45)"/><circle class="cls-20" cx="217.63" cy="389.89" r="0.27" transform="translate(-243.79 171.61) rotate(-45)"/><path class="cls-42" d="M215.5,391.69a4.3,4.3,0,0,1,5.69,5.69" transform="translate(-31.84 -96.47)"/><path class="cls-20" d="M216.76,393.11l3.54-.55-2.73,2.94a.8.8,0,1,0,0,1.14.8.8,0,0,0,0-1.14h0l2.86-2.81s-.42,2.45-.56,3.66a44.53,44.53,0,0,0-4.29,2.62c-.14.1-1.62-1.43-1.56-1.51C215,396.29,216.76,393.11,216.76,393.11Z" transform="translate(-31.84 -96.47)"/><path class="cls-20" d="M212.93,397.33l.59-.59a.28.28,0,0,1,.4,0l2.39,2.39a.28.28,0,0,1,0,.39v0l-.59.59a.28.28,0,0,1-.4,0l-2.39-2.39A.28.28,0,0,1,212.93,397.33Z" transform="translate(-31.84 -96.47)"/><path class="cls-43" d="M169.71,407.38c-.59,2.07-.46,3.74-.85,5.86-.58,3.16-.82,6.79,1.31,9.2a6.22,6.22,0,0,0,5.21,2.43c2,0,3.9-.32,5.86-.37,1.31,0,5.34.32,6.65.37,5.86.23,9.18-1.06,15-1.78A138.07,138.07,0,0,0,218.09,420c15-4.11,9.57-10.16,6.25-11.13-.72-.21-4-1.3-4-1.3L216,408.83H200.62a74.65,74.65,0,0,1-9.15-.94" transform="translate(-31.84 -96.47)"/><path class="cls-41" d="M213.49,399.1a8.8,8.8,0,0,1,.92.62,10.79,10.79,0,0,0,2.09,1l2.1.85a.87.87,0,0,1,.66.85,15.31,15.31,0,0,1,.29,6.82,8.78,8.78,0,0,1-1.23-2.46,2.7,2.7,0,0,0-.58-1.2,3.47,3.47,0,0,0-.67-.42,7.18,7.18,0,0,1-1.86-1.77,1.16,1.16,0,0,1-.3-.55.72.72,0,0,0,0-.23.42.42,0,0,0-.16-.15l-2.59-1.67" transform="translate(-31.84 -96.47)"/><path class="cls-5" d="M172.24,407.38c-1.21-.89-2.52-1.89-3.77-2.94-2.85-2.39-5.39-5-5.71-6.88-.7-4.24-.15-16.84.18-22.79,0-.36,0-.7.05-1,.34-5.62,3.36-8.11,4.87-9,.77,7.31,2.51,23.8,2.65,24.64C170.71,390.48,172.24,407.38,172.24,407.38Z" transform="translate(-31.84 -96.47)"/><path class="cls-21" d="M172.25,407.38c-1.21-.89-2.52-1.89-3.77-2.94-.11-4.65-1.8-3.64-3.74-11.76a54.16,54.16,0,0,1-.55-19.62l4.64.71c.77,7.23,1.61,15,1.71,15.61C170.71,390.48,172.25,407.38,172.25,407.38Z" transform="translate(-31.84 -96.47)"/><path class="cls-41" d="M175.14,361.48a15.71,15.71,0,0,0,.56-5.85c-.44-2.49-1.93-7-1.37-10.32s4.79-6.15,9.26-5.72,5.78,4.72,6.53,7.21a25.65,25.65,0,0,1,.44,8.33,5.76,5.76,0,0,1-2.05,4.1c-.75.43-3.55-.14-4,.4s-.87,3.71-.87,3.71" transform="translate(-31.84 -96.47)"/><path class="cls-5" d="M173,364.14a5.66,5.66,0,0,1,1-2.66c.75-.7,5.72-.7,7.21-.51a22.87,22.87,0,0,1,5.66,2.26c.49.36-.47,2.25-.47,2.25Z" transform="translate(-31.84 -96.47)"/><path class="cls-43" d="M175.32,357.24s6.22.53,7.4,0a4.7,4.7,0,0,0,3-3.79c.16-2.11-.28-2.77.53-3.95s1.52-.78,1.65.34.17,3.14.47,3.29.87-1.22.71-3.38a13.36,13.36,0,0,0-.9-4.57c-.56-1.24-.86-1.17-1.37-1.4a3.86,3.86,0,0,0,2.21-2c1.24-1.94.56-5-2.73-5-5.75,0-11.87,1.15-12,5.41,0,0-2-.31-2.08,3.57s2.42,8.58,2.61,9.79S174.7,357,175.32,357.24Z" transform="translate(-31.84 -96.47)"/><path class="cls-5" d="M192.6,402.9c.23,1.95,1.93,5,.77,5.38a22.2,22.2,0,0,1-4.7-.14h-.17c-2.07-.17-4.42-.4-6.4-.55-7.9-.34-11.94,1.24-12.73.79-.38-.23-.39-.91-.27-1.62a18.4,18.4,0,0,0,.13-5.24c-.2-1.47-.47-3.22-.85-5.22-1.3-6.92-3.86-17.5-4.24-23.86-.61-10,10.07-9,10.07-9,13.59-.85,20,3.07,20.71,8.9.05.41.09.86.12,1.33.35,6-1.49,15.74-2.36,23A36.59,36.59,0,0,0,192.6,402.9Z" transform="translate(-31.84 -96.47)"/><path class="cls-21" d="M192.6,402.9c.23,1.95,1.93,5,.77,5.38a22.2,22.2,0,0,1-4.7-.14c2.1.15,2.49-1.46,2-2.53a15.37,15.37,0,0,1-1.35-6.44c.1-2.89,1.18-9.41,1.83-15.58a50.16,50.16,0,0,0,0-10.81c.33.65,1.26,1.57,3.89,2.17.05,6.06-1.6,14.93-2.4,21.68A36.59,36.59,0,0,0,192.6,402.9Z" transform="translate(-31.84 -96.47)"/><path class="cls-5" d="M185.91,364.75s6.23-.5,9,1.8c2.19,1.84,6.39,25.08,6.39,25.08L195.46,394s-6.34-15.88-8-15.64" transform="translate(-31.84 -96.47)"/><path class="cls-5" d="M195.23,393.46c2,6.25,18.11,8.62,18.11,8.62l.9-2.87s-9.85-7.33-13.4-8.33" transform="translate(-31.84 -96.47)"/><path class="cls-44" d="M216.05,409c1.43.09,2.88.3,4.31.32.14,0,.18-.22,0-.25a39.47,39.47,0,0,0-4.34-.32c-.16,0-.15.23,0,.24Z" transform="translate(-31.84 -96.47)"/><path class="cls-44" d="M212.28,421.13c-5.35-.26-10.63,1-15.93,1.79s-10.91,1-15.8-1.16a2,2,0,0,0-2.64.3,7.81,7.81,0,0,1-2.89,1.4c-1.49.31-1.92-.06-3.42-.31a.65.65,0,0,0-.44,0s0,.06-.06.09a6.23,6.23,0,0,0,4.27,1.59c2,0,3.9-.32,5.86-.37,1.31,0,5.34.32,6.65.37,5.86.23,9.18-1.06,15-1.78,2.41-.3,6-1,9.32-1.66A.75.75,0,0,0,212.28,421.13Z" transform="translate(-31.84 -96.47)"/><path class="cls-5" d="M363.18,208.1a8.66,8.66,0,0,0-2.59-1.21c-1.34-.38-.67-1.37-2.06-1.13-2.66.45-8.78,1.67-12.49,2.69l-.1,0c-1.86.46-2.5,0-2.5,0l-.78.88.1.31a3,3,0,0,0-1.15,2.15c0,.19-.21.95-.29,1.69s-.08,1.36.21,1.62l0,0,.11,0a10.18,10.18,0,0,0,3.44.48,85.53,85.53,0,0,0,10.8-1c2.64-.35,5.14-.7,6.76-.87a2.88,2.88,0,0,0,1.63-.74,2.53,2.53,0,0,0,.8-1.39C365.4,210.14,364.42,209,363.18,208.1Z" transform="translate(-31.84 -96.47)"/><path class="cls-5" d="M345.62,213.5a2.89,2.89,0,0,1-.41.75l-.24.27c-2.75,2.75-6.21,0-8.22-1.62-2.86-2.3-6.25-6.34-8.91-8.87-.08-.08-1.07-.92-1-1.06l2.45-3.21s6.58,6,10.45,7.32a25.12,25.12,0,0,1,4.5,1.84,4.82,4.82,0,0,1,.42.27A4.68,4.68,0,0,1,345.62,213.5Z" transform="translate(-31.84 -96.47)"/><path class="cls-21" d="M355.9,214.6a85.51,85.51,0,0,1-10.8,1,10.18,10.18,0,0,1-3.44-.48l-.11,0,0,0c-2.54-1.08-4.11-3.47-.21-1.62a13.06,13.06,0,0,0,2.2.89,8,8,0,0,0,1.45.13h.22C348.78,214.5,359.28,206.63,355.9,214.6Z" transform="translate(-31.84 -96.47)"/><path class="cls-5" d="M373.09,229.81a11.1,11.1,0,0,0-.5,6.4c.94,4.24-.13,4.53-.13,4.53a54.58,54.58,0,0,1-10.54,5.14c-3.43,1.07-6.35.89-6.27-2.9v-.05l0-.66c.16-8.51-1.61-8.94-2-18.47-.45-9.77-.35-15.56,2.78-17.14,3.41-1.72,8.1-2.9,14.76-1.33,5,1.18,6.64,2.5,6.6,6.2a29,29,0,0,1-.54,4.55A82.16,82.16,0,0,1,373.09,229.81Z" transform="translate(-31.84 -96.47)"/><path class="cls-21" d="M373.09,229.81a11.1,11.1,0,0,0-.5,6.4c.94,4.24-.13,4.53-.13,4.53a54.58,54.58,0,0,1-10.54,5.14l-4.47-.42-1.79-1.41v-1.12l0-.66a33.11,33.11,0,0,0,6.75-.18,28,28,0,0,0,6.62-1.66,2.58,2.58,0,0,0,1.63-2.87,37.07,37.07,0,0,1-.62-5.93,31.6,31.6,0,0,1,1.59-7.32,14.76,14.76,0,0,0,.6-5.41,48.38,48.38,0,0,1,0-6.17l3.54-1.92,2,.74a29,29,0,0,1-.54,4.55A82.16,82.16,0,0,1,373.09,229.81Z" transform="translate(-31.84 -96.47)"/><path class="cls-43" d="M357.95,191a8.38,8.38,0,0,1-1.9-6c.19-2.05.83-4,3.9-4.79,1.69-.41,4.08.86,5.8,2.77,5.35.45,7.09,4.13,7.3,8.31l-6.28-1.4Z" transform="translate(-31.84 -96.47)"/><path class="cls-41" d="M371.91,193.65c-.12,4.79-4.25,7.57-4.25,7.57l.28,4.36-2.79,1.81-1.91,1.24-1.1-2.29-.15-2.81a1.45,1.45,0,0,0-1.15-1.34,5.27,5.27,0,0,1-2.72-1.64,1.82,1.82,0,0,1-.17-.21h0c-1.81-2.47-2.5-11.92,3.7-14.6C368,182.94,372,188.85,371.91,193.65Z" transform="translate(-31.84 -96.47)"/><path class="cls-45" d="M361,208.88s-2.73,17-1.7,25.14l1.91,3.48,2.09-3.79s-2-14.2-.9-24.53Z" transform="translate(-31.84 -96.47)"/><path class="cls-46" d="M360.66,207.44l0,.22a4.43,4.43,0,0,0,.33,1.22h0l1.4.29,1.22-.91-1.4-1.63-.22.06a3.1,3.1,0,0,0-1.35.73Z" transform="translate(-31.84 -96.47)"/><path class="cls-21" d="M367.9,203.54a4.46,4.46,0,0,1,1.34,1.38,17.7,17.7,0,0,0-1.72.9c-.73.45-4.25,2.93-4.25,2.93l-1-2.12S365.92,204.1,367.9,203.54Z" transform="translate(-31.84 -96.47)"/><path class="cls-21" d="M362.24,206.63a2.94,2.94,0,0,0-1.61,1.34,4.35,4.35,0,0,1,.17-3.35,5.56,5.56,0,0,1,1.19-.87Z" transform="translate(-31.84 -96.47)"/><g class="cls-47"><ellipse class="cls-3" cx="337.91" cy="227.68" rx="27.45" ry="3.64"/></g><path class="cls-41" d="M356.77,319.36a6.13,6.13,0,0,0-.43,2.07c.06.82,2.68.88,3,.46s.46-4.2.46-4.2" transform="translate(-31.84 -96.47)"/><path class="cls-48" d="M360,322.61a17.48,17.48,0,0,1-.24,2.25h-3l-.15-.5a4.74,4.74,0,0,1-1.75.5h-2.55c-1.86,0-2.92-.24-3-.57-.2-1.37,2-1.31,2.61-1.31,1.66,0,3.47-.78,3.86-1.62.28-.61.16-.77.5-.65a.86.86,0,0,1,.52.45,1.53,1.53,0,0,0,1.57.86,1.82,1.82,0,0,0,1-.49A1.1,1.1,0,0,1,360,322.61Z" transform="translate(-31.84 -96.47)"/><path class="cls-41" d="M386.11,316.52a24.61,24.61,0,0,0,.92,2.95c.36.74,2.81-.17,2.94-.68s-1.13-4.07-1.13-4.07" transform="translate(-31.84 -96.47)"/><path class="cls-48" d="M390.88,319.2c.32.8.79,2.34.79,2.34l-2.29,1.36-.45-.34a4.46,4.46,0,0,1-1.2,1.26,9.8,9.8,0,0,1-2.26.94c-2.09.48-3.7.25-3.87,0-.69-1.2,2.08-1.86,2.62-2.07a3.73,3.73,0,0,0,2.31-3c0-.67-.14-.77.23-.79a.86.86,0,0,1,.65.22,1.53,1.53,0,0,0,1.78.21,1.82,1.82,0,0,0,.76-.83A1.1,1.1,0,0,1,390.88,319.2Z" transform="translate(-31.84 -96.47)"/><path class="cls-43" d="M375.51,257.69s4.1-9.81-3.05-16.94c0,0-6.1,2.73-11,3.06a24.16,24.16,0,0,1-5.8-.14,124.58,124.58,0,0,0-.39,18.34Z" transform="translate(-31.84 -96.47)"/><path class="cls-43" d="M360.14,320.31h-.36a20.67,20.67,0,0,1-4-.27v-.73c.14-11.24-1.22-29.6-1.48-35.4a6.46,6.46,0,0,1,0-1.11c.44-4.25,4.83-3.69,6.68.21a15.58,15.58,0,0,1,1,3,27.44,27.44,0,0,1,.68,4.24C363.59,299.95,360.89,313.07,360.14,320.31Z" transform="translate(-31.84 -96.47)"/><path class="cls-43" d="M367.75,262.21c0,.11,0,.24-.07.36-1,5.11-4.13,18.94-5.63,23.43h0a2.7,2.7,0,0,1-1.93,1.41c-2.21.6-5.5-.22-5.79-4.63a10.75,10.75,0,0,1,0-1.59c.29-3.58,1.08-23.35,1.24-25.25s.49-4.69,1.5-5C362.12,249.17,369.07,255.06,367.75,262.21Z" transform="translate(-31.84 -96.47)"/><path class="cls-44" d="M363.06,282.56c1.61-6,3.83-15.84,4.62-20l-1.07-4.74-5.14-6.17-2.87-.4s.47,9.32,3.82,16.72c0,0,0,10.51-1.41,15l-1.24,3.46s.14.34.34,1a31.51,31.51,0,0,1,1.31,13.47c-1,7.95-1.65,19.42-1.65,19.42h.36c.73-7,3.26-19.47,2.66-29a4,4,0,0,0-.07-1,24.67,24.67,0,0,1,.33-7.69Z" transform="translate(-31.84 -96.47)"/><path class="cls-43" d="M377.76,282.72c-3.4-3.2-8.14-1.69-5.92,3.28,2.36,5.31,9.67,20.06,13.64,30.57l.27.68a21.52,21.52,0,0,0,4.15-1.34c-1.89-6.82-3.26-18.58-7.18-26.77A22.16,22.16,0,0,0,377.76,282.72Z" transform="translate(-31.84 -96.47)"/><path class="cls-43" d="M358.6,251.27c-.66-7.9,9.19-2.65,13.91,0,2,1.1,2.72,3.3,3,5.36s2.82,23.36,3.33,27.25c1.16,8.76-6.49,4-7.22,1.54C369.78,279.25,359,255.58,358.6,251.27Z" transform="translate(-31.84 -96.47)"/><path class="cls-43" d="M378.15,278.41a21.2,21.2,0,0,0,3.83,9.36s-5.76-2.66-6-3.05a21.63,21.63,0,0,1-1.17-4.88C374.88,279.41,378.15,278.41,378.15,278.41Z" transform="translate(-31.84 -96.47)"/><path class="cls-20" d="M310.79,181.19c4.41-2.69,5.69-5.28,5.69-5.28a9.67,9.67,0,0,0,.1-1.66c0-2.08-.66-5.56-4.29-6.89-5.35-2-8.8,1.66-12.48-4.74l0,.1C300.76,168.68,299.83,181.23,310.79,181.19Z" transform="translate(-31.84 -96.47)"/><path class="cls-49" d="M310.79,181.19c4.41-2.69,5.69-5.28,5.69-5.28a9.67,9.67,0,0,0,.1-1.66c-12.32,11.61-16.46-9.91-16.75-11.54C300.76,168.68,299.83,181.23,310.79,181.19Z" transform="translate(-31.84 -96.47)"/><g class="cls-50"><path class="cls-51" d="M299.82,162.71a11.44,11.44,0,0,0,3.47,4.64,8.48,8.48,0,0,0,2.48,1.44,13.23,13.23,0,0,0,2.84.58,12.57,12.57,0,0,1,2.95.63,5.81,5.81,0,0,1,2.44,1.84,5.59,5.59,0,0,1,1.11,2.81,6.18,6.18,0,0,1-.45,2.94,5.94,5.94,0,0,0-1-5.45,5.45,5.45,0,0,0-2.26-1.63,16.23,16.23,0,0,0-2.83-.58,13.71,13.71,0,0,1-2.93-.67,9.07,9.07,0,0,1-2.55-1.62A10.58,10.58,0,0,1,299.82,162.71Z" transform="translate(-31.84 -96.47)"/></g><g class="cls-50"><path class="cls-51" d="M299.82,162.71a18.16,18.16,0,0,0,2.16,5,12.55,12.55,0,0,0,3.73,3.88,18.33,18.33,0,0,0,2.43,1.23,13.25,13.25,0,0,1,2.41,1.46,6.74,6.74,0,0,1,1.81,2.18,5.5,5.5,0,0,1,.53,2.73,6,6,0,0,0-2.65-4.52,12.73,12.73,0,0,0-2.35-1.35,13.42,13.42,0,0,1-2.5-1.27,11.93,11.93,0,0,1-3.77-4.14A15,15,0,0,1,299.82,162.71Z" transform="translate(-31.84 -96.47)"/></g><path class="cls-21" d="M382.11,260.17a2.67,2.67,0,0,1-.83-.18c-3.17-1.23-4-8.39-4.09-9.2l-.1-.92.88.28c.78.25,7.67,2.55,8.32,5.79a3,3,0,0,1-1.28,3A4.15,4.15,0,0,1,382.11,260.17Zm-3.59-8.55c.37,2.39,1.37,6.52,3.2,7.23.7.27,1.54,0,2.5-.87a1.91,1.91,0,0,0,.89-1.8C384.73,254.3,380.82,252.48,378.52,251.62Z" transform="translate(-31.84 -96.47)"/><rect class="cls-52" x="342.83" y="168.59" width="7.76" height="94.77" transform="translate(-87.87 187.71) rotate(-41.53)"/><rect class="cls-53" x="310.54" y="178.1" width="7.76" height="2.71" transform="translate(-71.78 157.12) rotate(-41.53)"/><rect class="cls-15" x="342.83" y="168.59" width="7.76" height="94.77" transform="translate(-87.87 187.71) rotate(-41.53)"/><rect class="cls-54" x="310.54" y="178.1" width="7.76" height="2.71" transform="translate(-71.78 157.12) rotate(-41.53)"/><polygon class="cls-14" points="345.54 155.6 343.33 157.55 280.58 86.56 278.78 84.54 280.97 82.58 282.77 84.6 345.54 155.6"/><rect class="cls-21" x="373.71" y="250.15" width="7.76" height="1.51" transform="translate(-103.27 216.97) rotate(-41.53)"/><path class="cls-41" d="M369.73,243.48l-2-1.7s-.77,1-1.15,1.12c-.1,0-.32-.05-.43-.05a3.63,3.63,0,0,0-1.65.51c-.48.22-1.11.42-1.14.61s.31.5.64.47l.17,0a.74.74,0,0,0,0,.2c.14.43,2.14,3.23,4.14.18A5.73,5.73,0,0,1,369.73,243.48Z" transform="translate(-31.84 -96.47)"/><path class="cls-5" d="M371.56,216.51c.91,2.79,1.87,7.21,3.7,10.95l.12.23,0,0a3.19,3.19,0,0,0,.14.41,3.33,3.33,0,0,0,3.26,2.24l.69,0a12.55,12.55,0,0,0,1.36,0c.57,0,1.06-.15,1.23-.43h0a1.72,1.72,0,0,0,.07-.28.75.75,0,0,0,0-.16.85.85,0,0,0,0-.17c0-.16,0-.31,0-.47a1.91,1.91,0,0,0,0-.23,16,16,0,0,0-.19-2.28c-.29-3.14-3.4-13-4.45-17.09a2.83,2.83,0,0,0-1-1.51,2.5,2.5,0,0,0-1.47-.59h-.25c-1.38,0-2.32,1.12-3,2.42a8.43,8.43,0,0,0-.81,2.72A9.65,9.65,0,0,0,371.56,216.51Z" transform="translate(-31.84 -96.47)"/><path class="cls-5" d="M366.84,242.31l1.72,1.55h0l.45.39s3.49-3,6.2-5.58a30.89,30.89,0,0,0,6.66-8.22c.08-.15.16-.31.22-.46v0a1.72,1.72,0,0,0,.07-.28.75.75,0,0,0,0-.16.85.85,0,0,0,0-.17c0-.16,0-.31,0-.47a1.91,1.91,0,0,0,0-.23,2.86,2.86,0,0,0-.63-1.84l-.13-.15a2.88,2.88,0,0,0-.68-.5,2.84,2.84,0,0,0-.51-.21,4.84,4.84,0,0,0-3.89.53c-.11.11-.22.22-.33.35s-.48.54-.72.84a14.08,14.08,0,0,0-1.87,3.13C371.85,234.66,366.84,242.31,366.84,242.31Z" transform="translate(-31.84 -96.47)"/><path class="cls-43" d="M357.18,187.81s4.12-.82,7.27.88a5.82,5.82,0,0,0,5.23.17l1.19-.56s-1.17-1.36-1.35-1.48a10.36,10.36,0,0,0-1.8-1.53c-.61-.26-3.19-1.09-3.52-1.14a7.09,7.09,0,0,0-2.06,0,5.18,5.18,0,0,0-1.61.54c-.42.2-1.61.95-1.61.95Z" transform="translate(-31.84 -96.47)"/><path class="cls-41" d="M327.49,202.18s-3-2.58-3.11-4.39c-.17-2,1.24-3,2.16-1.86,1.45,1.73,1.19,4.57,1.19,4.57l.55.64Z" transform="translate(-31.84 -96.47)"/><path class="cls-21" d="M368.56,243.86h0l.45.39s3.49-3,6.2-5.58a30.89,30.89,0,0,0,6.66-8.22c.08-.15.16-.31.22-.46v0a1.72,1.72,0,0,0,.07-.28.75.75,0,0,0,0-.16.85.85,0,0,0,0-.17c0-.16,0-.31,0-.47a1.91,1.91,0,0,0,0-.23,16,16,0,0,0-.19-2.28c-.29-3.14-3.4-13-4.45-17.09a2.83,2.83,0,0,0-1-1.51,2.5,2.5,0,0,0-1.47-.59h-.25c.65,1.05,1.58,3.18,2.63,7.45,1.39,5.69,2.36,9.13,2.75,11.34a7.7,7.7,0,0,1,.18,2.37,7.35,7.35,0,0,1-1,2.07C377.11,234.38,371,242.16,368.56,243.86Z" transform="translate(-31.84 -96.47)"/><path class="cls-43" d="M367.66,201.21a16,16,0,0,1-.45-3.55s2-1.43,2-2.9c0-2-2.27,0-2.27,0a14.88,14.88,0,0,1-.58-2.87c-.18-2.29,3.66-4,3.66-4l2,1.46,1,1.9S373.13,199.27,367.66,201.21Z" transform="translate(-31.84 -96.47)"/><path class="cls-55" d="M296.31,256.88l-24.82,14.3a.69.69,0,0,1-.94-.26l-2-3.42a.69.69,0,0,1,.25-.94l24.82-14.3a.69.69,0,0,1,.94.26l2,3.42A.69.69,0,0,1,296.31,256.88Z" transform="translate(-31.84 -96.47)"/><g class="cls-56"><g class="cls-57"><path class="cls-58" d="M293.11,254a.12.12,0,0,1-.16,0l-.55-1,.2-.12.55,1A.12.12,0,0,1,293.11,254Z" transform="translate(-31.84 -96.47)"/><path class="cls-58" d="M292.35,253.63a.06.06,0,0,1-.08,0l-.24-.41.1-.06.24.41A.06.06,0,0,1,292.35,253.63Z" transform="translate(-31.84 -96.47)"/></g><g class="cls-57"><path class="cls-58" d="M292.24,254.48a.12.12,0,0,1-.16,0l-.55-1,.2-.12.55,1A.12.12,0,0,1,292.24,254.48Z" transform="translate(-31.84 -96.47)"/><path class="cls-58" d="M291.48,254.13a.06.06,0,0,1-.08,0l-.24-.41.1-.06.24.41A.06.06,0,0,1,291.48,254.13Z" transform="translate(-31.84 -96.47)"/></g><g class="cls-57"><path class="cls-58" d="M291.37,255a.12.12,0,0,1-.16,0l-.55-1,.21-.12.55,1A.12.12,0,0,1,291.37,255Z" transform="translate(-31.84 -96.47)"/><path class="cls-58" d="M290.61,254.63a.06.06,0,0,1-.08,0l-.24-.41.1-.06.24.41A.06.06,0,0,1,290.61,254.63Z" transform="translate(-31.84 -96.47)"/></g><g class="cls-57"><path class="cls-58" d="M290.49,255.49a.12.12,0,0,1-.16,0l-.55-1,.2-.12.55,1A.12.12,0,0,1,290.49,255.49Z" transform="translate(-31.84 -96.47)"/><path class="cls-58" d="M289.74,255.13a.06.06,0,0,1-.08,0l-.24-.41.1-.06.24.41A.06.06,0,0,1,289.74,255.13Z" transform="translate(-31.84 -96.47)"/></g><g class="cls-57"><path class="cls-58" d="M289.63,256a.12.12,0,0,1-.16,0l-.55-1,.2-.12.55,1A.12.12,0,0,1,289.63,256Z" transform="translate(-31.84 -96.47)"/><path class="cls-58" d="M288.87,255.63a.06.06,0,0,1-.08,0l-.24-.41.1-.06.24.41A.06.06,0,0,1,288.87,255.63Z" transform="translate(-31.84 -96.47)"/></g><g class="cls-57"><path class="cls-58" d="M288.76,256.49a.12.12,0,0,1-.16,0l-.55-1,.2-.12.55,1A.12.12,0,0,1,288.76,256.49Z" transform="translate(-31.84 -96.47)"/><path class="cls-58" d="M288,256.13a.06.06,0,0,1-.08,0l-.24-.41.1-.06.24.41A.06.06,0,0,1,288,256.13Z" transform="translate(-31.84 -96.47)"/></g><g class="cls-57"><path class="cls-58" d="M287.89,257a.12.12,0,0,1-.16,0l-.55-1,.21-.12.55,1A.12.12,0,0,1,287.89,257Z" transform="translate(-31.84 -96.47)"/><path class="cls-58" d="M287.13,256.63a.06.06,0,0,1-.08,0l-.24-.41.1-.06.24.41A.06.06,0,0,1,287.13,256.63Z" transform="translate(-31.84 -96.47)"/></g><g class="cls-57"><path class="cls-58" d="M287,257.49a.12.12,0,0,1-.16,0l-.55-1,.2-.12.55,1A.12.12,0,0,1,287,257.49Z" transform="translate(-31.84 -96.47)"/><path class="cls-58" d="M286.26,257.14a.06.06,0,0,1-.08,0l-.24-.41.1-.06.24.41A.06.06,0,0,1,286.26,257.14Z" transform="translate(-31.84 -96.47)"/></g><g class="cls-57"><path class="cls-58" d="M286.14,258a.12.12,0,0,1-.16,0l-.55-1,.2-.12.55,1A.12.12,0,0,1,286.14,258Z" transform="translate(-31.84 -96.47)"/><path class="cls-58" d="M285.39,257.64a.06.06,0,0,1-.08,0l-.24-.41.1-.06.24.41A.06.06,0,0,1,285.39,257.64Z" transform="translate(-31.84 -96.47)"/></g><g class="cls-57"><path class="cls-58" d="M285.27,258.5a.12.12,0,0,1-.16,0l-.55-1,.2-.12.55,1A.12.12,0,0,1,285.27,258.5Z" transform="translate(-31.84 -96.47)"/><path class="cls-58" d="M284.52,258.14a.06.06,0,0,1-.08,0l-.24-.41.1-.06.24.41A.06.06,0,0,1,284.52,258.14Z" transform="translate(-31.84 -96.47)"/></g><g class="cls-57"><path class="cls-58" d="M284.4,259a.12.12,0,0,1-.16,0l-.55-1,.21-.12.55,1A.12.12,0,0,1,284.4,259Z" transform="translate(-31.84 -96.47)"/><path class="cls-58" d="M283.65,258.64a.06.06,0,0,1-.08,0l-.24-.41.1-.06.24.41A.06.06,0,0,1,283.65,258.64Z" transform="translate(-31.84 -96.47)"/></g><g class="cls-57"><path class="cls-58" d="M283.53,259.5a.12.12,0,0,1-.16,0l-.55-1,.2-.12.55,1A.12.12,0,0,1,283.53,259.5Z" transform="translate(-31.84 -96.47)"/><path class="cls-58" d="M282.77,259.14a.06.06,0,0,1-.08,0l-.24-.41.1-.06.24.41A.06.06,0,0,1,282.77,259.14Z" transform="translate(-31.84 -96.47)"/></g><g class="cls-57"><path class="cls-58" d="M282.66,260a.12.12,0,0,1-.16,0l-.55-1,.2-.12.55,1A.12.12,0,0,1,282.66,260Z" transform="translate(-31.84 -96.47)"/><path class="cls-58" d="M281.9,259.64a.06.06,0,0,1-.08,0l-.24-.41.1-.06.24.41A.06.06,0,0,1,281.9,259.64Z" transform="translate(-31.84 -96.47)"/></g><g class="cls-57"><path class="cls-58" d="M281.79,260.5a.12.12,0,0,1-.16,0l-.55-1,.2-.12.55,1A.12.12,0,0,1,281.79,260.5Z" transform="translate(-31.84 -96.47)"/><path class="cls-58" d="M281,260.14a.06.06,0,0,1-.08,0l-.24-.41.1-.06.24.41A.06.06,0,0,1,281,260.14Z" transform="translate(-31.84 -96.47)"/></g><g class="cls-57"><path class="cls-58" d="M280.92,261a.12.12,0,0,1-.16,0l-.55-1,.21-.12.55,1A.12.12,0,0,1,280.92,261Z" transform="translate(-31.84 -96.47)"/><path class="cls-58" d="M280.16,260.65a.06.06,0,0,1-.08,0l-.24-.41.1-.06.24.41A.06.06,0,0,1,280.16,260.65Z" transform="translate(-31.84 -96.47)"/></g><g class="cls-57"><path class="cls-58" d="M280,261.51a.12.12,0,0,1-.16,0l-.55-1,.2-.12.55,1A.12.12,0,0,1,280,261.51Z" transform="translate(-31.84 -96.47)"/><path class="cls-58" d="M279.29,261.15a.06.06,0,0,1-.08,0l-.24-.41.1-.06.24.41A.06.06,0,0,1,279.29,261.15Z" transform="translate(-31.84 -96.47)"/></g><g class="cls-57"><path class="cls-58" d="M279.18,262a.12.12,0,0,1-.16,0l-.55-1,.2-.12.55,1A.12.12,0,0,1,279.18,262Z" transform="translate(-31.84 -96.47)"/><path class="cls-58" d="M278.42,261.65a.06.06,0,0,1-.08,0l-.24-.41.1-.06.24.41A.06.06,0,0,1,278.42,261.65Z" transform="translate(-31.84 -96.47)"/></g><g class="cls-57"><path class="cls-58" d="M278.31,262.51a.12.12,0,0,1-.16,0l-.55-1,.2-.12.55,1A.12.12,0,0,1,278.31,262.51Z" transform="translate(-31.84 -96.47)"/><path class="cls-58" d="M277.55,262.15a.06.06,0,0,1-.08,0l-.24-.41.1-.06.24.41A.06.06,0,0,1,277.55,262.15Z" transform="translate(-31.84 -96.47)"/></g><g class="cls-57"><path class="cls-58" d="M277.44,263a.12.12,0,0,1-.16,0l-.55-1,.21-.12.55,1A.12.12,0,0,1,277.44,263Z" transform="translate(-31.84 -96.47)"/><path class="cls-58" d="M276.68,262.65a.06.06,0,0,1-.08,0l-.24-.41.1-.06.24.41A.06.06,0,0,1,276.68,262.65Z" transform="translate(-31.84 -96.47)"/></g><g class="cls-57"><path class="cls-58" d="M276.56,263.51a.12.12,0,0,1-.16,0l-.55-1,.2-.12.55,1A.12.12,0,0,1,276.56,263.51Z" transform="translate(-31.84 -96.47)"/><path class="cls-58" d="M275.81,263.16a.06.06,0,0,1-.08,0l-.24-.41.1-.06.24.41A.06.06,0,0,1,275.81,263.16Z" transform="translate(-31.84 -96.47)"/></g><g class="cls-57"><path class="cls-58" d="M275.7,264a.12.12,0,0,1-.16,0l-.55-1,.2-.12.55,1A.12.12,0,0,1,275.7,264Z" transform="translate(-31.84 -96.47)"/><path class="cls-58" d="M274.94,263.66a.06.06,0,0,1-.08,0l-.24-.41.1-.06.24.41A.06.06,0,0,1,274.94,263.66Z" transform="translate(-31.84 -96.47)"/></g><g class="cls-57"><path class="cls-58" d="M274.83,264.51a.12.12,0,0,1-.16,0l-.55-1,.2-.12.55,1A.12.12,0,0,1,274.83,264.51Z" transform="translate(-31.84 -96.47)"/><path class="cls-58" d="M274.07,264.16a.06.06,0,0,1-.08,0l-.24-.41.1-.06.24.41A.06.06,0,0,1,274.07,264.16Z" transform="translate(-31.84 -96.47)"/></g><g class="cls-57"><path class="cls-58" d="M274,265a.12.12,0,0,1-.16,0l-.55-1,.21-.12.55,1A.12.12,0,0,1,274,265Z" transform="translate(-31.84 -96.47)"/><path class="cls-58" d="M273.2,264.66a.06.06,0,0,1-.08,0l-.24-.41.1-.06.24.41A.06.06,0,0,1,273.2,264.66Z" transform="translate(-31.84 -96.47)"/></g><g class="cls-57"><path class="cls-58" d="M273.08,265.52a.12.12,0,0,1-.16,0l-.55-1,.2-.12.55,1A.12.12,0,0,1,273.08,265.52Z" transform="translate(-31.84 -96.47)"/><path class="cls-58" d="M272.33,265.16a.06.06,0,0,1-.08,0l-.24-.41.1-.06.24.41A.06.06,0,0,1,272.33,265.16Z" transform="translate(-31.84 -96.47)"/></g><g class="cls-57"><path class="cls-58" d="M272.21,266a.12.12,0,0,1-.16,0l-.55-1,.2-.12.55,1A.12.12,0,0,1,272.21,266Z" transform="translate(-31.84 -96.47)"/><path class="cls-58" d="M271.46,265.66a.06.06,0,0,1-.08,0l-.24-.41.1-.06.24.41A.06.06,0,0,1,271.46,265.66Z" transform="translate(-31.84 -96.47)"/></g><g class="cls-57"><path class="cls-58" d="M271.34,266.52a.12.12,0,0,1-.16,0l-.55-1,.2-.12.55,1A.12.12,0,0,1,271.34,266.52Z" transform="translate(-31.84 -96.47)"/><path class="cls-58" d="M270.59,266.16a.06.06,0,0,1-.08,0l-.24-.41.1-.06.24.41A.06.06,0,0,1,270.59,266.16Z" transform="translate(-31.84 -96.47)"/></g></g><ellipse class="cls-3" cx="282.89" cy="308.54" rx="24.27" ry="3.65"/><path class="cls-41" d="M321,397.26s.08,3.34.15,4.19,2.77.91,3.09.47.47-4.35.47-4.35" transform="translate(-31.84 -96.47)"/><path class="cls-48" d="M325,402.68a18.1,18.1,0,0,1-.25,2.33h-3.12l-.15-.52a4.91,4.91,0,0,1-1.81.52H317c-1.93,0-3-.25-3.08-.59-.2-1.42,2.1-1.36,2.7-1.36,1.72,0,3.59-.81,4-1.68.3-.64.16-.8.52-.68a.89.89,0,0,1,.54.46,1.58,1.58,0,0,0,1.63.89,1.89,1.89,0,0,0,1.06-.51A1.14,1.14,0,0,1,325,402.68Z" transform="translate(-31.84 -96.47)"/><path class="cls-41" d="M310,396.36a25.53,25.53,0,0,0,1,3.05c.37.77,2.92-.18,3-.7s-1.17-4.22-1.17-4.22" transform="translate(-31.84 -96.47)"/><path class="cls-48" d="M315,399.15c.33.82.82,2.42.82,2.42L313.42,403l-.46-.35a4.62,4.62,0,0,1-1.25,1.3,10.16,10.16,0,0,1-2.34,1c-2.16.49-3.84.25-4,0-.72-1.24,2.15-1.93,2.71-2.15a3.87,3.87,0,0,0,2.39-3.15c0-.7-.14-.8.23-.82a.89.89,0,0,1,.67.23,1.58,1.58,0,0,0,1.84.22,1.89,1.89,0,0,0,.79-.86A1.14,1.14,0,0,1,315,399.15Z" transform="translate(-31.84 -96.47)"/><path class="cls-59" d="M326.72,320.5c1.12-.83,2.35-1.76,3.51-2.73,2.65-2.22,5-4.64,5.31-6.4.65-3.94.14-15.67-.17-21.2,0-.33,0-.65-.05-.94-.31-5.23-3.13-7.54-4.53-8.39-.72,6.8-2.34,22.14-2.47,22.93C328.15,304.77,326.72,320.5,326.72,320.5Z" transform="translate(-31.84 -96.47)"/><path class="cls-58" d="M326.72,320.5c1.12-.83,2.35-1.76,3.51-2.73.1-4.32,1.39-10.36,3.2-17.91,2.15-9.52.8-11.28.8-11.28l-4.32.66c-.72,6.73-1.5,14-1.59,14.52C328.14,304.77,326.72,320.5,326.72,320.5Z" transform="translate(-31.84 -96.47)"/><path class="cls-43" d="M316.34,356.28a104,104,0,0,0,1.34,13.28c.57,2.95,9.84,3.49,8.65,1.22-1.72-3.3,1.28-13.64,2.75-31.27.21-2.67,1.41-3,2.21-8.46A16.83,16.83,0,0,0,329,320.79l-12.86-1.19-.17,16,0,5.41S315.95,348.45,316.34,356.28Z" transform="translate(-31.84 -96.47)"/><path class="cls-43" d="M325.19,368.72s2.51,3.08,2.16,8.73S325,400,325,400a12.11,12.11,0,0,1-4.47-.13s-3.18-31.28-3.19-34.83S325.19,368.72,325.19,368.72Z" transform="translate(-31.84 -96.47)"/><path class="cls-44" d="M316.34,356.28a99.28,99.28,0,0,1,3.73-10.39,20,20,0,0,1,3.64-5.64c6.52-6.84,2-15.69,2-15.69s-5.31,4.4-5.68,4.86-2.47,4.16-4,6.2l0,5.41S315.95,348.45,316.34,356.28Z" transform="translate(-31.84 -96.47)"/><path class="cls-43" d="M301.1,354.17s-2.91,9.59-2.45,12.6,11.12,31.13,11.12,31.13a10.74,10.74,0,0,0,4.28-1.06s-.23-12.38-2.32-20.13-4.52-12.49-6.6-13.18S301.67,355.78,301.1,354.17Z" transform="translate(-31.84 -96.47)"/><path class="cls-45" d="M310.52,359.87s-3.16,5-1.22,9.55-3.26,3.77-3.26,3.77-2.6-7.57-2-8.56,2.72-4.28,3.41-4.45A30.19,30.19,0,0,1,310.52,359.87Z" transform="translate(-31.84 -96.47)"/><path class="cls-43" d="M307.33,319.85s-6.76,31.31-7.65,39.75c-.37,3.58,3.39,9.49,6.85,6.25,4.14-3.86,10.85-21.54,12.93-24.66s9.87-6,4.55-21.83" transform="translate(-31.84 -96.47)"/><path class="cls-41" d="M324,277.79a14.62,14.62,0,0,1-.52-5.45c.4-2.31,1.79-6.48,1.27-9.6s-4.45-5.72-8.62-5.32-5.38,4.39-6.07,6.71a23.87,23.87,0,0,0-.4,7.75,5.36,5.36,0,0,0,1.91,3.82c.69.4,3.3-.13,3.76.37s.81,3.45.81,3.45" transform="translate(-31.84 -96.47)"/><path class="cls-59" d="M326,280.27a5.27,5.27,0,0,0-.93-2.47c-.69-.65-5.32-.65-6.71-.47a21.27,21.27,0,0,0-5.26,2.11c-.45.34.44,2.09.44,2.09Z" transform="translate(-31.84 -96.47)"/><path class="cls-41" d="M277.65,262.12c0-.33.46-.17.57.1a1.88,1.88,0,0,1,.06.23c0-.54-.07-1-.06-1.09,0-.31.42-.2.56,0,0-.22,0-.38,0-.45,0-.4.46-.24.57.09a4.72,4.72,0,0,1,.1.55,2.71,2.71,0,0,1,0-.3c0-.33.41-.25.52,0a4.22,4.22,0,0,1,.12.64c.05.33.15.68.19,1a6.77,6.77,0,0,0,.21.94,4.1,4.1,0,0,0,1.52,1.17l.9-.49a11.89,11.89,0,0,1,.22,2.09c-.06.49-.41,1.09-.37,1.39a7.09,7.09,0,0,0,.37,1.07l-2.49,1a6.32,6.32,0,0,0-.67-1.83,20.13,20.13,0,0,1-1.7-2,10.75,10.75,0,0,1-.37-1.23l-.18-.93-.08-.9S277.64,262.23,277.65,262.12Z" transform="translate(-31.84 -96.47)"/><path class="cls-59" d="M280.2,269.62s.84,4.86,1.67,8.76a37.93,37.93,0,0,0,2.9,9s0,.05,0,.07c.82,1.78,2.35,4,3.39,4.18a31.5,31.5,0,0,0,4.69,0c2.27.13,8-.62,12.8-1.26l.22,0c2.26-.3,4.32-.58,5.73-.73a3,3,0,0,0,1.75-.78,2.66,2.66,0,0,0,.85-1.47s0,0,0,0c.32-1.57-.71-2.82-2-3.74a2,2,0,0,0-.19-.12c1.65-1.64,3.34-3.43,3.34-3.43s-4.65.22-7.25.39c-1.77.12-13.85,3.35-15.29,3.8l-.31.11s-.18,0-.45.08l-.28.09a14.85,14.85,0,0,0-1.76-3.31c-2.59-3.64-6.8-12.46-6.8-12.46l-2.35.7h0Z" transform="translate(-31.84 -96.47)"/><path class="cls-43" d="M323.85,273.85s-5.78.49-6.88,0a4.38,4.38,0,0,1-2.83-3.53c-.14-2,.26-2.57-.49-3.67s-1.42-.72-1.53.32-.16,2.92-.43,3.06-.81-1.14-.66-3.15a12.43,12.43,0,0,1,.84-4.25c.52-1.16.8-1.09,1.27-1.3a3.59,3.59,0,0,1-2.05-1.84c-1.16-1.81-.52-4.62,2.54-4.61,5.35,0,11,1.07,11.16,5,0,0,1.88-.29,1.94,3.32s-2.26,8-2.43,9.11S324.43,273.59,323.85,273.85Z" transform="translate(-31.84 -96.47)"/><path class="cls-59" d="M307.78,316.33c-.21,1.81-1.8,4.61-.72,5a20.65,20.65,0,0,0,4.37-.13h.16c1.92-.16,4.12-.37,6-.52,7.35-.31,11.1,1.15,11.84.74.35-.21.36-.85.25-1.51a17.12,17.12,0,0,1-.12-4.87c.18-1.37.43-3,.79-4.85,1.21-6.44,3.59-16.28,3.94-22.2.57-9.27-9.37-8.39-9.37-8.39-12.64-.79-18.58,2.85-19.27,8.28-.05.38-.08.8-.11,1.23-.32,5.6,1.39,14.64,2.19,21.4A34,34,0,0,1,307.78,316.33Z" transform="translate(-31.84 -96.47)"/><path class="cls-58" d="M307.78,316.33c-.21,1.81-1.8,4.61-.72,5a20.65,20.65,0,0,0,4.37-.13c-2,.14-2.32-1.36-1.88-2.36a14.3,14.3,0,0,0,1.25-6c-.09-2.69-1.1-8.76-1.7-14.49a46.67,46.67,0,0,1,0-10.05c-.3.61-1.17,1.46-3.62,2-.05,5.63,1.49,13.89,2.23,20.17A34,34,0,0,1,307.78,316.33Z" transform="translate(-31.84 -96.47)"/><path class="cls-55" d="M152.3,199.62,166.4,166l-10.48,2.12-.17,0-20.95,4.24-.35.07-21.11,4.27-.35.07-10.29,2.08Zm3.52-25.07-6.68,16-23.73-9.94Z" transform="translate(-31.84 -96.47)"/><g class="cls-47"><path class="cls-60" d="M108.44,177.68l.23,0,.31,1.53a.12.12,0,1,1-.23,0Z" transform="translate(-31.84 -96.47)"/><path class="cls-60" d="M109,177.57l.16,0,.15.75a.08.08,0,1,1-.16,0Z" transform="translate(-31.84 -96.47)"/></g><g class="cls-47"><path class="cls-60" d="M109.51,177.46l.23,0,.31,1.53a.12.12,0,1,1-.23,0Z" transform="translate(-31.84 -96.47)"/><path class="cls-60" d="M110.07,177.35l.16,0,.15.75a.08.08,0,0,1-.16,0Z" transform="translate(-31.84 -96.47)"/></g><g class="cls-47"><path class="cls-60" d="M110.58,177.24l.23,0,.31,1.53a.12.12,0,1,1-.23,0Z" transform="translate(-31.84 -96.47)"/><path class="cls-60" d="M111.14,177.13l.16,0,.15.75a.08.08,0,1,1-.16,0Z" transform="translate(-31.84 -96.47)"/></g><g class="cls-47"><path class="cls-60" d="M111.66,177l.23,0,.31,1.53a.12.12,0,1,1-.23,0Z" transform="translate(-31.84 -96.47)"/><path class="cls-60" d="M112.22,176.91l.16,0,.15.75a.09.09,0,0,1-.07.1.08.08,0,0,1-.09-.07Z" transform="translate(-31.84 -96.47)"/></g><g class="cls-47"><path class="cls-60" d="M112.73,176.81l.23,0,.31,1.53a.13.13,0,0,1-.1.14.12.12,0,0,1-.14-.1Z" transform="translate(-31.84 -96.47)"/><path class="cls-60" d="M113.29,176.7l.16,0,.15.75a.09.09,0,0,1-.07.1.08.08,0,0,1-.09-.07Z" transform="translate(-31.84 -96.47)"/></g><g class="cls-47"><path class="cls-60" d="M113.8,176.6l.23,0,.31,1.52a.12.12,0,0,1-.1.14.12.12,0,0,1-.14-.1Z" transform="translate(-31.84 -96.47)"/><path class="cls-60" d="M114.36,176.49l.16,0,.15.74a.08.08,0,0,1-.06.1.09.09,0,0,1-.1-.07Z" transform="translate(-31.84 -96.47)"/></g><g class="cls-47"><path class="cls-60" d="M114.87,176.38l.23,0,.31,1.52a.12.12,0,1,1-.23,0Z" transform="translate(-31.84 -96.47)"/><path class="cls-60" d="M115.44,176.27l.16,0,.15.74a.08.08,0,0,1-.06.1.09.09,0,0,1-.1-.07Z" transform="translate(-31.84 -96.47)"/></g><g class="cls-47"><path class="cls-60" d="M115.95,176.16l.23,0,.31,1.52a.12.12,0,0,1-.09.14.13.13,0,0,1-.14-.1Z" transform="translate(-31.84 -96.47)"/><path class="cls-60" d="M116.51,176.05l.16,0,.15.74a.08.08,0,0,1-.16,0Z" transform="translate(-31.84 -96.47)"/></g><g class="cls-47"><path class="cls-60" d="M117,175.95l.23,0,.31,1.52a.12.12,0,1,1-.23,0Z" transform="translate(-31.84 -96.47)"/><path class="cls-60" d="M117.58,175.83l.16,0,.15.74a.08.08,0,0,1-.16,0Z" transform="translate(-31.84 -96.47)"/></g><g class="cls-47"><path class="cls-60" d="M118.1,175.73l.23,0,.31,1.52a.12.12,0,1,1-.23,0Z" transform="translate(-31.84 -96.47)"/><path class="cls-60" d="M118.65,175.62l.16,0,.15.74a.08.08,0,0,1-.16,0Z" transform="translate(-31.84 -96.47)"/></g><g class="cls-47"><path class="cls-60" d="M119.17,175.51l.23,0,.31,1.52a.12.12,0,1,1-.23,0Z" transform="translate(-31.84 -96.47)"/><path class="cls-60" d="M119.72,175.4l.16,0,.15.74a.08.08,0,0,1-.16,0Z" transform="translate(-31.84 -96.47)"/></g><g class="cls-47"><path class="cls-60" d="M120.24,175.3l.23,0,.31,1.52a.12.12,0,1,1-.23,0Z" transform="translate(-31.84 -96.47)"/><path class="cls-60" d="M120.8,175.18l.16,0,.15.74a.08.08,0,1,1-.16,0Z" transform="translate(-31.84 -96.47)"/></g><g class="cls-47"><path class="cls-60" d="M121.31,175.08l.23,0,.31,1.52a.12.12,0,1,1-.23,0Z" transform="translate(-31.84 -96.47)"/><path class="cls-60" d="M121.88,175l.16,0,.15.74a.09.09,0,0,1-.07.1.08.08,0,0,1-.09-.07Z" transform="translate(-31.84 -96.47)"/></g><g class="cls-47"><path class="cls-60" d="M122.39,174.86l.23,0,.31,1.52a.13.13,0,0,1-.1.14.12.12,0,0,1-.14-.1Z" transform="translate(-31.84 -96.47)"/><path class="cls-60" d="M122.95,174.75l.16,0,.15.74a.09.09,0,0,1-.07.1.08.08,0,0,1-.09-.07Z" transform="translate(-31.84 -96.47)"/></g><g class="cls-47"><path class="cls-60" d="M123.46,174.64l.23,0,.31,1.52a.13.13,0,0,1-.1.14.12.12,0,0,1-.14-.1Z" transform="translate(-31.84 -96.47)"/><path class="cls-60" d="M124,174.53l.16,0,.15.74a.08.08,0,0,1-.06.1.09.09,0,0,1-.1-.07Z" transform="translate(-31.84 -96.47)"/></g><g class="cls-47"><path class="cls-60" d="M124.53,174.43l.23,0,.31,1.52a.12.12,0,0,1-.09.14.12.12,0,0,1-.14-.1Z" transform="translate(-31.84 -96.47)"/><path class="cls-60" d="M125.09,174.31l.16,0,.15.74a.08.08,0,0,1-.06.1.08.08,0,0,1-.1-.07Z" transform="translate(-31.84 -96.47)"/></g><g class="cls-47"><path class="cls-60" d="M125.6,174.21l.23,0,.31,1.52a.12.12,0,0,1-.09.14.13.13,0,0,1-.14-.1Z" transform="translate(-31.84 -96.47)"/><path class="cls-60" d="M126.17,174.1l.16,0,.15.74a.08.08,0,1,1-.16,0Z" transform="translate(-31.84 -96.47)"/></g><g class="cls-47"><path class="cls-60" d="M126.68,174l.23,0,.31,1.52a.12.12,0,1,1-.23,0Z" transform="translate(-31.84 -96.47)"/><path class="cls-60" d="M127.24,173.88l.16,0,.15.74a.08.08,0,0,1-.16,0Z" transform="translate(-31.84 -96.47)"/></g><g class="cls-47"><path class="cls-60" d="M127.75,173.77l.23,0,.31,1.52a.12.12,0,1,1-.23,0Z" transform="translate(-31.84 -96.47)"/><path class="cls-60" d="M128.31,173.66l.16,0,.15.74a.08.08,0,0,1-.16,0Z" transform="translate(-31.84 -96.47)"/></g><g class="cls-47"><path class="cls-60" d="M128.83,173.56l.23,0,.31,1.52a.12.12,0,1,1-.23,0Z" transform="translate(-31.84 -96.47)"/><path class="cls-60" d="M129.38,173.44l.16,0,.15.74a.08.08,0,0,1-.16,0Z" transform="translate(-31.84 -96.47)"/></g><g class="cls-47"><path class="cls-60" d="M129.9,173.34l.23,0,.31,1.52a.12.12,0,1,1-.23,0Z" transform="translate(-31.84 -96.47)"/><path class="cls-60" d="M130.45,173.23l.16,0,.15.74a.08.08,0,0,1-.16,0Z" transform="translate(-31.84 -96.47)"/></g><g class="cls-47"><path class="cls-60" d="M131,173.12l.23,0,.31,1.52a.12.12,0,1,1-.23,0Z" transform="translate(-31.84 -96.47)"/><path class="cls-60" d="M131.53,173l.16,0,.15.74a.09.09,0,0,1-.07.1.08.08,0,0,1-.09-.07Z" transform="translate(-31.84 -96.47)"/></g><g class="cls-47"><path class="cls-60" d="M132,172.91l.23,0,.31,1.52a.13.13,0,0,1-.1.14.12.12,0,0,1-.14-.1Z" transform="translate(-31.84 -96.47)"/><path class="cls-60" d="M132.61,172.79l.16,0,.15.74a.09.09,0,0,1-.07.1.08.08,0,0,1-.09-.07Z" transform="translate(-31.84 -96.47)"/></g><g class="cls-47"><path class="cls-60" d="M133.12,172.69l.23,0,.31,1.52a.13.13,0,0,1-.1.14.12.12,0,0,1-.14-.1Z" transform="translate(-31.84 -96.47)"/><path class="cls-60" d="M133.68,172.58l.16,0,.15.74a.08.08,0,0,1-.06.1.09.09,0,0,1-.1-.07Z" transform="translate(-31.84 -96.47)"/></g><g class="cls-47"><path class="cls-60" d="M134.19,172.47l.23,0,.31,1.52a.12.12,0,0,1-.09.14.12.12,0,0,1-.14-.1Z" transform="translate(-31.84 -96.47)"/><path class="cls-60" d="M134.75,172.36l.16,0,.15.74a.08.08,0,0,1-.06.1.09.09,0,0,1-.1-.07Z" transform="translate(-31.84 -96.47)"/></g><g class="cls-47"><path class="cls-60" d="M135.26,172.26l.23,0,.31,1.51a.12.12,0,0,1-.09.14.13.13,0,0,1-.14-.1Z" transform="translate(-31.84 -96.47)"/><path class="cls-60" d="M135.82,172.15l.16,0,.15.74a.08.08,0,1,1-.16,0Z" transform="translate(-31.84 -96.47)"/></g><g class="cls-47"><path class="cls-60" d="M136.34,172l.23,0,.31,1.51a.12.12,0,1,1-.23,0Z" transform="translate(-31.84 -96.47)"/><path class="cls-60" d="M136.9,171.93l.16,0,.15.74a.08.08,0,1,1-.16,0Z" transform="translate(-31.84 -96.47)"/></g><g class="cls-47"><path class="cls-60" d="M137.41,171.83l.23,0,.31,1.51a.12.12,0,1,1-.23,0Z" transform="translate(-31.84 -96.47)"/><path class="cls-60" d="M138,171.71l.16,0,.15.74a.08.08,0,0,1-.16,0Z" transform="translate(-31.84 -96.47)"/></g><g class="cls-47"><path class="cls-60" d="M138.49,171.61l.23,0,.31,1.51a.12.12,0,1,1-.23,0Z" transform="translate(-31.84 -96.47)"/><path class="cls-60" d="M139,171.5l.16,0,.15.74a.08.08,0,1,1-.16,0Z" transform="translate(-31.84 -96.47)"/></g><g class="cls-47"><path class="cls-60" d="M139.56,171.39l.23,0,.31,1.51a.12.12,0,1,1-.23,0Z" transform="translate(-31.84 -96.47)"/><path class="cls-60" d="M140.11,171.28l.16,0,.15.74a.08.08,0,1,1-.16,0Z" transform="translate(-31.84 -96.47)"/></g><g class="cls-47"><path class="cls-60" d="M140.63,171.17l.23,0,.31,1.51a.12.12,0,1,1-.23,0Z" transform="translate(-31.84 -96.47)"/><path class="cls-60" d="M141.19,171.06l.16,0,.15.74a.09.09,0,0,1-.07.1.08.08,0,0,1-.09-.07Z" transform="translate(-31.84 -96.47)"/></g><g class="cls-47"><path class="cls-60" d="M141.7,171l.23,0,.31,1.51a.13.13,0,0,1-.1.14.12.12,0,0,1-.14-.1Z" transform="translate(-31.84 -96.47)"/><path class="cls-60" d="M142.26,170.84l.16,0,.15.74a.09.09,0,0,1-.07.1.08.08,0,0,1-.09-.07Z" transform="translate(-31.84 -96.47)"/></g><g class="cls-47"><path class="cls-60" d="M142.78,170.74l.23,0,.31,1.51a.13.13,0,0,1-.1.14.12.12,0,0,1-.14-.1Z" transform="translate(-31.84 -96.47)"/><path class="cls-60" d="M143.34,170.63l.16,0,.15.74a.08.08,0,0,1-.06.1.09.09,0,0,1-.1-.07Z" transform="translate(-31.84 -96.47)"/></g><g class="cls-47"><path class="cls-60" d="M143.85,170.52l.23,0,.31,1.51a.12.12,0,1,1-.23,0Z" transform="translate(-31.84 -96.47)"/><path class="cls-60" d="M144.41,170.41l.16,0,.15.74a.08.08,0,0,1-.06.1.09.09,0,0,1-.1-.07Z" transform="translate(-31.84 -96.47)"/></g><g class="cls-47"><path class="cls-60" d="M144.92,170.31l.23,0,.31,1.51a.12.12,0,0,1-.09.14.13.13,0,0,1-.14-.1Z" transform="translate(-31.84 -96.47)"/><path class="cls-60" d="M145.48,170.19l.16,0,.15.74a.08.08,0,0,1-.16,0Z" transform="translate(-31.84 -96.47)"/></g><g class="cls-47"><path class="cls-60" d="M146,170.09l.23,0,.31,1.51a.12.12,0,1,1-.23,0Z" transform="translate(-31.84 -96.47)"/><path class="cls-60" d="M146.55,170l.16,0,.15.74a.08.08,0,0,1-.16,0Z" transform="translate(-31.84 -96.47)"/></g><g class="cls-47"><path class="cls-60" d="M147.07,169.87l.23,0,.31,1.51a.12.12,0,1,1-.23,0Z" transform="translate(-31.84 -96.47)"/><path class="cls-60" d="M147.63,169.76l.16,0,.15.74a.08.08,0,1,1-.16,0Z" transform="translate(-31.84 -96.47)"/></g><g class="cls-47"><path class="cls-60" d="M148.14,169.65l.23,0,.31,1.51a.12.12,0,1,1-.23,0Z" transform="translate(-31.84 -96.47)"/><path class="cls-60" d="M148.7,169.54l.16,0,.15.74a.08.08,0,0,1-.16,0Z" transform="translate(-31.84 -96.47)"/></g><g class="cls-47"><path class="cls-60" d="M149.22,169.44l.23,0,.31,1.51a.12.12,0,1,1-.23,0Z" transform="translate(-31.84 -96.47)"/><path class="cls-60" d="M149.77,169.32l.16,0,.15.74a.08.08,0,1,1-.16,0Z" transform="translate(-31.84 -96.47)"/></g><g class="cls-47"><path class="cls-60" d="M150.29,169.22l.23,0,.31,1.51a.12.12,0,1,1-.23,0Z" transform="translate(-31.84 -96.47)"/><path class="cls-60" d="M150.85,169.11l.16,0,.15.74a.09.09,0,0,1-.07.1.08.08,0,0,1-.09-.07Z" transform="translate(-31.84 -96.47)"/></g><g class="cls-47"><path class="cls-60" d="M151.36,169l.23,0,.31,1.51a.13.13,0,0,1-.1.14.12.12,0,0,1-.14-.1Z" transform="translate(-31.84 -96.47)"/><path class="cls-60" d="M151.92,168.89l.16,0,.15.74a.09.09,0,0,1-.07.1.08.08,0,0,1-.09-.07Z" transform="translate(-31.84 -96.47)"/></g><g class="cls-47"><path class="cls-60" d="M152.43,168.79l.23,0,.31,1.51a.13.13,0,0,1-.1.14.12.12,0,0,1-.14-.1Z" transform="translate(-31.84 -96.47)"/><path class="cls-60" d="M153,168.67l.16,0,.15.74a.08.08,0,0,1-.06.1.09.09,0,0,1-.1-.07Z" transform="translate(-31.84 -96.47)"/></g><g class="cls-47"><path class="cls-60" d="M153.51,168.57l.23,0L154,170a.12.12,0,1,1-.23,0Z" transform="translate(-31.84 -96.47)"/><path class="cls-60" d="M154.07,168.45l.16,0,.15.74a.08.08,0,0,1-.06.1.08.08,0,0,1-.1-.07Z" transform="translate(-31.84 -96.47)"/></g><g class="cls-47"><path class="cls-60" d="M154.58,168.35l.23,0,.31,1.51a.12.12,0,0,1-.09.14.13.13,0,0,1-.14-.1Z" transform="translate(-31.84 -96.47)"/><path class="cls-60" d="M155.14,168.24l.16,0,.15.74a.08.08,0,0,1-.16,0Z" transform="translate(-31.84 -96.47)"/></g><g class="cls-47"><path class="cls-60" d="M155.66,168.13l.23,0,.31,1.51a.12.12,0,1,1-.23,0Z" transform="translate(-31.84 -96.47)"/><path class="cls-60" d="M156.21,168l.17,0,.15.73a.08.08,0,0,1-.16,0Z" transform="translate(-31.84 -96.47)"/></g><g class="cls-47"><path class="cls-60" d="M156.73,167.92l.23,0,.31,1.51a.12.12,0,1,1-.23,0Z" transform="translate(-31.84 -96.47)"/><path class="cls-60" d="M157.29,167.81l.16,0,.15.73a.08.08,0,0,1-.16,0Z" transform="translate(-31.84 -96.47)"/></g><g class="cls-47"><path class="cls-60" d="M157.8,167.71l.23,0,.31,1.51a.12.12,0,1,1-.23,0Z" transform="translate(-31.84 -96.47)"/><path class="cls-60" d="M158.36,167.59l.16,0,.15.73a.08.08,0,1,1-.16,0Z" transform="translate(-31.84 -96.47)"/></g><g class="cls-47"><path class="cls-60" d="M158.87,167.49l.23,0,.31,1.51a.12.12,0,1,1-.23,0Z" transform="translate(-31.84 -96.47)"/><path class="cls-60" d="M159.43,167.38l.16,0,.15.73a.08.08,0,0,1-.16,0Z" transform="translate(-31.84 -96.47)"/></g><g class="cls-47"><path class="cls-60" d="M159.95,167.27l.23,0,.31,1.51a.12.12,0,1,1-.23,0Z" transform="translate(-31.84 -96.47)"/><path class="cls-60" d="M160.51,167.16l.16,0,.15.73a.09.09,0,0,1-.07.1.08.08,0,0,1-.09-.07Z" transform="translate(-31.84 -96.47)"/></g><path class="cls-61" d="M107.4,176c-1.07,8.19,2.3,16.45,5.7,14.17,5.33-3.58,13.24-15.31,14-15.35a21.28,21.28,0,0,0,2.15.27,11.48,11.48,0,0,0,2.32-.35c.13,0,.29-.1.29-.23a.27.27,0,0,0-.13-.2,1.62,1.62,0,0,0-.94-.24c-.27,0-.62,0-.69-.3a.41.41,0,0,1,.17-.42,1.21,1.21,0,0,1,.44-.18c.84-.22,1.89-.41,2.73-.63-.51-.16-1.24-.32-1.76-.45a6.74,6.74,0,0,0-1.19-.2A15.93,15.93,0,0,0,128,172a7.62,7.62,0,0,0-2.64,1,10.86,10.86,0,0,0-1.77,1.19c-1.44,1.13-6.91,7.53-8.1,8.42" transform="translate(-31.84 -96.47)"/><path class="cls-61" d="M139.59,203.55a37.6,37.6,0,0,0-2.51,8.8c-.58,4,1.65,10.38,1.4,15a15.25,15.25,0,0,1-.55,3.73c-.43.8-1.39,1.68-1.48,2.75a1.64,1.64,0,0,0,1.06,1.6c.75.34,1.24-.05,1.5,0,1.55.13,1.84,1.25,4.51,1.59a4.25,4.25,0,0,0,2.79-.76.57.57,0,0,0,.1-.79c-.16-.23-2.13-.81-3-1.33a5.47,5.47,0,0,1-1.93-2.38,22.85,22.85,0,0,1,.4-4.22c1.15-7.49,2.57-18,3.33-22.41" transform="translate(-31.84 -96.47)"/><path class="cls-43" d="M146.52,236.41c.19-.32.23-.8,0-.92a15.38,15.38,0,0,0-1.67-.9c-.52-.21-1.34-.39-1-.25s-.23.71-.71.7c-1.67,0-2.91-1.07-3.87-1.27a2.55,2.55,0,0,1-1.77-2,6.42,6.42,0,0,0-1.23,1.79,3,3,0,0,0-.18,1.38,3,3,0,0,1,.17,1.3,2.65,2.65,0,0,0,1,.31,4.07,4.07,0,0,0,1.06,0l.11-.83a4.06,4.06,0,0,1,.85.05,2.81,2.81,0,0,1,1.3.65c.2.2.41.52.66.62a5.63,5.63,0,0,0,2.14.44C145.16,237.49,146.2,237,146.52,236.41Z" transform="translate(-31.84 -96.47)"/><path class="cls-61" d="M116.84,193.59l-12.08,6.91a7.62,7.62,0,0,0,6.23,5.71c3.17.68,8.16-.23,9.47-.16s22.16.82,22.16.82,2.07.45,2.44-1.18c.58-2.55,0-3.36-1.71-4.5C140.46,199.27,129.4,195.64,116.84,193.59Z" transform="translate(-31.84 -96.47)"/><path class="cls-62" d="M139.35,205.16a37.6,37.6,0,0,0,0,9.16c.55,4,4.67,10.69,5.71,15.22a15.26,15.26,0,0,1,.5,3.74c-.19.89-.87,2-.66,3a1.64,1.64,0,0,0,1.46,1.25c.81.12,1.17-.39,1.44-.44,1.53-.3,2.12.69,4.77.28a4.25,4.25,0,0,0,2.47-1.5.57.57,0,0,0-.12-.79c-.22-.18-2.27-.19-3.28-.44a5.47,5.47,0,0,1-2.52-1.75,22.84,22.84,0,0,1-.78-4.17c-1-7.52-2.86-20.18-3.34-24.59" transform="translate(-31.84 -96.47)"/><path class="cls-43" d="M155.31,236c.09-.36,0-.84-.21-.89a15.38,15.38,0,0,0-1.85-.41c-.56-.06-1.39,0-1.08.05s0,.75-.49.87c-1.62.42-3.1-.22-4.07-.15a2.55,2.55,0,0,1-2.26-1.46,6.42,6.42,0,0,0-.69,2.06,3,3,0,0,0,.2,1.37,3,3,0,0,1,.52,1.2,2.65,2.65,0,0,0,1,0,4.06,4.06,0,0,0,1-.31l-.13-.82a4.06,4.06,0,0,1,.83-.18,2.81,2.81,0,0,1,1.43.27,2.55,2.55,0,0,0,.81.41,5.63,5.63,0,0,0,2.18-.17C154.3,237.44,155.15,236.64,155.31,236Z" transform="translate(-31.84 -96.47)"/><path class="cls-62" d="M117.09,194.45,105,201.36s.48,4.4,6,5.57c3.17.68,8.44-.09,9.75,0s22.16.82,22.16.82,2,.44,2.14-1.23c.14-2.23.31-3.3-1.41-4.44C140.71,200.13,129.65,196.49,117.09,194.45Z" transform="translate(-31.84 -96.47)"/><path class="cls-43" d="M107.35,190.61s-3.78,7.36-2.81,10.5,2.81,6.1,8,6.14,18.2,0,18.2,0a19.52,19.52,0,0,1,1.59-5.51,16.09,16.09,0,0,1,3-3.77s-13.19-4.07-14.11-4.94a11.71,11.71,0,0,1-1.81-2.81" transform="translate(-31.84 -96.47)"/><path class="cls-59" d="M109.55,166.78a25.83,25.83,0,0,0-2.75,10.42A31.78,31.78,0,0,0,112,178" transform="translate(-31.84 -96.47)"/><path class="cls-59" d="M119.62,164c.69.23.43,1.88,1.13,2.11.5.17,1.49-.05,1.95.2,2.44,1.38,1.81,4.12,2.11,7.53,1,2.61,1.31,5,.48,6.44-1,1.81-2.1,2.32-3.36,3.82-.94,1.12-1.25,3.43-1.44,5.91,0,.43.32,1.18.22,1.59-.2.8-1.41,1-2.76,1.07-3.11.06-7.81-1.07-9.2-1s-2.54-.58-2.41-1.36c.09-.54.63-.76.84-1.8.47-2.29.83-8,1.19-10,.93-5,1.62-8.67,3.66-13.25" transform="translate(-31.84 -96.47)"/><path class="cls-58" d="M126.68,175.94a23.25,23.25,0,0,0-2.82-3.69l-2.65,1.19c1.25,2.39,1.47,5.21,2,7.83a6.19,6.19,0,0,0,1.53-.15c.26-.42.16-.21.5-.82A10.73,10.73,0,0,0,126.68,175.94Z" transform="translate(-31.84 -96.47)"/><path class="cls-62" d="M128.49,157.3a13.24,13.24,0,0,0,.45-3.43c-.08-2-.33-4.83-3.6-6s-6.9-.47-8,1.89-.82,5.94-1,7.86a11.8,11.8,0,0,1-1.56,4.2l7.06,3a13.38,13.38,0,0,1,1.63-2.81c.47-.3.64.89,2.21.76.67-.06,1.38-1.25,1.92-2.73l.05-.15a7.39,7.39,0,0,0,.84-.07c.49-.15.45-.36.34-.67A8,8,0,0,1,128.49,157.3Z" transform="translate(-31.84 -96.47)"/><path class="cls-62" d="M140,196.06a3.78,3.78,0,0,0,2.31,2,1.26,1.26,0,0,0,.81-.15c.41.11,1.63,0,1.07-.59a3.47,3.47,0,0,0,2.69.14c.32-.07.25-.45-.49-.52a3.61,3.61,0,0,1-2.51-1.5c.13-.14.28.05.69,0s.66-.24.64-.44-.57-.23-.7-.29l-1.47-.66a2.57,2.57,0,0,0-1.48-.28c-.1,0-1,.22-.75.53" transform="translate(-31.84 -96.47)"/><path class="cls-62" d="M123.46,177.3s3.71,10,4.35,10.8c2.54,3.21,12.52,8.27,12.52,8.27a2,2,0,0,0,1.24-2.18c-3.07-1.35-8.74-7.57-10-8.32-.8-.49-4.35-12.7-4.35-12.7" transform="translate(-31.84 -96.47)"/><path class="cls-59" d="M125,166.19c-2.68-1-5.25-1-7.3-3.08-2.08,1.6,2.52,10.88,3.66,11.13s2.68,5.37,3,6.07c3.71-.1,5.07-2.12,5.07-2.12C127.85,173.52,127.58,167.19,125,166.19Z" transform="translate(-31.84 -96.47)"/><path class="cls-43" d="M122.83,166.45c-.18-.7-.71-1.25-.83-2a3.21,3.21,0,0,1,.39-2.11,3.87,3.87,0,0,1,.92-.87c1.48-1.16,2-2.13,1.5-3.87a4.73,4.73,0,0,1-.25-1.75c.05-.53.16-1.09.74-1.16.4,0,.66.05.8.39s-.1,1.92.46,1a3.91,3.91,0,0,0,1-3.09c0-.25-.09-1.27.07-1.42a4,4,0,0,1,1.38,2.84,2.06,2.06,0,0,0,.95-1.78,4.71,4.71,0,0,0-.39-2.11,6.2,6.2,0,0,0-3.79-3.74,8.52,8.52,0,0,0-3.48-.92c-1.21,0-2.7.39-3.05,1.3-1.67-.43-2.63,1-3,1.56a8.52,8.52,0,0,0-1.29,2.49c-.43,1.32-.53,2.73-.86,4.08a5.94,5.94,0,0,1-1.59,3c-.82.74-2,.81-2.85,1.48a4.46,4.46,0,0,0-1.69,3.7c.06,1.42.79,2.94-.07,4.24-.28.42-.67.76-.94,1.19a3.22,3.22,0,0,0,.06,3.33,5.91,5.91,0,0,0,2.88,2.46,8.47,8.47,0,0,0,3.12.43c2-.11,3.74,0,5.9-1.83,1.22-1,.44-1.64,1.61-2.74.66-.62,1.59-.95,2.07-1.75a3.13,3.13,0,0,0,.31-2.25Z" transform="translate(-31.84 -96.47)"/></g></g></svg>