<svg xmlns="http://www.w3.org/2000/svg" xmlns:xlink="http://www.w3.org/1999/xlink" viewBox="0 0 792.07 645.07"><defs><style>.cls-1{opacity:0.31;}.cls-2{opacity:0.5;}.cls-3{fill:url(#linear-gradient);}.cls-4{fill:#5d9dc5;opacity:0.8;}.cls-5{fill:url(#linear-gradient-2);}.cls-6{fill:url(#linear-gradient-3);}.cls-7{fill:url(#linear-gradient-4);}.cls-8{fill:url(#linear-gradient-5);}.cls-9{fill:url(#linear-gradient-6);}.cls-10{fill:url(#linear-gradient-7);}.cls-11{fill:url(#linear-gradient-8);}.cls-12{fill:url(#linear-gradient-9);}.cls-13{fill:url(#linear-gradient-10);}.cls-14{fill:url(#linear-gradient-11);}.cls-15{fill:url(#linear-gradient-12);}.cls-16{fill:url(#linear-gradient-13);}.cls-17{fill:url(#linear-gradient-14);}.cls-18{fill:url(#linear-gradient-15);}.cls-19{fill:#fff;}.cls-20{fill:url(#linear-gradient-16);}.cls-21{fill:url(#linear-gradient-17);}.cls-22{fill:url(#linear-gradient-18);}.cls-23{fill:url(#linear-gradient-19);}.cls-24{fill:url(#linear-gradient-20);}.cls-25{fill:url(#linear-gradient-21);}.cls-26{fill:url(#linear-gradient-22);}.cls-27{fill:url(#linear-gradient-23);}.cls-28{fill:url(#linear-gradient-24);}.cls-29{fill:url(#linear-gradient-25);}.cls-30{fill:url(#linear-gradient-26);}.cls-31{fill:url(#linear-gradient-27);}.cls-32{fill:url(#linear-gradient-28);}.cls-33{fill:url(#linear-gradient-29);}.cls-34{fill:url(#linear-gradient-30);}.cls-35{fill:url(#linear-gradient-31);}.cls-36{fill:url(#linear-gradient-32);}.cls-37{fill:url(#linear-gradient-33);}.cls-38{fill:url(#linear-gradient-34);}.cls-39{fill:url(#linear-gradient-35);}.cls-40{fill:url(#linear-gradient-36);}.cls-41{fill:#9dc44d;}.cls-42{fill:url(#linear-gradient-37);}.cls-43{fill:url(#linear-gradient-38);}.cls-44{fill:url(#linear-gradient-39);}.cls-45{fill:url(#linear-gradient-40);}.cls-46{fill:#e5e5e6;}.cls-47{fill:url(#linear-gradient-41);}.cls-48{fill:url(#linear-gradient-42);}.cls-49{fill:url(#linear-gradient-43);}.cls-50{fill:url(#linear-gradient-44);}.cls-51{fill:url(#linear-gradient-45);}.cls-52{fill:url(#linear-gradient-46);}.cls-53{fill:url(#linear-gradient-47);}.cls-54{fill:url(#linear-gradient-48);}.cls-55{fill:url(#linear-gradient-49);}.cls-56{fill:url(#linear-gradient-50);}.cls-57{fill:url(#linear-gradient-51);}.cls-58{fill:url(#linear-gradient-52);}.cls-59{fill:url(#linear-gradient-53);}.cls-60{fill:url(#linear-gradient-54);}.cls-61{fill:url(#linear-gradient-55);}.cls-62{fill:#d6ac63;}.cls-63{fill:#547fb9;}.cls-64{fill:url(#linear-gradient-56);}.cls-65{fill:url(#linear-gradient-57);}.cls-66{fill:url(#linear-gradient-58);}.cls-67{fill:url(#linear-gradient-59);}.cls-68{fill:url(#linear-gradient-60);}.cls-69{fill:url(#linear-gradient-61);}.cls-70{fill:url(#linear-gradient-62);}.cls-71{fill:url(#linear-gradient-63);}.cls-72{fill:url(#linear-gradient-64);}.cls-73{fill:url(#linear-gradient-65);}.cls-74{fill:url(#linear-gradient-66);}.cls-75{fill:url(#linear-gradient-67);}.cls-76{fill:url(#linear-gradient-68);}.cls-77{fill:url(#linear-gradient-69);}.cls-78{fill:url(#linear-gradient-70);}.cls-79{fill:url(#linear-gradient-71);}.cls-80{fill:url(#linear-gradient-72);}.cls-81{fill:url(#linear-gradient-73);}.cls-82{fill:url(#linear-gradient-74);}.cls-83{fill:url(#linear-gradient-75);}.cls-84{fill:url(#linear-gradient-76);}.cls-85{fill:url(#linear-gradient-77);}.cls-86{fill:url(#linear-gradient-78);}.cls-87{fill:url(#linear-gradient-79);}.cls-88{fill:url(#linear-gradient-80);}.cls-89{fill:url(#linear-gradient-81);}.cls-90{fill:url(#linear-gradient-82);}.cls-91{fill:url(#linear-gradient-83);}.cls-92{fill:url(#linear-gradient-84);}.cls-93{fill:url(#linear-gradient-85);}.cls-94{fill:url(#linear-gradient-86);}.cls-95{fill:url(#linear-gradient-87);}.cls-96{fill:url(#linear-gradient-88);}.cls-97{fill:url(#linear-gradient-89);}.cls-98{fill:url(#linear-gradient-90);}.cls-99{fill:url(#linear-gradient-91);}.cls-100{fill:url(#linear-gradient-94);}.cls-101{fill:url(#linear-gradient-97);}.cls-102{fill:url(#linear-gradient-103);}</style><linearGradient id="linear-gradient" x1="618.16" y1="276.39" x2="618.16" y2="66.93" gradientUnits="userSpaceOnUse"><stop offset="0" stop-color="#5689ac"/><stop offset="1" stop-color="#72bfd0"/></linearGradient><linearGradient id="linear-gradient-2" x1="394.84" y1="499.09" x2="394.84" y2="193.55" gradientUnits="userSpaceOnUse"><stop offset="0" stop-color="#7fa0c1"/><stop offset="1" stop-color="#c6e3f0"/></linearGradient><linearGradient id="linear-gradient-3" x1="394.84" y1="491.42" x2="394.84" y2="549.63" xlink:href="#linear-gradient-2"/><linearGradient id="linear-gradient-4" x1="529.65" y1="668.79" x2="529.65" y2="598.24" xlink:href="#linear-gradient-2"/><linearGradient id="linear-gradient-5" x1="529.65" y1="596.27" x2="529.65" y2="282.25" gradientTransform="translate(119.12 940.17) rotate(-90)" gradientUnits="userSpaceOnUse"><stop offset="0" stop-color="#394967"/><stop offset="1" stop-color="#232d4a"/></linearGradient><linearGradient id="linear-gradient-6" x1="341.16" y1="513.99" x2="341.16" y2="338.27" gradientUnits="userSpaceOnUse"><stop offset="0" stop-color="#c6d4e5"/><stop offset="1" stop-color="#fff"/></linearGradient><linearGradient id="linear-gradient-7" x1="561.55" y1="513.99" x2="561.55" y2="338.27" xlink:href="#linear-gradient-6"/><linearGradient id="linear-gradient-8" x1="389.24" y1="285.9" x2="389.24" y2="316.53" gradientUnits="userSpaceOnUse"><stop offset="0" stop-color="#f0cd30"/><stop offset="1" stop-color="#e8ab28"/></linearGradient><linearGradient id="linear-gradient-9" x1="389.24" y1="285.9" x2="389.24" y2="316.53" xlink:href="#linear-gradient-8"/><linearGradient id="linear-gradient-10" x1="239.45" y1="447.62" x2="239.45" y2="252.53" xlink:href="#linear-gradient-6"/><linearGradient id="linear-gradient-11" x1="461.59" y1="549.22" x2="461.59" y2="358.68" xlink:href="#linear-gradient"/><linearGradient id="linear-gradient-12" x1="476.73" y1="142.69" x2="554.04" y2="142.69" xlink:href="#linear-gradient-8"/><linearGradient id="linear-gradient-13" x1="537.04" y1="193.8" x2="485.74" y2="193.8" gradientTransform="matrix(1, 0, 0, 1, 0, 0)" xlink:href="#linear-gradient-5"/><linearGradient id="linear-gradient-14" x1="537.04" y1="208.55" x2="485.74" y2="208.55" gradientTransform="matrix(1, 0, 0, 1, 0, 0)" xlink:href="#linear-gradient-5"/><linearGradient id="linear-gradient-15" x1="536.94" y1="227.88" x2="485.88" y2="227.88" gradientTransform="matrix(1, 0, 0, 1, 0, 0)" xlink:href="#linear-gradient-5"/><linearGradient id="linear-gradient-16" x1="690.96" y1="313.94" x2="690.96" y2="332" gradientTransform="matrix(1, 0, 0, 1, 0, 0)" xlink:href="#linear-gradient-5"/><linearGradient id="linear-gradient-17" x1="690.96" y1="312.08" x2="690.96" y2="300.46" xlink:href="#linear-gradient"/><linearGradient id="linear-gradient-18" x1="856.13" y1="380.87" x2="856.13" y2="398.93" gradientTransform="translate(-63.29 604.17) rotate(-37.58)" xlink:href="#linear-gradient-5"/><linearGradient id="linear-gradient-19" x1="793.25" y1="380.87" x2="793.25" y2="398.93" gradientTransform="translate(451.88 -421.82) rotate(40.79)" xlink:href="#linear-gradient-5"/><linearGradient id="linear-gradient-20" x1="690.96" y1="415.02" x2="690.96" y2="320.17" xlink:href="#linear-gradient"/><linearGradient id="linear-gradient-21" x1="825.77" y1="400.09" x2="825.77" y2="444.83" gradientTransform="matrix(1, 0, 0, 1, 0, 0)" xlink:href="#linear-gradient-5"/><linearGradient id="linear-gradient-22" x1="857.59" y1="400.09" x2="857.59" y2="444.83" gradientTransform="matrix(1, 0, 0, 1, 0, 0)" xlink:href="#linear-gradient-5"/><linearGradient id="linear-gradient-23" x1="825.77" y1="400.09" x2="825.77" y2="444.83" gradientTransform="matrix(1, 0, 0, 1, 0, 0)" xlink:href="#linear-gradient-5"/><linearGradient id="linear-gradient-24" x1="793.95" y1="400.09" x2="793.95" y2="444.83" gradientTransform="matrix(1, 0, 0, 1, 0, 0)" xlink:href="#linear-gradient-5"/><linearGradient id="linear-gradient-25" x1="831.17" y1="400.09" x2="831.17" y2="444.83" gradientTransform="matrix(1, 0, 0, 1, 0, 0)" xlink:href="#linear-gradient-5"/><linearGradient id="linear-gradient-26" x1="746.16" y1="236.75" x2="821.75" y2="236.75" gradientTransform="translate(1557.82 -31.16) rotate(144.1)" gradientUnits="userSpaceOnUse"><stop offset="0" stop-color="#f0cd30"/><stop offset="1" stop-color="#f2d84e"/></linearGradient><linearGradient id="linear-gradient-27" x1="735.28" y1="227.17" x2="806.19" y2="227.17" gradientTransform="translate(1528.27 -40.75) rotate(144.1)" xlink:href="#linear-gradient-8"/><linearGradient id="linear-gradient-28" x1="761.73" y1="246.32" x2="832.63" y2="246.32" gradientTransform="translate(1587.37 -21.59) rotate(144.1)" xlink:href="#linear-gradient-8"/><linearGradient id="linear-gradient-29" x1="795.3" y1="188.69" x2="842.18" y2="188.69" gradientTransform="translate(1592.6 -138.54) rotate(144.1)" gradientUnits="userSpaceOnUse"><stop offset="0" stop-color="#f5dec3"/><stop offset="1" stop-color="#f0c77c"/></linearGradient><linearGradient id="linear-gradient-30" x1="832.69" y1="195.62" x2="832.69" y2="142.55" gradientTransform="translate(1607.44 -184.33) rotate(144.1)" gradientUnits="userSpaceOnUse"><stop offset="0" stop-color="#dc5d17"/><stop offset="1" stop-color="#e79a49"/></linearGradient><linearGradient id="linear-gradient-31" x1="589.8" y1="224.69" x2="638.06" y2="224.69" gradientTransform="matrix(1, 0, 0, 1, 0, 0)" xlink:href="#linear-gradient-29"/><linearGradient id="linear-gradient-32" x1="607.28" y1="227.69" x2="594.49" y2="245.27" gradientUnits="userSpaceOnUse"><stop offset="0" stop-color="#3c2308"/><stop offset="1" stop-color="#4e3421"/></linearGradient><linearGradient id="linear-gradient-33" x1="310.89" y1="408.3" x2="310.89" y2="506.15" gradientTransform="matrix(1, 0, 0, 1, 0, 0)" xlink:href="#linear-gradient-5"/><linearGradient id="linear-gradient-34" x1="445.7" y1="498.55" x2="445.7" y2="462.51" gradientUnits="userSpaceOnUse"><stop offset="0" stop-color="#7b7b7b"/><stop offset="1" stop-color="#ededed"/></linearGradient><linearGradient id="linear-gradient-35" x1="237.43" y1="405.16" x2="237.43" y2="395.69" gradientTransform="matrix(1, 0, 0, 1, 0, 0)" xlink:href="#linear-gradient-30"/><linearGradient id="linear-gradient-36" x1="255.95" y1="394.51" x2="255.95" y2="403.4" xlink:href="#linear-gradient-8"/><linearGradient id="linear-gradient-37" x1="469.11" y1="457.08" x2="469.11" y2="700.45" xlink:href="#linear-gradient-34"/><linearGradient id="linear-gradient-38" x1="629.88" y1="457.08" x2="629.88" y2="700.45" xlink:href="#linear-gradient-34"/><linearGradient id="linear-gradient-39" x1="451.79" y1="681.52" x2="451.79" y2="458.5" gradientUnits="userSpaceOnUse"><stop offset="0" stop-color="#9b9b9b"/><stop offset="1" stop-color="#ededed"/></linearGradient><linearGradient id="linear-gradient-40" x1="747.36" y1="748.45" x2="747.36" y2="525.43" gradientTransform="translate(1494.72 1155.98) rotate(-180)" xlink:href="#linear-gradient-39"/><linearGradient id="linear-gradient-41" x1="458.08" y1="466.81" x2="458.08" y2="423.87" gradientTransform="matrix(1, 0, 0, 1, 0, 0)" xlink:href="#linear-gradient-30"/><linearGradient id="linear-gradient-42" x1="505.79" y1="466.81" x2="505.79" y2="423.87" gradientTransform="matrix(1, 0, 0, 1, 0, 0)" xlink:href="#linear-gradient-30"/><linearGradient id="linear-gradient-43" x1="563.81" y1="466.81" x2="563.81" y2="423.87" gradientTransform="matrix(1, 0, 0, 1, 0, 0)" xlink:href="#linear-gradient-30"/><linearGradient id="linear-gradient-44" x1="608.89" y1="466.81" x2="608.89" y2="423.87" gradientTransform="matrix(1, 0, 0, 1, 0, 0)" xlink:href="#linear-gradient-30"/><linearGradient id="linear-gradient-45" x1="458.08" y1="538.67" x2="458.08" y2="495.73" gradientTransform="matrix(1, 0, 0, 1, 0, 0)" xlink:href="#linear-gradient-30"/><linearGradient id="linear-gradient-46" x1="505.79" y1="538.67" x2="505.79" y2="495.73" gradientTransform="matrix(1, 0, 0, 1, 0, 0)" xlink:href="#linear-gradient-30"/><linearGradient id="linear-gradient-47" x1="563.81" y1="538.67" x2="563.81" y2="495.73" gradientTransform="matrix(1, 0, 0, 1, 0, 0)" xlink:href="#linear-gradient-30"/><linearGradient id="linear-gradient-48" x1="608.89" y1="538.67" x2="608.89" y2="495.73" gradientTransform="matrix(1, 0, 0, 1, 0, 0)" xlink:href="#linear-gradient-30"/><linearGradient id="linear-gradient-49" x1="476.81" y1="481.27" x2="587.53" y2="481.27" xlink:href="#linear-gradient-8"/><linearGradient id="linear-gradient-50" x1="359.58" y1="288.11" x2="359.58" y2="221.77" xlink:href="#linear-gradient"/><linearGradient id="linear-gradient-51" x1="324.55" y1="407.55" x2="324.55" y2="305.31" gradientTransform="matrix(1, 0, 0, 1, 0, 0)" xlink:href="#linear-gradient-30"/><linearGradient id="linear-gradient-52" x1="297.21" y1="660.49" x2="297.21" y2="559.1" gradientTransform="matrix(1, 0, 0, 1, 0, 0)" xlink:href="#linear-gradient-30"/><linearGradient id="linear-gradient-53" x1="297.21" y1="670.77" x2="297.21" y2="660.49" gradientTransform="matrix(1, 0, 0, 1, 0, 0)" xlink:href="#linear-gradient-30"/><linearGradient id="linear-gradient-54" x1="845.18" y1="695.89" x2="845.18" y2="586.93" gradientTransform="matrix(1, 0, 0, 1, 0, 0)" xlink:href="#linear-gradient-30"/><linearGradient id="linear-gradient-55" x1="710.37" y1="640.01" x2="710.37" y2="628.96" gradientTransform="matrix(1, 0, 0, 1, 0, 0)" xlink:href="#linear-gradient-30"/><linearGradient id="linear-gradient-56" x1="675.3" y1="310.46" x2="675.3" y2="290.17" gradientTransform="matrix(1, 0, 0, 1, 0, 0)" xlink:href="#linear-gradient-30"/><linearGradient id="linear-gradient-57" x1="591.07" y1="155.71" x2="612.44" y2="155.71" gradientTransform="matrix(1, 0, 0, 1, 0, 0)" xlink:href="#linear-gradient-29"/><linearGradient id="linear-gradient-58" x1="594.7" y1="169.43" x2="594.7" y2="151.12" gradientTransform="matrix(1, 0, 0, 1, 0, 0)" xlink:href="#linear-gradient-5"/><linearGradient id="linear-gradient-59" x1="602.26" y1="237.01" x2="602.26" y2="162.84" gradientTransform="matrix(1, 0, 0, 1, 0, 0)" xlink:href="#linear-gradient-30"/><linearGradient id="linear-gradient-60" x1="624.29" y1="237.01" x2="624.29" y2="162.84" gradientTransform="matrix(1, 0, 0, 1, 0, 0)" xlink:href="#linear-gradient-30"/><linearGradient id="linear-gradient-61" x1="584.34" y1="237.01" x2="584.34" y2="162.84" gradientTransform="matrix(1, 0, 0, 1, 0, 0)" xlink:href="#linear-gradient-30"/><linearGradient id="linear-gradient-62" x1="597.18" y1="232.16" x2="607.1" y2="232.16" gradientTransform="matrix(1, 0, 0, 1, 0, 0)" xlink:href="#linear-gradient-29"/><linearGradient id="linear-gradient-63" x1="466.17" y1="155.78" x2="514.31" y2="155.78" xlink:href="#linear-gradient-39"/><linearGradient id="linear-gradient-64" x1="618.29" y1="690.51" x2="618.29" y2="604.47" gradientUnits="userSpaceOnUse"><stop offset="0" stop-color="#6091d5"/><stop offset="1" stop-color="#3f6096"/></linearGradient><linearGradient id="linear-gradient-65" x1="642.63" y1="310.46" x2="642.63" y2="293.48" gradientTransform="matrix(1, 0, 0, 1, 0, 0)" xlink:href="#linear-gradient-30"/><linearGradient id="linear-gradient-66" x1="588.64" y1="140.17" x2="618.16" y2="140.17" xlink:href="#linear-gradient-8"/><linearGradient id="linear-gradient-67" x1="196.02" y1="702.51" x2="196.02" y2="625.65" xlink:href="#linear-gradient-64"/><linearGradient id="linear-gradient-68" x1="212.13" y1="694.57" x2="212.13" y2="707.65" gradientTransform="matrix(1, 0, 0, 1, 0, 0)" xlink:href="#linear-gradient-5"/><linearGradient id="linear-gradient-69" x1="180.66" y1="690.51" x2="180.66" y2="604.47" gradientUnits="userSpaceOnUse"><stop offset="0" stop-color="#6091d5"/><stop offset="1" stop-color="#4868a4"/></linearGradient><linearGradient id="linear-gradient-70" x1="177.01" y1="694.57" x2="177.01" y2="707.65" gradientTransform="matrix(1, 0, 0, 1, 0, 0)" xlink:href="#linear-gradient-5"/><linearGradient id="linear-gradient-71" x1="175.76" y1="606.1" x2="175.76" y2="488.06" xlink:href="#linear-gradient"/><linearGradient id="linear-gradient-72" x1="187.58" y1="483.26" x2="197.76" y2="483.26" gradientTransform="matrix(1, 0, 0, 1, 0, 0)" xlink:href="#linear-gradient-29"/><linearGradient id="linear-gradient-73" x1="134.81" y1="502.01" x2="146.09" y2="502.01" gradientTransform="matrix(1, 0, 0, 1, 0, 0)" xlink:href="#linear-gradient-29"/><linearGradient id="linear-gradient-74" x1="165.97" y1="535.9" x2="193.11" y2="535.9" gradientTransform="matrix(1, 0, 0, 1, 0, 0)" xlink:href="#linear-gradient-29"/><linearGradient id="linear-gradient-75" x1="176.03" y1="549.69" x2="171.04" y2="534.7" gradientTransform="matrix(1, 0, 0, 1, 0, 0)" xlink:href="#linear-gradient-5"/><linearGradient id="linear-gradient-76" x1="162.64" y1="524.92" x2="189.95" y2="524.92" xlink:href="#linear-gradient-8"/><linearGradient id="linear-gradient-77" x1="97.03" y1="561.64" x2="265.36" y2="382.48" xlink:href="#linear-gradient-34"/><linearGradient id="linear-gradient-78" x1="427.79" y1="540.93" x2="489.36" y2="540.93" gradientTransform="matrix(1, 0, 0, 1, 0, 0)" xlink:href="#linear-gradient-29"/><linearGradient id="linear-gradient-79" x1="479.91" y1="676.3" x2="494.07" y2="676.3" gradientTransform="matrix(1, 0, 0, 1, 0, 0)" xlink:href="#linear-gradient-29"/><linearGradient id="linear-gradient-80" x1="479.62" y1="704.39" x2="479.62" y2="712.1" xlink:href="#linear-gradient-32"/><linearGradient id="linear-gradient-81" x1="501.83" y1="676.3" x2="515.99" y2="676.3" gradientTransform="matrix(1, 0, 0, 1, 0, 0)" xlink:href="#linear-gradient-29"/><linearGradient id="linear-gradient-82" x1="505.02" y1="704.39" x2="505.02" y2="712.1" xlink:href="#linear-gradient-32"/><linearGradient id="linear-gradient-83" x1="498.21" y1="613.02" x2="498.21" y2="652.19" xlink:href="#linear-gradient-32"/><linearGradient id="linear-gradient-84" x1="491.72" y1="543.86" x2="511.72" y2="543.86" gradientTransform="matrix(1, 0, 0, 1, 0, 0)" xlink:href="#linear-gradient-29"/><linearGradient id="linear-gradient-85" x1="512.63" y1="569.75" x2="512.63" y2="526.19" xlink:href="#linear-gradient-32"/><linearGradient id="linear-gradient-86" x1="498.84" y1="632.11" x2="498.84" y2="558.01" gradientTransform="matrix(1, 0, 0, 1, 0, 0)" xlink:href="#linear-gradient-30"/><linearGradient id="linear-gradient-87" x1="487.86" y1="585.27" x2="525.03" y2="585.27" gradientTransform="matrix(1, 0, 0, 1, 0, 0)" xlink:href="#linear-gradient-29"/><linearGradient id="linear-gradient-88" x1="484.35" y1="529.07" x2="515.38" y2="529.07" xlink:href="#linear-gradient-8"/><linearGradient id="linear-gradient-89" x1="605" y1="541.36" x2="730" y2="541.36" gradientTransform="matrix(1, 0, 0, 1, 0, 0)" xlink:href="#linear-gradient-5"/><linearGradient id="linear-gradient-90" x1="470.19" y1="474.1" x2="595.19" y2="474.1" gradientTransform="matrix(1, 0, 0, 1, 0, 0)" xlink:href="#linear-gradient-5"/><linearGradient id="linear-gradient-91" x1="605" y1="541.05" x2="730" y2="541.05" gradientTransform="matrix(1, 0, 0, 1, 0, 0)" xlink:href="#linear-gradient-5"/><linearGradient id="linear-gradient-94" x1="606.85" y1="560.94" x2="733.51" y2="560.94" gradientTransform="matrix(1, 0, 0, 1, 0, 0)" xlink:href="#linear-gradient-5"/><linearGradient id="linear-gradient-97" x1="472.04" y1="494.01" x2="598.7" y2="494.01" gradientTransform="matrix(1, 0, 0, 1, 0, 0)" xlink:href="#linear-gradient-5"/><linearGradient id="linear-gradient-103" x1="606.85" y1="560.96" x2="733.51" y2="560.96" gradientTransform="matrix(1, 0, 0, 1, 0, 0)" xlink:href="#linear-gradient-5"/></defs><title>under_maintenance</title><g id="object"><g class="cls-1"><g class="cls-2"><path class="cls-3" d="M536.08,190.69a83.75,83.75,0,0,0,4.43,13.88l-.51.67-14.78,19.21a107.2,107.2,0,0,0,14,19.29l22.93-8.16.8-.29a84.43,84.43,0,0,0,11.73,8.51l0,.87L574,269a106,106,0,0,0,22.66,7.39l13.74-20.06.5-.73c2.4.21,4.81.37,7.26.37s4.87-.16,7.26-.37l.5.73,13.74,20.06A106,106,0,0,0,662.32,269l-.67-24.33,0-.87a84.42,84.42,0,0,0,11.73-8.51l.8.29,22.93,8.16a107.21,107.21,0,0,0,14-19.29l-14.78-19.21-.51-.67a83.72,83.72,0,0,0,4.43-13.88l.84-.25,23.3-6.86a105.15,105.15,0,0,0,0-23.84l-23.3-6.86-.84-.25a83.76,83.76,0,0,0-4.43-13.88l.51-.67,14.78-19.21a107.21,107.21,0,0,0-14-19.29l-22.93,8.16-.8.29a84.48,84.48,0,0,0-11.73-8.51l0-.86.67-24.33a106,106,0,0,0-22.66-7.39L625.92,87l-.5.73c-2.4-.21-4.81-.37-7.27-.37s-4.87.16-7.26.37l-.5-.73L596.65,66.93A106,106,0,0,0,574,74.32l.67,24.33,0,.87A84.44,84.44,0,0,0,563,108l-.8-.29-22.93-8.16a107.2,107.2,0,0,0-14,19.29L540,138.08l.51.67a83.76,83.76,0,0,0-4.43,13.88l-.84.25-23.3,6.86a105.15,105.15,0,0,0,0,23.84l23.3,6.86Zm38.41-19a43.66,43.66,0,1,1,43.66,43.66A43.66,43.66,0,0,1,574.5,171.66Z" transform="translate(-134.81 -66.93)"/></g><path class="cls-4" d="M647,405.47l-29.7,16.8a155.77,155.77,0,0,0,7.89,24.4l34-3.87a124.32,124.32,0,0,0,6.37,11l-20.31,27.44a157.85,157.85,0,0,0,17.18,19.05L691.76,483a125,125,0,0,0,10.29,7.48l-7.4,33.37a156.08,156.08,0,0,0,23.43,10.42l19.82-27.79a123.74,123.74,0,0,0,12.47,2.64l6.8,33.41c4.24.34,8.51.57,12.83.57s8.59-.22,12.83-.57l6.8-33.41a123.74,123.74,0,0,0,12.47-2.64l19.82,27.79a156.08,156.08,0,0,0,23.43-10.42L838,490.48A125,125,0,0,0,848.25,483l29.4,17.32a157.85,157.85,0,0,0,17.18-19.05l-20.31-27.44a124.32,124.32,0,0,0,6.37-11l34,3.87a155.8,155.8,0,0,0,7.89-24.4L893,405.47a125,125,0,0,0,1.32-12.67l32.51-10.25A157.55,157.55,0,0,0,924.23,357l-34-3.27a123.46,123.46,0,0,0-3.94-12.12L911.91,319a156.73,156.73,0,0,0-12.85-22.19l-32.37,10.83a125.26,125.26,0,0,0-8.51-9.47l14.14-31A157.4,157.4,0,0,0,851.6,252L826.41,275.1a123.78,123.78,0,0,0-11.63-5.19l.3-34.15a156.08,156.08,0,0,0-25.1-5.29l-13.6,31.28q-3.17-.16-6.37-.16t-6.37.16L750,230.47a156.07,156.07,0,0,0-25.1,5.29l.3,34.15a123.79,123.79,0,0,0-11.63,5.19L688.41,252a157.41,157.41,0,0,0-20.71,15.12l14.14,31a125.32,125.32,0,0,0-8.51,9.47L641,296.81A156.73,156.73,0,0,0,628.11,319l25.58,22.63a123.45,123.45,0,0,0-3.94,12.12l-34,3.27a157.55,157.55,0,0,0-2.65,25.52l32.51,10.25A125,125,0,0,0,647,405.47Zm59.76-19.34A63.28,63.28,0,1,1,770,449.4,63.28,63.28,0,0,1,706.73,386.13Z" transform="translate(-134.81 -66.93)"/></g><rect class="cls-5" x="126.03" y="193.55" width="537.61" height="305.54" rx="3.22" ry="3.22"/><polygon class="cls-6" points="447.52 499.09 342.15 499.09 328.5 551.37 461.18 551.37 447.52 499.09"/><path class="cls-7" d="M654.73,645.26H404.56a2.18,2.18,0,0,1-1.28-3.94l11.35-8.23a77.65,77.65,0,0,1,45.59-14.79H599.07a77.65,77.65,0,0,1,45.59,14.79L656,641.32A2.18,2.18,0,0,1,654.73,645.26Z" transform="translate(-134.81 -66.93)"/><rect class="cls-8" x="391.76" y="156.21" width="275.77" height="508.62" transform="translate(805.36 -186.05) rotate(90)"/><path class="cls-9" d="M362.74,318.73H319.58a8.27,8.27,0,0,1-8.27-8.27h0a8.27,8.27,0,0,1,8.27-8.27h43.16a8.27,8.27,0,0,1,8.27,8.27h0A8.27,8.27,0,0,1,362.74,318.73Z" transform="translate(-134.81 -66.93)"/><path class="cls-10" d="M395,318.73h333a8.27,8.27,0,0,0,8.27-8.27h0a8.27,8.27,0,0,0-8.27-8.27H395a8.27,8.27,0,0,0-8.27,8.27h0A8.27,8.27,0,0,0,395,318.73Z" transform="translate(-134.81 -66.93)"/><rect class="cls-11" x="176.5" y="281.23" width="425.48" height="13"/><rect class="cls-12" x="176.5" y="305.58" width="425.48" height="13"/><rect class="cls-13" x="176.5" y="335.78" width="125.92" height="106.21"/><rect class="cls-14" x="321.2" y="335.78" width="280.78" height="106.21"/><path class="cls-15" d="M554,136.39A38.66,38.66,0,1,0,485.57,161,41.78,41.78,0,0,1,495,187.64h40.69a43,43,0,0,1,9.74-27A38.47,38.47,0,0,0,554,136.39Z" transform="translate(-134.81 -66.93)"/><path class="cls-16" d="M534.65,187.64H496.12A6.16,6.16,0,0,0,490,193.8h0a6.16,6.16,0,0,0,6.16,6.16h38.53a6.16,6.16,0,0,0,6.16-6.16h0A6.16,6.16,0,0,0,534.65,187.64Z" transform="translate(-134.81 -66.93)"/><path class="cls-17" d="M534.65,202.39H496.12a6.16,6.16,0,0,0-6.16,6.16h0a6.16,6.16,0,0,0,6.16,6.16h38.53a6.16,6.16,0,0,0,6.16-6.16h0A6.16,6.16,0,0,0,534.65,202.39Z" transform="translate(-134.81 -66.93)"/><path class="cls-18" d="M533.35,218a1.81,1.81,0,0,1,1.78,2,19.84,19.84,0,0,1-39.48,0,1.81,1.81,0,0,1,1.78-2Z" transform="translate(-134.81 -66.93)"/><path class="cls-19" d="M528.2,138.15H528a7.91,7.91,0,0,0-7.91,7.91v6.15H510.7v-6.15a7.91,7.91,0,0,0-7.91-7.91h-.22a7.91,7.91,0,0,0,0,15.81h6.37v33.68h1.76V154h9.37v33.68h1.76V154h6.37a7.91,7.91,0,0,0,0-15.81Zm-19.26,14.06h-6.37a6.15,6.15,0,0,1,0-12.3h.22a6.16,6.16,0,0,1,6.15,6.15Zm19.26,0h-6.37v-6.15a6.16,6.16,0,0,1,6.15-6.15h.22a6.15,6.15,0,0,1,0,12.3Z" transform="translate(-134.81 -66.93)"/><rect class="cls-20" x="685.56" y="312.08" width="10.8" height="11.48"/><rect class="cls-21" x="681.93" y="300.46" width="18.06" height="11.62"/><rect class="cls-22" x="850.73" y="389.34" width="10.8" height="11.48" transform="translate(283.85 -507.11) rotate(37.58)"/><rect class="cls-23" x="787.85" y="391.1" width="10.8" height="11.48" transform="translate(-201.4 547.64) rotate(-40.79)"/><circle class="cls-24" cx="690.96" cy="367.6" r="47.43"/><circle class="cls-19" cx="690.96" cy="367.6" r="39.23"/><path class="cls-25" d="M825.77,408.09a1.76,1.76,0,0,1-1.76-1.76v-7.25a1.76,1.76,0,1,1,3.51,0v7.25A1.76,1.76,0,0,1,825.77,408.09Z" transform="translate(-134.81 -66.93)"/><path class="cls-26" d="M861.21,436.28H854a1.76,1.76,0,1,1,0-3.51h7.25a1.76,1.76,0,0,1,0,3.51Z" transform="translate(-134.81 -66.93)"/><path class="cls-27" d="M825.77,471.73A1.76,1.76,0,0,1,824,470v-7.25a1.76,1.76,0,1,1,3.51,0V470A1.76,1.76,0,0,1,825.77,471.73Z" transform="translate(-134.81 -66.93)"/><path class="cls-28" d="M797.57,436.28h-7.25a1.76,1.76,0,0,1,0-3.51h7.25a1.76,1.76,0,0,1,0,3.51Z" transform="translate(-134.81 -66.93)"/><path class="cls-29" d="M825.77,436.28h-.19a1.76,1.76,0,0,1-1.19-.66l-13.35-17a1.76,1.76,0,1,1,2.76-2.17L826,432l22.77-18.51a1.76,1.76,0,0,1,2.22,2.73l-24.16,19.63A1.76,1.76,0,0,1,825.77,436.28Z" transform="translate(-134.81 -66.93)"/><rect class="cls-30" x="774.35" y="185.56" width="19.21" height="102.37" transform="translate(1145.37 821.28) rotate(-144.1)"/><rect class="cls-31" x="764.02" y="175.99" width="13.44" height="102.37" transform="translate(1127.04 796.21) rotate(-144.1)"/><rect class="cls-32" x="790.46" y="195.13" width="13.44" height="102.37" transform="translate(1163.69 846.36) rotate(-144.1)"/><rect class="cls-33" x="795.7" y="180.56" width="46.08" height="16.27" transform="translate(1236.5 754.7) rotate(-144.1)"/><path class="cls-34" d="M810.53,151h46.08a0,0,0,0,1,0,0v29.87a4.46,4.46,0,0,1-4.46,4.46H815a4.46,4.46,0,0,1-4.46-4.46V151a0,0,0,0,1,0,0Z" transform="translate(1275.38 726.3) rotate(-144.1)"/><polygon class="cls-35" points="589.8 251.8 638.06 224.97 600.21 197.58 589.8 251.8"/><polygon class="cls-36" points="594.6 226.84 589.8 251.8 612.02 239.45 594.6 226.84"/><rect class="cls-37" x="225.27" y="389.79" width="171.23" height="122.42" rx="6.57" ry="6.57"/><path class="cls-38" d="M531.32,478v-14.7a6.57,6.57,0,0,0-6.57-6.57H366.65a6.57,6.57,0,0,0-6.57,6.57V478Z" transform="translate(-134.81 -66.93)"/><circle class="cls-39" cx="237.43" cy="400.43" r="4.74"/><circle class="cls-40" cx="255.95" cy="400.43" r="4.74"/><circle class="cls-41" cx="274.48" cy="400.43" r="4.74"/><path class="cls-19" d="M519.31,527.17l-23.85-23.85a2.41,2.41,0,0,0-3.4,3.4l22.15,22.15L492.05,551a2.41,2.41,0,1,0,3.4,3.4l23.85-23.85A2.41,2.41,0,0,0,519.31,527.17Z" transform="translate(-134.81 -66.93)"/><path class="cls-19" d="M399.35,503.32a2.41,2.41,0,0,0-3.4,0l-23.85,23.85a2.41,2.41,0,0,0,0,3.4l23.85,23.85a2.41,2.41,0,1,0,3.4-3.4l-22.15-22.15,22.15-22.15A2.41,2.41,0,0,0,399.35,503.32Z" transform="translate(-134.81 -66.93)"/><path class="cls-19" d="M439.66,498.07a2.41,2.41,0,0,0-3.18,1.21L409.74,558.9a2.41,2.41,0,1,0,4.39,2l26.73-59.62A2.41,2.41,0,0,0,439.66,498.07Z" transform="translate(-134.81 -66.93)"/><path class="cls-19" d="M436.08,536.89c-5.17,0-5.17,8,0,8S441.26,536.89,436.08,536.89Z" transform="translate(-134.81 -66.93)"/><path class="cls-19" d="M452.13,536.89c-5.17,0-5.17,8,0,8S457.3,536.89,452.13,536.89Z" transform="translate(-134.81 -66.93)"/><path class="cls-19" d="M468.17,536.89c-5.17,0-5.17,8,0,8S473.34,536.89,468.17,536.89Z" transform="translate(-134.81 -66.93)"/><polygon class="cls-42" points="495.66 598.25 477.21 598.25 442.56 423.87 461.01 423.87 495.66 598.25"/><polygon class="cls-43" points="637.98 598.25 656.43 598.25 621.77 423.87 603.33 423.87 637.98 598.25"/><rect class="cls-44" x="442.56" y="423.87" width="18.45" height="174.38"/><rect class="cls-45" x="738.13" y="490.8" width="18.45" height="174.38" transform="translate(1359.91 1089.04) rotate(180)"/><rect class="cls-46" x="431.93" y="423.87" width="200.47" height="42.94"/><polygon class="cls-47" points="457.52 423.87 431.93 447.63 431.93 466.81 438 466.81 484.23 423.87 457.52 423.87"/><polygon class="cls-48" points="515.55 423.87 469.31 466.81 496.02 466.81 542.26 423.87 515.55 423.87"/><polygon class="cls-49" points="573.58 423.87 527.34 466.81 554.05 466.81 600.29 423.87 573.58 423.87"/><polygon class="cls-50" points="632.4 423.87 631.61 423.87 585.37 466.81 612.08 466.81 632.4 447.94 632.4 423.87"/><rect class="cls-46" x="431.93" y="495.73" width="200.47" height="42.94"/><polygon class="cls-51" points="457.52 495.73 431.93 519.5 431.93 538.67 438 538.67 484.23 495.73 457.52 495.73"/><polygon class="cls-52" points="515.55 495.73 469.31 538.67 496.02 538.67 542.26 495.73 515.55 495.73"/><polygon class="cls-53" points="573.58 495.73 527.34 538.67 554.05 538.67 600.29 495.73 573.58 495.73"/><polygon class="cls-54" points="632.4 495.73 631.61 495.73 585.37 538.67 612.08 538.67 632.4 519.8 632.4 495.73"/><rect class="cls-55" x="476.81" y="451" width="110.72" height="60.54"/><path class="cls-56" d="M385.84,260.89l7.38-2.17a33.29,33.29,0,0,0,0-7.55L385.84,249l-.27-.08a26.56,26.56,0,0,0-1.4-4.4l.16-.21,4.68-6.08a33.93,33.93,0,0,0-4.44-6.11l-7.26,2.58-.25.09a26.73,26.73,0,0,0-3.72-2.7v-.27l.21-7.71a33.57,33.57,0,0,0-7.17-2.34L362,228.13l-.16.23c-.76-.06-1.52-.12-2.3-.12s-1.54.05-2.3.12l-.16-.23-4.35-6.35a33.58,33.58,0,0,0-7.17,2.34l.21,7.71v.27a26.75,26.75,0,0,0-3.72,2.7l-.25-.09-7.26-2.58a33.93,33.93,0,0,0-4.44,6.11l4.68,6.08.16.21a26.53,26.53,0,0,0-1.4,4.4l-.27.08-7.38,2.17a33.29,33.29,0,0,0,0,7.55l7.38,2.17.27.08a26.52,26.52,0,0,0,1.4,4.4l-.16.21-4.68,6.08a33.94,33.94,0,0,0,4.44,6.11l7.26-2.58.25-.09a26.75,26.75,0,0,0,3.72,2.7v.27l-.21,7.7a33.56,33.56,0,0,0,7.17,2.34l4.35-6.35.16-.23c.76.06,1.52.12,2.3.12s1.54-.05,2.3-.12l.16.23,4.35,6.35a33.56,33.56,0,0,0,7.17-2.34l-.21-7.7v-.27a26.77,26.77,0,0,0,3.72-2.7l.25.09,7.26,2.58a33.94,33.94,0,0,0,4.44-6.11l-4.68-6.08-.16-.21a26.54,26.54,0,0,0,1.4-4.4Zm-26.26,7.88a13.83,13.83,0,1,1,13.83-13.83A13.83,13.83,0,0,1,359.58,268.77Z" transform="translate(-134.81 -66.93)"/><path class="cls-57" d="M368.62,341.56l11.52-3.63a55.86,55.86,0,0,0-.94-9l-12-1.16a43.67,43.67,0,0,0-1.4-4.29l9.06-8a55.54,55.54,0,0,0-4.55-7.86l-11.47,3.84a44.43,44.43,0,0,0-3-3.36l5-11a55.78,55.78,0,0,0-7.34-5.36l-8.93,8.18a43.87,43.87,0,0,0-4.12-1.84l.11-12.1a55.33,55.33,0,0,0-8.89-1.87l-4.82,11.08q-1.12-.06-2.26-.06t-2.26.06L317.47,284a55.34,55.34,0,0,0-8.89,1.87l.11,12.1a43.87,43.87,0,0,0-4.12,1.84l-8.93-8.18a55.77,55.77,0,0,0-7.34,5.36l5,11a44.42,44.42,0,0,0-3,3.36l-11.47-3.84a55.54,55.54,0,0,0-4.55,7.86l9.06,8a43.68,43.68,0,0,0-1.4,4.29l-12,1.16a55.83,55.83,0,0,0-.94,9l11.52,3.63a44.22,44.22,0,0,0,.47,4.49l-10.52,6a55.21,55.21,0,0,0,2.79,8.65l12-1.37a44.09,44.09,0,0,0,2.26,3.9l-7.2,9.72a55.92,55.92,0,0,0,6.09,6.75l10.42-6.14a44.28,44.28,0,0,0,3.65,2.65L297.85,388a55.29,55.29,0,0,0,8.3,3.69l7-9.85a43.89,43.89,0,0,0,4.42.94L320,394.62c1.5.12,3,.2,4.55.2s3-.08,4.55-.2l2.41-11.84a43.88,43.88,0,0,0,4.42-.94l7,9.85a55.29,55.29,0,0,0,8.3-3.69l-2.62-11.82a44.29,44.29,0,0,0,3.65-2.65l10.42,6.14a55.94,55.94,0,0,0,6.09-6.75l-7.2-9.72a44.09,44.09,0,0,0,2.26-3.9l12,1.37a55.21,55.21,0,0,0,2.79-8.65l-10.52-6A44.29,44.29,0,0,0,368.62,341.56Zm-44.07,20.06A22.42,22.42,0,1,1,347,339.2,22.42,22.42,0,0,1,324.55,361.62Z" transform="translate(-134.81 -66.93)"/><path class="cls-58" d="M297.21,559.1h0A15.43,15.43,0,0,0,283,568.62L244.9,660.49H349.51l-38.05-91.87A15.43,15.43,0,0,0,297.21,559.1Z" transform="translate(-134.81 -66.93)"/><path class="cls-59" d="M364.62,670.77H229.79a5.14,5.14,0,0,1-5.14-5.14h0a5.14,5.14,0,0,1,5.14-5.14H364.62a5.14,5.14,0,0,1,5.14,5.14h0A5.14,5.14,0,0,1,364.62,670.77Z" transform="translate(-134.81 -66.93)"/><polygon class="cls-46" points="178.62 506.46 146.17 506.46 137.94 526.34 186.86 526.34 178.62 506.46"/><polygon class="cls-46" points="120.82 567.65 203.97 567.65 195.74 547.77 129.06 547.77 120.82 567.65"/><path class="cls-60" d="M845.18,586.93h0a16.58,16.58,0,0,0-15.32,10.23L789,695.89H901.39l-40.9-98.73A16.58,16.58,0,0,0,845.18,586.93Z" transform="translate(-134.81 -66.93)"/><rect class="cls-61" x="632.59" y="628.96" width="155.56" height="11.05" rx="5.52" ry="5.52"/><polygon class="cls-46" points="727.81 535.36 692.93 535.36 684.08 556.72 736.66 556.72 727.81 535.36"/><polygon class="cls-46" points="665.69 601.12 755.05 601.12 746.2 579.75 674.54 579.75 665.69 601.12"/><path class="cls-62" d="M607.61,171.66c-2.42,2-5.28,1.69-8.42,0v-9.52h8.42Z" transform="translate(-134.81 -66.93)"/><path class="cls-63" d="M675.51,258c1.41-5.14-1.39-10.52-6.17-11.82l-36-9.82-27.51-.5,2.93,9.28c0,9.05,6.74,16.39,15.05,16.39h35.31l4.06,31.17,12.1-2.49Z" transform="translate(-134.81 -66.93)"/><path class="cls-64" d="M687.4,303a6.55,6.55,0,0,0-8.85-5.85l-3.3,1.2.05-8.14-12.1,2.49,1.53,11.77a5.12,5.12,0,0,0,4.76,6l15.75-5.05a2.25,2.25,0,0,0,2.15-2.34S687.41,303,687.4,303Z" transform="translate(-134.81 -66.93)"/><path class="cls-65" d="M600.81,168A14.05,14.05,0,0,1,595,165.1c-2.19-2.14-2.8-5.39-3.18-8.43s-.62-6-.75-9a5.36,5.36,0,0,1,.5-3.09,5,5,0,0,1,3.55-1.86,27.13,27.13,0,0,1,16.32,2.15,55.58,55.58,0,0,0,.53,14.5c.41,2.41.93,5.08-.38,7.15a6.19,6.19,0,0,1-5,2.56A17.1,17.1,0,0,1,600.81,168Z" transform="translate(-134.81 -66.93)"/><path class="cls-66" d="M589,144.58a68.59,68.59,0,0,0,.7,15.31,11.21,11.21,0,0,0,.79,3,4.23,4.23,0,0,0,2.1,2.18,4,4,0,0,0,4.11-.91,7.3,7.3,0,0,0,2-3.89c.24-1.09-1-1.81-1.85-2.49a7.61,7.61,0,0,1-2.36-2.32,3,3,0,0,1,0-2.87,2.56,2.56,0,0,1,2.54-1.22,2.23,2.23,0,0,1,1.83,2.07c.46-.37,1.07-.71,1.54-1.08a5.8,5.8,0,0,1-2.27-3.8,5.63,5.63,0,0,1,1-4.23A14.81,14.81,0,0,0,589,144.58Z" transform="translate(-134.81 -66.93)"/><path class="cls-67" d="M616.87,172.47l-9.26-.81h-8.42L585.72,173l-4,64.22,41-1.44-4.26-63A8,8,0,0,0,616.87,172.47Z" transform="translate(-134.81 -66.93)"/><path class="cls-68" d="M630.08,227.74l-5.94-48.25a8,8,0,0,0-5.65-6.69l4.26,63,4.85-.17Z" transform="translate(-134.81 -66.93)"/><path class="cls-69" d="M585.72,173l-2.29.38a6.52,6.52,0,0,0-5.2,4.59l-10,34.1A7.66,7.66,0,0,0,572,221l25.21,13.32,3.62-4.83-20.86-17,4.21-13.83Z" transform="translate(-134.81 -66.93)"/><path class="cls-70" d="M600.8,229.53a14.6,14.6,0,0,1,6.3.48l-.73,3.59a7.33,7.33,0,0,1-5.93.77,2.7,2.7,0,0,1-3.26,0Z" transform="translate(-134.81 -66.93)"/><polygon class="cls-71" points="466.17 169.38 502.61 169.38 514.31 142.18 477.87 142.18 466.17 169.38"/><path class="cls-72" d="M654.42,258a9.4,9.4,0,0,0-6.72-11.82l-39.16-9.82-26.77.94v7.84a16.39,16.39,0,0,0,16.39,16.39H636.6l-4.88,32h12Z" transform="translate(-134.81 -66.93)"/><path class="cls-73" d="M648.39,301.24h-7l2.33-7.76h-12l-1.67,10.95a5.25,5.25,0,0,0,5.19,6h17.68a2.34,2.34,0,0,0,2.34-2.34A6.88,6.88,0,0,0,648.39,301.24Z" transform="translate(-134.81 -66.93)"/><path class="cls-74" d="M616.58,141.7l-4.67.51a11.83,11.83,0,0,0-23.25,3.61c0,.38,0,.75.09,1.12,7.83-.31,15.78-.95,23.6-2l4.51-.37a1.42,1.42,0,1,0-.27-2.84Z" transform="translate(-134.81 -66.93)"/><path class="cls-75" d="M205.84,602.7l-26.59-.62c12,34.41,20.27,65.78,20.36,90.56h12C214.66,668.68,211.36,637,205.84,602.7Z" transform="translate(-134.81 -66.93)"/><path class="cls-76" d="M218.24,700.4h-7l.35-7.76h-12l1.12,10.95a7.15,7.15,0,0,0,6.72,6h15.38a1.76,1.76,0,0,0,1.75-2.34C223.61,703.48,223,700.4,218.24,700.4Z" transform="translate(-134.81 -66.93)"/><path class="cls-77" d="M195.22,605.08l-26.43-.62c3.26,34.41,3.54,65.78-2.68,90.56h12C187.26,671.06,192,639.42,195.22,605.08Z" transform="translate(-134.81 -66.93)"/><path class="cls-78" d="M182.77,702.78h-7l2.33-7.76h-12L164.44,706a5.25,5.25,0,0,0,5.19,6h17.68a2.34,2.34,0,0,0,2.34-2.34A6.88,6.88,0,0,0,182.77,702.78Z" transform="translate(-134.81 -66.93)"/><path class="cls-79" d="M166,553.36l11.9-2,8.42-1.15h8.12l9.66-27.31L190,491.72l6.07-3.66,18.52,32.69a8.73,8.73,0,0,1,.78,6.78l-11.54,39.16,1.9,36s-19.18,6.3-36.9,1.76L166,572l-24-22.94a13.67,13.67,0,0,1-4.21-9.07l-1.87-31.1,7,.59,5.71,29.28Z" transform="translate(-134.81 -66.93)"/><path class="cls-80" d="M190,491.72l-1.73-3.26a5.45,5.45,0,0,1,.83-6.28l6.89-7.37,1.38,3.4a5.9,5.9,0,0,1-1.29,6.4l-1.18,1.18,1.17,2.27Z" transform="translate(-134.81 -66.93)"/><path class="cls-81" d="M142.87,509.44v-.59a5.52,5.52,0,0,1,1.64-3.92l1.58-1.56-5.49-8.78-3.22,2.73a7.27,7.27,0,0,0-2.44,6.95l.9,4.6Z" transform="translate(-134.81 -66.93)"/><path class="cls-62" d="M186.29,551.37c-2.42,2-5.28,1.69-8.42,0v-9.52h8.42Z" transform="translate(-134.81 -66.93)"/><path class="cls-82" d="M183.71,548.55a14.06,14.06,0,0,1-6.47-.41c-2.86-1.11-4.7-3.85-6.25-6.49s-2.93-5.25-4.23-8a5.36,5.36,0,0,1-.76-3,5,5,0,0,1,2.53-3.1,27.13,27.13,0,0,1,15.85-4.45,55.59,55.59,0,0,0,6.2,13.12c1.32,2.06,2.86,4.31,2.47,6.72a6.19,6.19,0,0,1-3.62,4.34A17.1,17.1,0,0,1,183.71,548.55Z" transform="translate(-134.81 -66.93)"/><path class="cls-83" d="M163.66,531.64a68.6,68.6,0,0,0,6.67,13.8,11.2,11.2,0,0,0,1.9,2.43,4.23,4.23,0,0,0,2.79,1.18,4,4,0,0,0,3.42-2.46,7.3,7.3,0,0,0,.32-4.37c-.21-1.09-1.6-1.28-2.68-1.55a7.61,7.61,0,0,1-3.09-1.2,3,3,0,0,1-1.09-2.66,2.56,2.56,0,0,1,1.86-2.12,2.23,2.23,0,0,1,2.5,1.18c.28-.52.71-1.08,1-1.6a5.8,5.8,0,0,1-3.58-2.6,5.63,5.63,0,0,1-.71-4.3A14.8,14.8,0,0,0,163.66,531.64Z" transform="translate(-134.81 -66.93)"/><path class="cls-84" d="M187.83,518.14l-4.09,2.31a11.83,11.83,0,0,0-20,12.48c.16.34.34.67.52,1,7.08-3.38,14.13-7.09,20.89-11.17l4-2.11a1.42,1.42,0,1,0-1.37-2.5Z" transform="translate(-134.81 -66.93)"/><path class="cls-85" d="M208.44,411.36,140,479.55a18.46,18.46,0,0,0,1.16,26.7c7.48,6.55,18.91,5.68,25.8-1.48l65.47-65.07a34.07,34.07,0,0,0,42.87-24.1,2.13,2.13,0,0,0-3.06-2.39l-22,11.57-18.91-11.94.88-22.35,22-11.57a2.13,2.13,0,0,0-.23-3.88,34.09,34.09,0,0,0-45.51,36.31ZM147,485.86a8.94,8.94,0,1,1,.24,12.63A8.94,8.94,0,0,1,147,485.86Z" transform="translate(-134.81 -66.93)"/><path class="cls-86" d="M487.59,558.59,448,527.2s-6-6.49-10.93-8.95l-6.85-4.72A1.56,1.56,0,0,0,428,514h0a1.56,1.56,0,0,0,.28,2l6.45,5.65s-2.16,10.83,9.39,10.53L483.5,568.6h3.31l2.55-8.21Z" transform="translate(-134.81 -66.93)"/><path class="cls-62" d="M497,558.72a6.65,6.65,0,0,0,7.88.69V551H497Z" transform="translate(-134.81 -66.93)"/><path class="cls-87" d="M494.07,646.93l-14.15,1.3a390.46,390.46,0,0,0,3.5,56.86,5.57,5.57,0,0,0,5.57-.33h0C488.07,677.94,494.07,646.93,494.07,646.93Z" transform="translate(-134.81 -66.93)"/><path class="cls-88" d="M483.43,705.09c-6.93,1.62-14.78,6.7-14.78,6.7h21.94c-.64-2.32-1.15-4.67-1.58-7h0A5.57,5.57,0,0,1,483.43,705.09Z" transform="translate(-134.81 -66.93)"/><path class="cls-89" d="M516,646.93l-14.15,1.3c-.27,32.48,7,56.86,7,56.86a5.57,5.57,0,0,0,5.57-.33h0C512.58,678.69,516,646.93,516,646.93Z" transform="translate(-134.81 -66.93)"/><path class="cls-90" d="M508.83,705.09c-6.93,1.62-14.78,6.7-14.78,6.7H516c-.64-2.32-1.15-4.67-1.58-7h0A5.57,5.57,0,0,1,508.83,705.09Z" transform="translate(-134.81 -66.93)"/><path class="cls-91" d="M515.88,610.52l3.58,38s-24.94,5.31-42.5,0l6-39.38Z" transform="translate(-134.81 -66.93)"/><path class="cls-92" d="M502.61,555.38a13.15,13.15,0,0,0,5.41-2.74c2-2,2.62-5,3-7.89s.58-5.6.7-8.41a5,5,0,0,0-.47-2.89,4.7,4.7,0,0,0-3.32-1.74,25.39,25.39,0,0,0-15.27,2,52,52,0,0,1-.49,13.57c-.38,2.26-.87,4.76.36,6.69a5.79,5.79,0,0,0,4.72,2.4A16,16,0,0,0,502.61,555.38Z" transform="translate(-134.81 -66.93)"/><path class="cls-93" d="M519,546.71c-1-1-2.71-1.19-3.47-2.38s-.21-2.84,0-4.28a8.45,8.45,0,0,0-13.86-7.73,7.73,7.73,0,0,0,.2,8.11,23.66,23.66,0,0,1,1.41,2,9.28,9.28,0,0,1,.8,3q.47,3.21,1,6.43.68,4.47,1.37,8.95a21.62,21.62,0,0,0,1.12,4.8,11,11,0,0,0,7.24,6.4,8.77,8.77,0,0,0,6.82-.83,6.35,6.35,0,0,0,3-5.95c-.46-3.69-4.49-6.14-5-9.83a18.66,18.66,0,0,1,.4-4.51A5,5,0,0,0,519,546.71Z" transform="translate(-134.81 -66.93)"/><path class="cls-94" d="M487.59,558.59s7.68,0,9.46.13c1.74.77,3.4,1.58,7.88.69l12.84,5.18-1.89,45.92s-20.67,2.77-32.91-1.39l.92-26.21S474,575.24,485.51,567Z" transform="translate(-134.81 -66.93)"/><polygon class="cls-19" points="360.63 506.63 354.56 535.96 372.76 540.58 379.01 511.71 360.63 506.63"/><path class="cls-95" d="M517.76,564.59s-7.08,3.77-3.23,13.78l2,20.94L497,596.2l-5.53-3.69.72-3.46s-8.44,1.5-1.86,9l5.07,2.88,22.71,4.88A5.68,5.68,0,0,0,525,600.2C524.89,589.25,523.79,569,517.76,564.59Z" transform="translate(-134.81 -66.93)"/><path class="cls-96" d="M503.3,522a12.5,12.5,0,0,0-12.37,9.25l-4.91-.54a1.5,1.5,0,1,0-.28,3l4.74.38c8.23,1.14,16.58,1.81,24.82,2.14,0-.39.08-.78.09-1.17A12.57,12.57,0,0,0,503.3,522Z" transform="translate(-134.81 -66.93)"/><path d="M630,550.26a8.3,8.3,0,0,0,1.94-1.7,7.58,7.58,0,0,0,1.27-2.21,7.4,7.4,0,0,0,.46-2.6V531h-5.62v12.45a2.37,2.37,0,0,1-.23,1.05,2.67,2.67,0,0,1-.62.83,2.85,2.85,0,0,1-.9.55,3,3,0,0,1-1.08.2,2.91,2.91,0,0,1-1.05-.2,2.86,2.86,0,0,1-.9-.55,2.7,2.7,0,0,1-.62-.83,2.37,2.37,0,0,1-.23-1.05V531h-5.62v12.79a7.38,7.38,0,0,0,.46,2.6,7.55,7.55,0,0,0,1.27,2.21,8.29,8.29,0,0,0,1.94,1.7,9.58,9.58,0,0,0,2.42,1.11,9,9,0,0,0,1.16.29,6.73,6.73,0,0,0,1.18.1,7,7,0,0,0,1.2-.1,8.93,8.93,0,0,0,1.17-.29A9.62,9.62,0,0,0,630,550.26Z" transform="translate(-134.81 -66.93)"/><path class="cls-97" d="M630,550.26a8.3,8.3,0,0,0,1.94-1.7,7.58,7.58,0,0,0,1.27-2.21,7.4,7.4,0,0,0,.46-2.6V531h-5.62v12.45a2.37,2.37,0,0,1-.23,1.05,2.67,2.67,0,0,1-.62.83,2.85,2.85,0,0,1-.9.55,3,3,0,0,1-1.08.2,2.91,2.91,0,0,1-1.05-.2,2.86,2.86,0,0,1-.9-.55,2.7,2.7,0,0,1-.62-.83,2.37,2.37,0,0,1-.23-1.05V531h-5.62v12.79a7.38,7.38,0,0,0,.46,2.6,7.55,7.55,0,0,0,1.27,2.21,8.29,8.29,0,0,0,1.94,1.7,9.58,9.58,0,0,0,2.42,1.11,9,9,0,0,0,1.16.29,6.73,6.73,0,0,0,1.18.1,7,7,0,0,0,1.2-.1,8.93,8.93,0,0,0,1.17-.29A9.62,9.62,0,0,0,630,550.26Z" transform="translate(-134.81 -66.93)"/><polygon points="519.77 464.03 514.36 464.03 514.36 474.9 507.34 464.03 501.99 464.03 501.99 484.18 507.37 484.18 507.37 473.41 514.36 484.18 519.77 484.18 519.77 464.03"/><polygon class="cls-98" points="519.77 464.03 514.36 464.03 514.36 474.9 507.34 464.03 501.99 464.03 501.99 484.18 507.37 484.18 507.37 473.41 514.36 484.18 519.77 484.18 519.77 464.03"/><path d="M674.42,548.18a10.05,10.05,0,0,0,2.17-3.21,10.11,10.11,0,0,0,0-7.85,10.05,10.05,0,0,0-2.17-3.21,10.32,10.32,0,0,0-3.22-2.16,9.92,9.92,0,0,0-4-.79h-9v20.18h9a9.9,9.9,0,0,0,4-.79A10.32,10.32,0,0,0,674.42,548.18Zm-5.76-2.37a5.15,5.15,0,0,1-2,.4h-3.09V535.87h3.09a5.14,5.14,0,0,1,4.8,3.16,5.23,5.23,0,0,1,0,4,5.11,5.11,0,0,1-2.76,2.76Z" transform="translate(-134.81 -66.93)"/><path class="cls-99" d="M674.42,548.18a10.05,10.05,0,0,0,2.17-3.21,10.11,10.11,0,0,0,0-7.85,10.05,10.05,0,0,0-2.17-3.21,10.32,10.32,0,0,0-3.22-2.16,9.92,9.92,0,0,0-4-.79h-9v20.18h9a9.9,9.9,0,0,0,4-.79A10.32,10.32,0,0,0,674.42,548.18Zm-5.76-2.37a5.15,5.15,0,0,1-2,.4h-3.09V535.87h3.09a5.14,5.14,0,0,1,4.8,3.16,5.23,5.23,0,0,1,0,4,5.11,5.11,0,0,1-2.76,2.76Z" transform="translate(-134.81 -66.93)"/><polygon points="561.11 479.42 550.27 479.42 550.27 476.53 560.48 476.53 560.48 471.72 550.27 471.72 550.27 468.84 561.11 468.84 561.11 464.03 545.01 464.03 545.01 484.2 561.11 484.2 561.11 479.42"/><polygon class="cls-99" points="561.11 479.42 550.27 479.42 550.27 476.53 560.48 476.53 560.48 471.72 550.27 471.72 550.27 468.84 561.11 468.84 561.11 464.03 545.01 464.03 545.01 484.2 561.11 484.2 561.11 479.42"/><path d="M714.56,540.63a5.82,5.82,0,0,0,.7-2.81,7.23,7.23,0,0,0-.27-1.91,5.71,5.71,0,0,0-.79-1.75,7.77,7.77,0,0,0-1-1.17,8.9,8.9,0,0,0-1.3-1,7.2,7.2,0,0,0-1.46-.73,4.35,4.35,0,0,0-1.48-.27H698.83v20.18h5.56l0-6.24h3.41l3.51,6.24h6.06l-4.73-8.32A6.34,6.34,0,0,0,714.56,540.63Zm-5.1-2.15a2.27,2.27,0,0,1-1.22,1.15,2.33,2.33,0,0,1-.88.17h-3.15v-4.34h3.15a2.33,2.33,0,0,1,.88.17,2.27,2.27,0,0,1,1.22,1.15,2.09,2.09,0,0,1,0,1.71Z" transform="translate(-134.81 -66.93)"/><path class="cls-99" d="M714.56,540.63a5.82,5.82,0,0,0,.7-2.81,7.23,7.23,0,0,0-.27-1.91,5.71,5.71,0,0,0-.79-1.75,7.77,7.77,0,0,0-1-1.17,8.9,8.9,0,0,0-1.3-1,7.2,7.2,0,0,0-1.46-.73,4.35,4.35,0,0,0-1.48-.27H698.83v20.18h5.56l0-6.24h3.41l3.51,6.24h6.06l-4.73-8.32A6.34,6.34,0,0,0,714.56,540.63Zm-5.1-2.15a2.27,2.27,0,0,1-1.22,1.15,2.33,2.33,0,0,1-.88.17h-3.15v-4.34h3.15a2.33,2.33,0,0,1,.88.17,2.27,2.27,0,0,1,1.22,1.15,2.09,2.09,0,0,1,0,1.71Z" transform="translate(-134.81 -66.93)"/><path d="M625.18,556.34l-2.25,3.73-2.24-3.73a.25.25,0,0,0-.21-.11h-2.31v9.43h2.47v-4.85l2,3.33a.19.19,0,0,0,.12.1l.16,0,.15,0a.18.18,0,0,0,.12-.1l2-3.33v4.85h2.47v-9.43h-2.32A.24.24,0,0,0,625.18,556.34Z" transform="translate(-134.81 -66.93)"/><path class="cls-100" d="M625.18,556.34l-2.25,3.73-2.24-3.73a.25.25,0,0,0-.21-.11h-2.31v9.43h2.47v-4.85l2,3.33a.19.19,0,0,0,.12.1l.16,0,.15,0a.18.18,0,0,0,.12-.1l2-3.33v4.85h2.47v-9.43h-2.32A.24.24,0,0,0,625.18,556.34Z" transform="translate(-134.81 -66.93)"/><path d="M632.18,556.23l-3.49,9.43h2.66l.49-1.3h2.91l.49,1.3h2.66l-3.49-9.43Zm.36,5.93.75-2.49.74,2.49Z" transform="translate(-134.81 -66.93)"/><path class="cls-100" d="M632.18,556.23l-3.49,9.43h2.66l.49-1.3h2.91l.49,1.3h2.66l-3.49-9.43Zm.36,5.93.75-2.49.74,2.49Z" transform="translate(-134.81 -66.93)"/><rect x="503.86" y="489.3" width="2.54" height="9.43"/><rect class="cls-100" x="503.86" y="489.3" width="2.54" height="9.43"/><polygon points="513.71 494.38 510.43 489.3 507.93 489.3 507.93 498.72 510.44 498.72 510.44 493.68 513.71 498.72 516.24 498.72 516.24 489.3 513.71 489.3 513.71 494.38"/><polygon class="cls-101" points="513.71 494.38 510.43 489.3 507.93 489.3 507.93 498.72 510.44 498.72 510.44 493.68 513.71 498.72 516.24 498.72 516.24 489.3 513.71 489.3 513.71 494.38"/><polygon points="517.15 491.46 517.32 491.63 519.91 491.63 519.91 498.73 522.48 498.73 522.48 491.63 525.07 491.63 525.24 491.46 525.24 489.3 517.15 489.3 517.15 491.46"/><polygon class="cls-100" points="517.15 491.46 517.32 491.63 519.91 491.63 519.91 498.73 522.48 498.73 522.48 491.63 525.07 491.63 525.24 491.46 525.24 489.3 517.15 489.3 517.15 491.46"/><polygon points="526.22 498.73 533.75 498.73 533.75 496.49 528.68 496.49 528.68 495.14 533.46 495.14 533.46 492.89 528.68 492.89 528.68 491.55 533.75 491.55 533.75 489.3 526.22 489.3 526.22 498.73"/><polygon class="cls-100" points="526.22 498.73 533.75 498.73 533.75 496.49 528.68 496.49 528.68 495.14 533.46 495.14 533.46 492.89 528.68 492.89 528.68 491.55 533.75 491.55 533.75 489.3 526.22 489.3 526.22 498.73"/><polygon points="541.07 494.38 537.79 489.3 535.28 489.3 535.28 498.72 537.8 498.72 537.8 493.68 541.07 498.72 543.6 498.72 543.6 489.3 541.07 489.3 541.07 494.38"/><polygon class="cls-101" points="541.07 494.38 537.79 489.3 535.28 489.3 535.28 498.72 537.8 498.72 537.8 493.68 541.07 498.72 543.6 498.72 543.6 489.3 541.07 489.3 541.07 494.38"/><path d="M682.63,556.23l-3.49,9.43h2.66l.49-1.3h2.91l.49,1.3h2.66l-3.49-9.43Zm.36,5.93.75-2.49.74,2.49Z" transform="translate(-134.81 -66.93)"/><path class="cls-100" d="M682.63,556.23l-3.49,9.43h2.66l.49-1.3h2.91l.49,1.3h2.66l-3.49-9.43Zm.36,5.93.75-2.49.74,2.49Z" transform="translate(-134.81 -66.93)"/><polygon points="560.07 494.38 556.79 489.3 554.28 489.3 554.28 498.72 556.8 498.72 556.8 493.68 560.07 498.72 562.6 498.72 562.6 489.3 560.07 489.3 560.07 494.38"/><polygon class="cls-101" points="560.07 494.38 556.79 489.3 554.28 489.3 554.28 498.72 556.8 498.72 556.8 493.68 560.07 498.72 562.6 498.72 562.6 489.3 560.07 489.3 560.07 494.38"/><path d="M704.42,563.14a2.28,2.28,0,0,1-1.09.27,2.21,2.21,0,0,1-.94-.2,2.41,2.41,0,0,1-.75-.54,2.51,2.51,0,0,1-.5-.78A2.45,2.45,0,0,1,701,561a2.42,2.42,0,0,1,.18-.93,2.59,2.59,0,0,1,.5-.78,2.29,2.29,0,0,1,1.7-.73,2.54,2.54,0,0,1,1.48.5l1.95-1.7a5.49,5.49,0,0,0-1.62-1,4.92,4.92,0,0,0-1.82-.35,4.81,4.81,0,0,0-2,.4,5,5,0,0,0-1.58,1.08,5.17,5.17,0,0,0-1.06,1.59,5,5,0,0,0,0,3.85,5.16,5.16,0,0,0,1.06,1.59,5,5,0,0,0,1.58,1.08,4.83,4.83,0,0,0,2,.39,4.91,4.91,0,0,0,2.19-.5,5.29,5.29,0,0,0,1.78-1.43l-2-1.63A2.73,2.73,0,0,1,704.42,563.14Z" transform="translate(-134.81 -66.93)"/><path class="cls-102" d="M704.42,563.14a2.28,2.28,0,0,1-1.09.27,2.21,2.21,0,0,1-.94-.2,2.41,2.41,0,0,1-.75-.54,2.51,2.51,0,0,1-.5-.78A2.45,2.45,0,0,1,701,561a2.42,2.42,0,0,1,.18-.93,2.59,2.59,0,0,1,.5-.78,2.29,2.29,0,0,1,1.7-.73,2.54,2.54,0,0,1,1.48.5l1.95-1.7a5.49,5.49,0,0,0-1.62-1,4.92,4.92,0,0,0-1.82-.35,4.81,4.81,0,0,0-2,.4,5,5,0,0,0-1.58,1.08,5.17,5.17,0,0,0-1.06,1.59,5,5,0,0,0,0,3.85,5.16,5.16,0,0,0,1.06,1.59,5,5,0,0,0,1.58,1.08,4.83,4.83,0,0,0,2,.39,4.91,4.91,0,0,0,2.19-.5,5.29,5.29,0,0,0,1.78-1.43l-2-1.63A2.73,2.73,0,0,1,704.42,563.14Z" transform="translate(-134.81 -66.93)"/><polygon points="573.67 498.73 581.19 498.73 581.19 496.49 576.12 496.49 576.12 495.14 580.9 495.14 580.9 492.89 576.12 492.89 576.12 491.55 581.19 491.55 581.19 489.3 573.67 489.3 573.67 498.73"/><polygon class="cls-100" points="573.67 498.73 581.19 498.73 581.19 496.49 576.12 496.49 576.12 495.14 580.9 495.14 580.9 492.89 576.12 492.89 576.12 491.55 581.19 491.55 581.19 489.3 573.67 489.3 573.67 498.73"/></g></svg>